<svg xmlns="http://www.w3.org/2000/svg" width="19.942" height="19.942" viewBox="0 0 19.942 19.942"><defs><style>.a{fill:none;stroke:#bdc1c3;}</style></defs><g transform="translate(0.5 0.5)"><path class="a" d="M9.471.563a9.471,9.471,0,1,0,9.471,9.471A9.469,9.469,0,0,0,9.471.563ZM5.194,9.422a1.21,1.21,0,0,1,.4-.894L4.411,8.174A.61.61,0,0,1,4.762,7l3.055.917a.611.611,0,0,1-.176,1.2c-.019,0-.042-.008-.065-.008a1.235,1.235,0,0,1,.065.313,1.224,1.224,0,0,1-2.448,0Zm6.416,5.889a2.873,2.873,0,0,0-4.281,0,.611.611,0,0,1-.939-.783,4,4,0,0,1,6.156,0A.61.61,0,0,1,11.609,15.311Zm2.925-7.138-1.184.355a1.219,1.219,0,1,1-2.043.894,1.063,1.063,0,0,1,.065-.313.376.376,0,0,1-.065.008.611.611,0,0,1-.176-1.2L14.187,7a.61.61,0,1,1,.348,1.169Z" transform="translate(0 -0.563)"/></g></svg>