<svg xmlns="http://www.w3.org/2000/svg" width="6.262" height="6.262" viewBox="0 0 6.262 6.262"><defs><style>.a{fill:#e2af25;}</style></defs><path class="a" d="M0,4.957V5.48c0,.432,1.052.783,2.348.783S4.7,5.911,4.7,5.48V4.957a4.448,4.448,0,0,1-2.348.522A4.448,4.448,0,0,1,0,4.957ZM3.914,1.566c1.3,0,2.348-.351,2.348-.783S5.211,0,3.914,0,1.566.351,1.566.783,2.618,1.566,3.914,1.566ZM0,3.674v.631c0,.432,1.052.783,2.348.783S4.7,4.737,4.7,4.305V3.674a3.939,3.939,0,0,1-2.348.631A3.939,3.939,0,0,1,0,3.674Zm5.088.135c.7-.136,1.174-.388,1.174-.678V2.609a3,3,0,0,1-1.174.422ZM2.348,1.957c-1.3,0-2.348.438-2.348.979s1.052.979,2.348.979S4.7,3.476,4.7,2.936,3.645,1.957,2.348,1.957Zm2.682.689c.734-.132,1.232-.391,1.232-.689V1.435A3.982,3.982,0,0,1,4.3,1.946,1.37,1.37,0,0,1,5.031,2.646Z"/></svg>