<svg xmlns="http://www.w3.org/2000/svg" width="25" height="15" viewBox="0 0 25 15"><defs><style>.a{fill:#ea4335;}</style></defs><path class="a" d="M16.088,10.926a6.116,6.116,0,0,1,.128,1.248c0,4.287-2.995,7.326-7.5,7.326A7.659,7.659,0,0,1,.9,12,7.659,7.659,0,0,1,8.712,4.5a7.633,7.633,0,0,1,5.233,1.965L11.825,8.419A4.483,4.483,0,0,0,8.712,7.263a4.738,4.738,0,1,0,0,9.475A4.189,4.189,0,0,0,13.146,13.5H8.712V10.926h7.376Zm7.544.251V9H21.354v2.177H19.086v2.188h2.268v2.177h2.279V13.365H25.9V11.177H23.632Z" transform="translate(-0.9 -4.5)"/></svg>