<svg xmlns="http://www.w3.org/2000/svg" width="36" height="31.5" viewBox="0 0 36 31.5"><defs><style>.a{fill:#4dbae6;}</style></defs><g transform="translate(-161.6 -345.25)"><path class="a" d="M36,10.125v20.25a3.376,3.376,0,0,1-3.375,3.375H3.375A3.376,3.376,0,0,1,0,30.375V10.125A3.376,3.376,0,0,1,3.375,6.75H9.563l.865-2.313A3.37,3.37,0,0,1,13.584,2.25h8.824a3.37,3.37,0,0,1,3.157,2.187l.872,2.313h6.188A3.376,3.376,0,0,1,36,10.125ZM26.438,20.25A8.438,8.438,0,1,0,18,28.688,8.444,8.444,0,0,0,26.438,20.25Z" transform="translate(161.6 343)"/><path class="a" d="M18.536,13.433H14.7V9.6a.635.635,0,0,0-1.271,0v3.832H9.6a.635.635,0,0,0,0,1.271h3.832v3.832a.635.635,0,1,0,1.271,0V14.7h3.832a.635.635,0,1,0,0-1.271Z" transform="translate(165.535 349.035)"/></g></svg>