<svg xmlns="http://www.w3.org/2000/svg" width="16.478" height="17.165" viewBox="0 0 16.478 17.165"><defs><style>.a{fill:#7f7f7f;}</style></defs><g transform="translate(0)"><path class="a" d="M28.9,26.676a8.595,8.595,0,0,0,.749,17.111,8.595,8.595,0,0,0,.749-17.111A5.886,5.886,0,0,0,28.9,26.676Zm7.49,8.534A6.746,6.746,0,1,1,29.645,28.2,6.882,6.882,0,0,1,36.386,35.21Z" transform="translate(-21.405 -26.621)"/><path class="a" d="M4.734,3.234a.184.184,0,0,0,.184-.184V2.434a.184.184,0,0,0-.184-.184H.184A.184.184,0,0,0,0,2.434v.688a.184.184,0,0,0,.184.184H1.5a1.109,1.109,0,0,1,.937.419H.184A.184.184,0,0,0,0,3.91v.615a.184.184,0,0,0,.184.184h2.44a1.062,1.062,0,0,1-1.149.9H.184A.184.184,0,0,0,0,5.795V6.61a.184.184,0,0,0,.059.136L2.6,9.087a.184.184,0,0,0,.125.049H3.99a.184.184,0,0,0,.125-.32L1.8,6.675A2.106,2.106,0,0,0,3.922,4.709h.812a.184.184,0,0,0,.184-.184V3.91a.184.184,0,0,0-.184-.184h-.9a2.105,2.105,0,0,0-.219-.492Z" transform="translate(5.749 1.719)"/><path class="a" d="M2.055,2.931c-.106-.248-.308-.3-.45-.113a.875.875,0,0,0-.064.789l.382.895a.451.451,0,0,1-.015.368L1.78,5.1c-.067.118-.177.109-.237-.019l-.9-1.9V.564C.642.252.5,0,.321,0S0,.252,0,.564V4.411a1.3,1.3,0,0,0,.105.528L1.15,7.3a1.5,1.5,0,0,1,.1.382c.018.122.081.2.154.2H2.729c.088,0,.161-.127.161-.282V5.637a3.508,3.508,0,0,0-.257-1.353L2.055,2.931Z" transform="translate(2.286 7.373) rotate(-23)"/><path class="a" d="M2.055,4.96c-.106.248-.308.3-.45.113a.875.875,0,0,1-.064-.789l.382-.895a.451.451,0,0,0-.015-.368L1.78,2.8c-.067-.118-.177-.109-.237.019l-.9,1.9V7.327c0,.312-.143.564-.321.564S0,7.639,0,7.327V3.481a1.3,1.3,0,0,1,.105-.528L1.15.587A1.5,1.5,0,0,0,1.254.2c.018-.122.081-.2.154-.2H2.729c.088,0,.161.127.161.282V2.255a3.508,3.508,0,0,1-.257,1.353Z" transform="matrix(-0.921, -0.391, 0.391, -0.921, 11.123, 14.636)"/></g></svg>