<svg xmlns="http://www.w3.org/2000/svg" width="26.462" height="41.703" viewBox="0 0 26.462 41.703"><defs><style>.a{fill:#3e5df5;}</style></defs><g transform="translate(-73.405 -125.763)"><path class="a" d="M214.6.868V9.113c0,.479-.537.868-1.2.868s-1.2-.389-1.2-.868V.868c0-.479.537-.868,1.2-.868S214.6.389,214.6.868Zm0,0" transform="translate(-125.969 157.486)"/><path class="a" d="M274.6,40.868v3.905c0,.479-.537.868-1.2.868s-1.2-.389-1.2-.868V40.868c0-.479.537-.868,1.2-.868S274.6,40.389,274.6,40.868Zm0,0" transform="translate(-179.609 117.486)"/><path class="a" d="M154.6,40.868v3.905c0,.479-.537.868-1.2.868s-1.2-.389-1.2-.868V40.868c0-.479.537-.868,1.2-.868S154.6,40.389,154.6,40.868Zm0,0" transform="translate(-72.329 117.486)"/><g transform="translate(13 -2)"><path class="a" d="M33.433,26.707a13.573,13.573,0,0,0,1.2,27.054,13.573,13.573,0,0,0,1.2-27.054A9.6,9.6,0,0,0,33.433,26.707ZM45.461,40.2A10.828,10.828,0,1,1,34.636,29.11,10.96,10.96,0,0,1,45.461,40.2Z" transform="translate(39 101.142)"/><path class="a" d="M7.481,3.8a.291.291,0,0,0,.291-.291V2.541a.291.291,0,0,0-.291-.291H.291A.291.291,0,0,0,0,2.541V3.628a.291.291,0,0,0,.291.291H2.363a1.752,1.752,0,0,1,1.481.662H.291A.291.291,0,0,0,0,4.873v.972a.291.291,0,0,0,.291.291H4.148A1.679,1.679,0,0,1,2.332,7.56H.291A.291.291,0,0,0,0,7.852V9.14a.292.292,0,0,0,.094.214l4.009,3.7a.292.292,0,0,0,.2.077H6.306a.291.291,0,0,0,.2-.506L2.839,9.243A3.328,3.328,0,0,0,6.2,6.136H7.481a.291.291,0,0,0,.291-.291V4.873a.291.291,0,0,0-.291-.291H6.056A3.327,3.327,0,0,0,5.709,3.8Z" transform="translate(69.7 131.791)"/><path class="a" d="M3.247,9.132c-.168-.392-.487-.473-.71-.178a1.383,1.383,0,0,0-.1,1.247l.6,1.414a.713.713,0,0,1-.024.582l-.2.356c-.106.186-.279.173-.374-.031l-1.424-3V5.391C1.015,4.9.788,4.5.507,4.5S0,4.9,0,5.391V11.47a2.053,2.053,0,0,0,.166.835l1.651,3.738a2.367,2.367,0,0,1,.165.6c.029.192.128.323.243.323H4.313c.14,0,.254-.2.254-.445V13.407a5.543,5.543,0,0,0-.406-2.138L3.247,9.132Z" transform="translate(62.259 135.286) rotate(-23)"/><path class="a" d="M3.247,7.838c-.168.392-.487.473-.71.178a1.383,1.383,0,0,1-.1-1.247l.6-1.414a.713.713,0,0,0-.024-.582l-.2-.356c-.106-.186-.279-.173-.374.031l-1.424,3v4.131c0,.493-.227.891-.507.891S0,12.072,0,11.579V5.5a2.053,2.053,0,0,1,.166-.835L1.817.927a2.367,2.367,0,0,0,.165-.6C2.011.131,2.111,0,2.225,0H4.313c.14,0,.254.2.254.445V3.563A5.543,5.543,0,0,1,4.161,5.7L3.247,7.838Z" transform="matrix(-0.921, -0.391, 0.391, -0.921, 78.404, 150.907)"/></g></g></svg>