<svg xmlns="http://www.w3.org/2000/svg" width="10.873" height="11.151" viewBox="0 0 10.873 11.151"><defs><style>.a{fill:#fff;}</style></defs><g transform="translate(-60.405 -127.763)"><path class="a" d="M26.348,26.657a5.444,5.444,0,1,0,.988,0A3.944,3.944,0,0,0,26.348,26.657ZM31.29,32.2a4.449,4.449,0,1,1-4.448-4.557A4.5,4.5,0,0,1,31.29,32.2Z" transform="translate(39 101.142)"/><path class="a" d="M3.074,2.889a.12.12,0,0,0,.12-.12v-.4a.12.12,0,0,0-.12-.12H.12A.12.12,0,0,0,0,2.37v.447a.12.12,0,0,0,.12.12H.971a.72.72,0,0,1,.608.272H.12a.12.12,0,0,0-.12.12v.4a.12.12,0,0,0,.12.12H1.7a.69.69,0,0,1-.746.585H.12a.12.12,0,0,0-.12.12v.529a.12.12,0,0,0,.039.088L1.686,6.689a.12.12,0,0,0,.081.032h.824a.12.12,0,0,0,.081-.208L1.166,5.123a1.367,1.367,0,0,0,1.38-1.277h.527a.12.12,0,0,0,.12-.12v-.4a.12.12,0,0,0-.12-.12H2.488a1.367,1.367,0,0,0-.142-.319Z" transform="translate(64.224 128.093)"/><path class="a" d="M1.334,1.9c-.069-.161-.2-.194-.292-.073A.568.568,0,0,0,1,2.342l.248.581a.293.293,0,0,1-.01.239l-.083.146C1.112,3.385,1.041,3.38,1,3.3L.417,2.063V.366C.417.164.324,0,.208,0S0,.164,0,.366v2.5a.844.844,0,0,0,.068.343L.747,4.743a.972.972,0,0,1,.068.248c.012.079.053.133.1.133h.858c.057,0,.1-.082.1-.183V3.66a2.278,2.278,0,0,0-.167-.878L1.334,1.9Z" transform="translate(61.89 132.556) rotate(-23)"/><path class="a" d="M1.334,3.221c-.069.161-.2.194-.292.073A.568.568,0,0,1,1,2.781L1.249,2.2a.293.293,0,0,0-.01-.239l-.083-.146c-.044-.077-.115-.071-.154.013L.417,3.061v1.7c0,.2-.093.366-.208.366S0,4.96,0,4.758V2.26a.844.844,0,0,1,.068-.343L.747.381A.972.972,0,0,0,.814.133C.826.054.867,0,.914,0h.858c.057,0,.1.082.1.183V1.464a2.278,2.278,0,0,1-.167.878Z" transform="matrix(-0.921, -0.391, 0.391, -0.921, 67.801, 137.273)"/></g></svg>