<svg xmlns="http://www.w3.org/2000/svg" width="19.127" height="18.543" viewBox="0 0 19.127 18.543"><defs><style>.a{opacity:0;}.b{fill:#fff;}.c{fill:#bdc1c3;}</style></defs><g class="a" transform="translate(10.798 13.823)"><path class="b" d="M138.509,133.473h4.567a.719.719,0,0,1,.719.719v2.246a1.437,1.437,0,0,1-1.437,1.437h-4.9a1.677,1.677,0,0,1-1.677-1.677,2.725,2.725,0,0,1,2.725-2.725Z" transform="translate(-135.784 -133.473)"/></g><g transform="translate(10.481 14.408)"><path class="c" d="M140.676,141.291h-4.9a2,2,0,0,1-1.994-1.994c0-1.678,1.687-1.14,3.364-1.14h4.245c.571,0,1.036-1.438,1.036-.867v2.246A1.757,1.757,0,0,1,140.676,141.291Zm-3.9-2.666c-1.328,0-2.36-.656-2.36.672a1.361,1.361,0,0,0,1.36,1.36h4.9a1.121,1.121,0,0,0,1.12-1.12v-2.246c0-.221-.18,1.208-.4,1.208Z" transform="translate(-133.785 -137.156)"/></g><g class="a" transform="translate(0.317 0.318)"><path class="b" d="M70.493,50.8l1.327-1.7a1.916,1.916,0,0,1,1.51-.737H84.625a1.917,1.917,0,0,1,1.51.737l1.327,1.7a3.592,3.592,0,0,1,.761,2.211v9.667a.958.958,0,0,1-.958.958H84.559a.958.958,0,0,1-.958-.958.958.958,0,0,1-.958.958H79.936a.958.958,0,0,1-.958-.958.958.958,0,0,1-.958.958H75.313a.958.958,0,0,1-.958-.958.958.958,0,0,1-.958.958H70.69a.958.958,0,0,1-.958-.958V53.008A3.591,3.591,0,0,1,70.493,50.8Z" transform="translate(-69.732 -48.361)"/></g><path class="c" d="M85.583,62.267H82.876a1.273,1.273,0,0,1-.958-.434,1.273,1.273,0,0,1-.958.434H78.253a1.273,1.273,0,0,1-.958-.434,1.273,1.273,0,0,1-.958.434H73.63a1.273,1.273,0,0,1-.958-.434,1.273,1.273,0,0,1-.958.434H69.008a1.277,1.277,0,0,1-1.276-1.276V51.324a3.926,3.926,0,0,1,.829-2.407l1.327-1.7a2.221,2.221,0,0,1,1.76-.859H82.942a2.22,2.22,0,0,1,1.76.859l1.327,1.7a3.927,3.927,0,0,1,.829,2.407v9.667A1.277,1.277,0,0,1,85.583,62.267Zm-3.347-1.276a.642.642,0,0,0,.641.641h2.707a.642.642,0,0,0,.641-.641V51.324a3.289,3.289,0,0,0-.694-2.016l-1.327-1.7a1.589,1.589,0,0,0-1.26-.615H71.648a1.589,1.589,0,0,0-1.26.615l-1.327,1.7a3.289,3.289,0,0,0-.694,2.016v9.667a.642.642,0,0,0,.641.641h2.706a.642.642,0,0,0,.641-.641.317.317,0,1,1,.635,0,.642.642,0,0,0,.641.641h2.706a.642.642,0,0,0,.641-.641.317.317,0,1,1,.635,0,.642.642,0,0,0,.641.641H80.96a.642.642,0,0,0,.641-.641.317.317,0,1,1,.635,0ZM68.811,49.113h0Z" transform="translate(-67.732 -46.36)"/><g transform="translate(13.869 7.007)"><path class="c" d="M155.451,98.463a.317.317,0,0,1-.317-.317V90.838a.317.317,0,1,1,.635,0v7.307A.317.317,0,0,1,155.451,98.463Z" transform="translate(-155.134 -90.521)"/></g><g transform="translate(9.246 7.007)"><path class="c" d="M126.317,98.463a.317.317,0,0,1-.317-.317V90.838a.317.317,0,1,1,.635,0v7.307A.317.317,0,0,1,126.317,98.463Z" transform="translate(-126 -90.521)"/></g><g transform="translate(4.623 7.007)"><path class="c" d="M97.183,98.463a.317.317,0,0,1-.317-.317V90.838a.317.317,0,0,1,.635,0v7.307A.317.317,0,0,1,97.183,98.463Z" transform="translate(-96.866 -90.521)"/></g></svg>