<svg xmlns="http://www.w3.org/2000/svg" width="16.646" height="21.876" viewBox="0 0 16.646 21.876"><defs><style>.a{fill:#ffcfac;fill-rule:evenodd;opacity:0;}.b{fill:#bdc1c3;}</style></defs><g transform="translate(0.388 0.388)"><path class="a" d="M21.727,78.376V76.237c2.462-1.006,4.127-2.952,4.127-5.181V67.7a1.359,1.359,0,0,0-.846-1.167,2.342,2.342,0,0,0-1.032-.232h-4.6c-1.033,0-1.878.63-1.878,1.4v1.429c0,.769-.845,1.4-1.878,1.4s-1.878-.63-1.878-1.4V60.586c0-.769-.845-1.4-1.878-1.4s-1.878.63-1.878,1.4V71.057a5.449,5.449,0,0,0,2.786,4.488v2.831Zm0,0" transform="translate(-9.984 -57.277)"/><path class="a" d="M77.54,160.855a1.274,1.274,0,0,0,1.286-1.253v-3.955a1.287,1.287,0,0,0-2.572,0V159.6A1.274,1.274,0,0,0,77.54,160.855Zm0,0" transform="translate(-72.131 -147.901)"/><path class="a" d="M142.52,158.319a1.274,1.274,0,0,1,1.286-1.253h1.286v-1.422a1.287,1.287,0,0,0-2.573,0Zm0,0" transform="translate(-134.274 -148.046)"/><path class="a" d="M208.789,16.843v1.422h1.866a1.3,1.3,0,0,1,.707.207V11.237a1.287,1.287,0,0,0-2.573,0Zm0,0" transform="translate(-196.071 -9.984)"/></g><path class="b" d="M15.818,9.873V1.866A2.182,2.182,0,0,0,13.424,0a2.182,2.182,0,0,0-2.393,1.866v4.8a2.888,2.888,0,0,0-1.284-.292,2.7,2.7,0,0,0-1.839.673A2.7,2.7,0,0,0,6.07,6.374a2.887,2.887,0,0,0-1.283.292V4.038A2.182,2.182,0,0,0,2.393,2.172,2.182,2.182,0,0,0,0,4.038a.508.508,0,0,0,.555.441.508.508,0,0,0,.555-.441,1.165,1.165,0,0,1,1.284-.984,1.166,1.166,0,0,1,1.284.984v8.7A2.182,2.182,0,0,0,6.07,14.6h.014a5.145,5.145,0,0,0-.335.443.4.4,0,0,0,.228.6.668.668,0,0,0,.261.052.589.589,0,0,0,.49-.233,5.9,5.9,0,0,1,4.926-2.314h.759a.508.508,0,0,0,.555-.441.508.508,0,0,0-.555-.441H9.747a1.165,1.165,0,0,1-1.284-.984A1.165,1.165,0,0,1,9.747,10.3h4.505a1.569,1.569,0,0,1,.692.156l.037.019a.945.945,0,0,1,.555.809V14.7a4.386,4.386,0,0,1-.207,1.331.445.445,0,0,0,.4.536.7.7,0,0,0,.136.014.547.547,0,0,0,.538-.333,5.1,5.1,0,0,0,.241-1.547V11.283a1.727,1.727,0,0,0-.828-1.41ZM6.07,13.721a1.165,1.165,0,0,1-1.284-.983v-4.5A1.166,1.166,0,0,1,6.07,7.257a1.165,1.165,0,0,1,1.284.983v4.5A1.165,1.165,0,0,1,6.07,13.721ZM8.464,9.709V8.241a1.165,1.165,0,0,1,1.284-.983,1.165,1.165,0,0,1,1.284.983V9.416H9.747A2.888,2.888,0,0,0,8.464,9.709Zm3.677-.292V1.866A1.165,1.165,0,0,1,13.424.883a1.165,1.165,0,0,1,1.284.983V9.451a3.055,3.055,0,0,0-.455-.034Zm0,0" transform="translate(0 0)"/><path class="b" d="M13.7,103.345a7.592,7.592,0,0,1-1.856.985.622.622,0,0,0-.092.043l-.03.019-.01.007-.027.02-.01.008-.02.019-.012.012-.014.016-.014.017-.008.012-.015.022,0,.008a.286.286,0,0,0-.014.027l0,.006c0,.01-.008.02-.011.03a.278.278,0,0,0-.011.077V106.2h-7.7v-1.388q.345.151.711.279a.757.757,0,0,0,.249.041.618.618,0,0,0,.5-.214c.138-.192.026-.425-.249-.521a8.285,8.285,0,0,1-1.374-.62.573.573,0,0,0-.086-.049,4.445,4.445,0,0,1-2.491-3.7L1.069,89.2c0-.214-.242-.213-.55-.213s-.512-.114-.512.1l0,10.947a4.427,4.427,0,0,0,1.272,3,7.008,7.008,0,0,0,1.469,1.194v2.359c0,.214.25.388.558.388h8.811c.308,0,.558-.174.558-.388V104.9a7.321,7.321,0,0,0,2.317-1.409,5.745,5.745,0,0,0,.915-1.156c.281-.289.366-.717.488-.807.211-.156-.13.088-.354-.059-.063-.042-.293-.9-.537-.34-.253.2-.46.845-.744,1.207a6.159,6.159,0,0,1-1.05,1.01Zm0,0" transform="translate(0 -85.101)"/></svg>