<?xml version="1.0" encoding="utf-8"?>
<!-- Generator: Adobe Illustrator 25.0.1, SVG Export Plug-In . SVG Version: 6.00 Build 0)  -->
<svg version="1.1" id="Layer_1" xmlns="http://www.w3.org/2000/svg" xmlns:xlink="http://www.w3.org/1999/xlink" x="0px" y="0px"
	 viewBox="0 0 403.67 500" style="enable-background:new 0 0 403.67 500;" xml:space="preserve">
<style type="text/css">
	.st0{fill:#7F7F7F;}
</style>
<g id="Icon_ionic-ios-notifications" transform="translate(231.398 706.834)">
	<g id="Path_731">
		<path class="st0" d="M-29.79-206.83c-41.04,0-67.56-28.77-67.56-73.27v-9.51H37.58v9.51C37.58-235.6,11.13-206.83-29.79-206.83z
			 M-77.82-270.59c3.13,28.21,20.59,44.74,48.03,44.74c27.34,0,44.72-16.53,47.84-44.74H-77.82z"/>
	</g>
	<g id="Path_732">
		<path class="st0" d="M138.99-293.42h-336.94c-7.23,0-14.4-2.4-20.17-6.74c-7.11-5.37-11.71-13.19-12.95-22.03
			c-1.24-8.82,1.04-17.61,6.41-24.72c3.54-4.68,7.66-9.03,12.09-13.65c18.25-19.04,40.96-42.75,40.96-128.68
			c0-138.15,72.07-170.08,103.06-177.4c0.05-0.01,0.08-0.02,0.13-0.03v-1.31c0-21.42,17.43-38.85,38.85-38.85
			c21.43,0,38.85,17.43,38.85,38.85v1.27c0.07,0.03,0.17,0.05,0.24,0.07c30.87,7.23,102.95,39.07,102.95,177.38
			c0,86.06,22.75,109.76,41.05,128.81c4.38,4.57,8.49,8.86,12,13.48l0.02,0.04c4.31,5.74,6.7,12.83,6.72,19.98
			C172.32-308.54,157.39-293.49,138.99-293.42z M-29.56-687.82c-10.94,0-19.84,8.9-19.84,19.84v3.5c0,5.77-2.54,13.29-14.65,16.32
			c-26.71,6.31-88.54,34.35-88.54,158.92c0,93.56-26.74,121.48-46.25,141.85c-3.88,4.05-7.54,7.82-10.64,11.94
			c-2.3,3.05-3.29,6.83-2.76,10.64c0.53,3.79,2.51,7.15,5.56,9.45c2.5,1.88,5.59,2.92,8.72,2.92h336.9
			c7.89-0.04,14.32-6.52,14.3-14.45c-0.02-3.06-1.04-6.11-2.88-8.58c-3.08-4.05-6.7-7.8-10.57-11.81
			c-19.56-20.37-46.34-48.27-46.34-141.98c0-124.71-61.81-152.66-88.39-158.89c-9.86-2.44-14.8-7.93-14.8-16.34v-3.48
			C-9.73-678.92-18.62-687.82-29.56-687.82z"/>
	</g>
</g>
</svg>
