<svg xmlns="http://www.w3.org/2000/svg" width="16.478" height="16.47" viewBox="0 0 16.478 16.47"><defs><style>.a{fill:#7f7f7f;}</style></defs><path class="a" d="M12.995,4.761A4.761,4.761,0,1,0,5.541,8.684,8.248,8.248,0,0,0,0,16.469H1.286A6.956,6.956,0,0,1,8.234,9.521a4.766,4.766,0,0,0,4.761-4.761ZM8.234,8.235a3.474,3.474,0,1,1,3.474-3.474A3.478,3.478,0,0,1,8.234,8.235Zm8.244,3.6L13.45,14.866l-.91-.91,1.507-1.507H12.931a2.8,2.8,0,0,0-2.8,2.8V16.47H8.845V15.243a4.09,4.09,0,0,1,4.085-4.081h1.052L12.54,9.719l.91-.91Zm0,0" transform="translate(0)"/></svg>