<?xml version="1.0" encoding="utf-8"?>
<!-- Generator: Adobe Illustrator 16.0.0, SVG Export Plug-In . SVG Version: 6.00 Build 0)  -->
<!DOCTYPE svg PUBLIC "-//W3C//DTD SVG 1.1//EN" "http://www.w3.org/Graphics/SVG/1.1/DTD/svg11.dtd">
<svg version="1.1" id="Layer_1" xmlns="http://www.w3.org/2000/svg" xmlns:xlink="http://www.w3.org/1999/xlink" x="0px" y="0px"
	 width="2000px" height="2000px" viewBox="0 0 2000 2000" enable-background="new 0 0 2000 2000" xml:space="preserve">
<g>
	<path fill="#009ECE" d="M1310.961,1182.912c-0.463,1.059-0.907,2.121-1.378,3.165h0.902
		C1310.645,1185.023,1310.809,1183.975,1310.961,1182.912z"/>
	<path fill="#009ECE" d="M992.854,729.759c0,0.004,0.013,0.075,0.03,0.181C992.871,729.88,992.862,729.822,992.854,729.759z"/>
	<path fill="#009ECE" d="M1566.781,1126.211c-0.111-0.405-0.207-0.811-0.293-1.221c-59.102-299.805-179.378-882.59-211.609-942.363
		c-11-20.379-34.227-52.581-66.027-39.539c-15.727,6.45-31.039,23.213-42.898,48.253c-0.523,2.465-1.002,5.008-1.464,7.585
		c-0.241-0.982-0.483-1.956-0.708-2.851c-22.389,51.13-30.687,133.816-1.572,233.596c4.171,14.296,8.281,29.342,12.317,44.955
		c38.69,149.617,70.611,352.1,83.636,461.32c0.018,0.146-0.004,0.287,0.01,0.434c4.363,28.258,7.391,57.293,9.039,86.341
		c2.293,40.422,1.951,80.795-1.101,118.968c2.146,16.267,4.105,31.187,5.833,44.389h68.611h19.747h141.693
		C1577.354,1165.131,1572.17,1145.056,1566.781,1126.211z"/>
	<path fill="#009ECE" d="M992.851,729.752v0.004c0.009-0.004,0.018-0.013,0.026-0.021L992.851,729.752z"/>
	<path fill="#009ECE" d="M733.926,779.296c-6.213,9.752-10.765,19.232-14.1,27.942c3.334-8.709,7.886-18.19,14.1-27.944
		c-11.848,16.768-19.893,36.896-24.8,59.225c0.596,2.193,1.211,4.457,1.848,6.782c0.011-0.15,0.025-0.313,0.037-0.469
		c-0.012,0.156-0.026,0.32-0.037,0.471c0.132,0.494,0.257,0.937,0.389,1.436c0.417,1.521,0.81,3.108,1.22,4.652
		c8.077,30.565,14.859,65.629,22.002,102.715c2.556,13.254,5.174,26.812,7.917,40.495c13.502,67.272,30.231,137.741,59.168,191.476
		c2.86,5.314,5.839,10.47,8.952,15.438c3.359,5.375,6.879,10.529,10.553,15.455c19.456,26.055,43.433,45.399,73.543,54.457
		c11.667,3.51,24.234,5.495,37.842,5.698c1.641,0.026,3.184-0.077,4.783-0.104c-1.731-5.864-1.731-5.865,0-0.005
		c25.206-0.531,44.732-8.518,59.471-24.435c9.045-9.766,15.848-21.923,20.938-35.616c1.848-4.961,3.488-10.107,4.888-15.451
		c1.304-5,2.404-10.162,3.358-15.438c1.131-6.269,2.06-12.684,2.737-19.245c1.235-12.084,1.728-24.582,1.675-37.193
		c-0.034-7.896-0.28-15.822-0.712-23.735c-0.38-6.929-0.872-13.845-1.498-20.675c-0.354-3.449-0.717-6.968-1.097-10.533
		c-0.41-3.895-0.92-7.854-1.477-11.852c-3.087-22.159-8.241-46.012-14.1-72.996c-1.063-4.897-2.15-9.955-3.238-15.03
		c0,0-41.323-221.135-45.531-243.405c-7.3-7.199-42.612-34.673-137.363-9.422c-19.315,5.15-35.291,12.186-48.583,20.345
		c0-0.004,0.013-0.041,0.013-0.041C758.991,751.198,744.855,763.828,733.926,779.296z"/>
	<path fill="#009ECE" d="M543.596,1716.659c38.624,57.275,104.467,122.87,213.382,156.018
		c121.823,37.079,285.901,19.655,450.169-47.77c61.609-25.294,118.803-56.102,169.227-90.501
		c8.527-5.811,16.851-11.733,24.975-17.747H817.489H543.596z"/>
	<path fill="#009ECE" d="M466.94,1186.077h134.108c-6.803-18.728-6.801-18.728,0.002,0h167.842
		c-22.078-44.993-36.741-98.418-48.438-151.752c-0.313-0.608-0.72-1.211-0.844-1.908C709.126,973.5,684.734,876.13,683.068,864.64
		c-5.813-20.657-113.207-401.352-171.052-551.36c-26.528-68.796-76.144-96.228-119.613-95.763c-8.864,18.275-8.867,18.275-0.002,0
		c-9.361,0.102-18.451,1.468-26.952,4.026c-44.875,13.498-89.609,64.215-67.956,162.746
		c15.759,71.768,33.333,153.587,51.935,240.202c25.044,116.634,50.932,237.227,73.989,340.457
		C438.556,1032.724,453.877,1113.165,466.94,1186.077z"/>
	<path fill="#009ECE" d="M703.728,580.561c2.271,10.942,11.909,18.467,22.656,18.467c1.557,0,3.134-0.156,4.721-0.492
		c12.529-2.59,20.574-14.849,17.979-27.369c-2.953-14.257-73.858-350.671-207.667-489.364c-8.892-9.204-23.546-9.47-32.746-0.594
		c-9.204,8.891-9.47,23.55-0.591,32.754C632.583,243.009,703.037,577.202,703.728,580.561z"/>
	<path fill="#009ECE" d="M175.818,180.171c4.112,2.99,8.876,4.425,13.59,4.425c7.156,0,14.226-3.311,18.752-9.543
		c26.285-36.167,95.126-97.814,167.98-109.295c12.634-1.994,21.26-13.852,19.265-26.481C393.417,26.638,381.556,18,368.926,20.003
		c-87.289,13.752-166.372,83.973-198.233,127.813C163.175,158.169,165.47,172.653,175.818,180.171z"/>
	<path fill="#009ECE" d="M663.85,1935.133c-139.178-45.822-208.669-135.969-243.256-218.474h-49.075
		c0.246,0.678,0.481,1.347,0.738,2.024c33.221,88.135,108.259,204.854,277.101,260.437c2.411,0.799,4.842,1.165,7.242,1.165
		c9.735,0,18.784-6.173,22.002-15.917C682.602,1952.216,675.994,1939.121,663.85,1935.133z"/>
	<path fill="#009ECE" d="M188.536,542.229c-3.519-12.297-16.334-19.416-28.633-15.911c-12.302,3.505-19.417,16.328-15.911,28.629
		c1.092,3.821,109.586,384.682,144.007,575.84c2.017,11.199,11.777,19.057,22.762,19.057c1.371,0,2.754-0.117,4.134-0.363
		c12.591-2.271,20.956-14.311,18.695-26.896C298.755,929.138,189.633,546.075,188.536,542.229z"/>
	<path fill="#009ECE" d="M992.886,729.94c0.697,3.801,13.677,74.503,26.745,145.367c0.034,0.198,0.073,0.401,0.107,0.602
		c0.001,0.004,0.002,0.009,0.002,0.013c1.195,6.693,2.405,13.462,3.62,20.308c2.504,14.396,5.254,30.796,7.866,46.612
		c0.175,0.298,0.32,0.604,0.469,0.912c0.001,0.004,0.001,0.008,0.002,0.012c0.285,0.581,0.569,1.159,0.751,1.783
		c0.535,1.843,3.376,11.665,7.046,26.947c6.125,25.553,14.578,66.374,18.494,110.712c0.889,8.672,1.701,16.961,2.469,24.797
		c3.247,32.807,6.036,61.14,9.801,70.469c1.058,2.621,2.124,5.129,3.19,7.603c2.374,5.5,4.774,10.629,7.184,15.438
		c2.798,5.578,5.612,10.736,8.427,15.451c35.448,59.348,70.927,53.084,71.324,52.992c0.794-0.198,1.217-0.246,2.037-0.336
		c42.355-4.516,72.912-24.617,94.908-52.656c3.859-4.922,7.461-10.081,10.807-15.451c3.064-4.913,5.914-9.998,8.573-15.223
		c0.039-0.068,0.073-0.143,0.112-0.216c47.574-93.548,33.271-231.561,33.048-233.594c-0.005-0.035,0.005-0.076,0-0.11
		c-0.108-1.088-0.013-2.135,0.186-3.165c-0.372-2.604-0.733-5.213-1.132-7.803c-0.159-0.633-0.345-1.25-0.427-1.919
		c-0.155-1.291-0.323-2.666-0.483-3.983c-8.22-51.467-21.375-100.577-40.055-142.008c-17.813-39.5-49.008-89.145-96.445-101.311
		c-56.145-14.402-100.131-5.765-130.999,7.391c0.001,0.014,0.001,0.015,0,0.002l-0.009,0.004
		c-23.986,10.221-40.024,23.145-47.623,30.155c-0.011,0.009-0.02,0.018-0.028,0.022C992.854,729.763,992.866,729.833,992.886,729.94
		z"/>
</g>
<g>
	<path fill="#004075" d="M1746.841,1186.077h-130.075h-4.219c-5.08-23.675-10.836-46.331-16.866-67.473
		c-0.897-4.521-3.458-17.527-7.387-37.257c-33.898-170.253-169.319-842.792-207.124-912.9
		c-26.408-48.982-65.172-68.802-103.646-53.006c-67.917,27.85-111.701,159.113-63.997,322.597
		c26.128,89.555,49.901,208.771,67.831,315.7c-27.742-49.708-62.085-80.154-102.42-90.498
		c-106.918-27.427-176.477,18.846-202.267,40.955c-19.956-15.067-66.555-35.703-158.966-11.076
		c-71.824,19.151-105.49,61.683-121.245,99.361c-0.123-0.443-0.265-0.946-0.384-1.371c-1.489-5.332-2.758-9.852-4.125-13.539
		c-0.043-0.181-0.071-0.336-0.097-0.462l-0.075,0.009c-1.427-3.739-3.005-6.519-5.058-8.425
		c-36.657-126.885-104.652-356.791-146.826-466.168c-39.087-101.364-122.288-127.88-183.045-109.591
		c-61.625,18.532-112.902,86.868-88.544,197.767c15.746,71.686,33.307,153.47,51.905,240.066
		c25.057,116.684,50.97,237.344,74.052,340.694c14.672,65.718,29.535,143.479,42.318,214.616H304.176
		c-60.68,0-110.055,49.366-110.055,110.058v310.476c0,60.678,49.375,110.049,110.055,110.049h67.341h49.075h87.534
		c53.757,87.815,138.808,153.755,240.15,184.597c44.415,13.518,93.613,19.838,145.393,19.838
		c187.023-0.014,407.513-82.333,556.476-204.435h2.361l238.67,200.881v-200.881h55.665c60.69,0,110.062-49.371,110.062-110.049
		v-310.476C1856.902,1235.443,1807.531,1186.077,1746.841,1186.077z M1254.526,474.628c-4.036-15.619-8.146-30.662-12.317-44.954
		c-29.114-99.787-20.816-182.467,1.576-233.597c0.709-1.615,1.434-3.184,2.168-4.736c11.859-25.044,27.172-41.807,42.898-48.257
		c31.801-13.04,55.027,19.16,66.027,39.545c32.231,59.767,152.508,642.551,211.609,942.36c0.086,0.41,0.182,0.815,0.293,1.221
		c5.389,18.845,10.572,38.92,15.219,59.866h-141.698h-19.747h-68.611c-1.728-13.202-3.688-28.122-5.838-44.389
		c3.057-38.173,3.398-78.546,1.105-118.968c-1.648-29.046-4.676-58.083-9.039-86.338c-0.014-0.151,0.008-0.287-0.01-0.434
		C1325.138,826.725,1293.217,624.239,1254.526,474.628z M992.849,729.75l0.032-0.013c7.598-7.011,23.636-19.932,47.623-30.153
		l0.009-0.011v0.004c30.868-13.155,74.854-21.793,130.999-7.396c47.438,12.17,78.633,61.813,96.445,101.311
		c18.68,41.432,31.835,90.548,40.055,142.008c0.155,1.317,0.328,2.696,0.483,3.987c0.082,0.665,0.268,1.282,0.423,1.915
		c0.402,2.59,0.764,5.2,1.136,7.803c-0.198,1.03-0.294,2.083-0.186,3.165c0.005,0.041-0.005,0.076,0,0.11
		c0.224,2.035,14.522,140.048-33.048,233.596c-0.039,0.073-0.073,0.147-0.112,0.216c-2.659,5.225-5.509,10.31-8.573,15.223
		c-3.346,5.37-6.947,10.529-10.807,15.451c-21.996,28.039-52.553,48.141-94.908,52.656c-0.82,0.095-1.243,0.138-2.037,0.336
		c-0.397,0.092-35.876,6.355-71.324-52.992c-2.814-4.711-5.629-9.869-8.427-15.451c-2.409-4.81-4.81-9.938-7.184-15.438
		c-1.066-2.474-2.133-4.981-3.19-7.603c-3.765-9.329-6.554-37.662-9.801-70.469c-0.768-7.836-1.58-16.125-2.469-24.797
		c-3.916-44.338-12.369-85.159-18.494-110.709c-3.67-15.283-6.506-25.111-7.046-26.95c-0.182-0.628-0.466-1.207-0.747-1.781
		c-0.15-0.315-0.298-0.628-0.475-0.924c-2.612-15.818-5.362-32.219-7.866-46.612c-1.257-7.056-2.499-14.035-3.729-20.923
		c-13.068-70.866-26.048-141.57-26.745-145.374c-0.013-0.056-0.021-0.114-0.037-0.177h0.004L992.849,729.75z M1310.961,1182.912
		c-0.152,1.063-0.316,2.111-0.476,3.165h-0.907C1310.054,1185.028,1310.502,1183.971,1310.961,1182.912z M733.926,779.294
		c10.929-15.468,25.065-28.098,42.9-37.002c0,0-0.013,0.037-0.013,0.041c13.292-8.157,29.268-15.194,48.583-20.34
		c94.75-25.255,130.063,2.223,137.363,9.42c4.208,22.272,45.527,243.407,45.527,243.407c1.092,5.075,2.18,10.132,3.242,15.026
		c5.858,26.986,11.013,50.839,14.1,72.998c0.557,3.998,1.066,7.957,1.477,11.852c0.38,3.565,0.742,7.084,1.097,10.529
		c0.626,6.834,1.118,13.75,1.498,20.679c0.432,7.913,0.678,15.84,0.712,23.735c0.053,12.611-0.439,25.109-1.68,37.188
		c-0.673,6.566-1.602,12.981-2.732,19.25c-0.949,5.276-2.055,10.438-3.358,15.438c-1.399,5.344-3.04,10.49-4.888,15.451
		c-5.09,13.697-11.893,25.855-20.938,35.621c-14.739,15.912-34.265,23.898-59.471,24.43c-1.602,0.031-3.145,0.135-4.783,0.108
		c-13.607-0.203-26.177-2.188-37.842-5.698c-30.11-9.058-54.09-28.402-73.545-54.461c-3.674-4.922-7.192-10.076-10.551-15.451
		c-3.112-4.969-6.093-10.124-8.952-15.438c-28.94-53.735-45.667-124.204-59.168-191.474c-2.746-13.688-5.357-27.241-7.917-40.499
		c-7.143-37.084-13.925-72.15-22.002-102.716c-0.406-1.543-0.803-3.13-1.22-4.652c-0.131-0.494-0.257-0.941-0.389-1.435
		c-0.637-2.325-1.252-4.589-1.848-6.782C714.033,816.19,722.078,796.062,733.926,779.294z M423.419,964.949
		c-23.058-103.229-48.95-223.823-73.994-340.457c-18.603-86.619-36.171-168.44-51.936-240.202
		c-21.648-98.528,23.082-149.252,67.956-162.75c8.505-2.556,17.591-3.924,26.959-4.023c43.469-0.462,93.082,26.967,119.61,95.759
		C569.863,463.29,677.257,843.982,683.07,864.642c1.667,11.49,21.93,90.358,36.541,167.775c0.131,0.695,0.527,1.3,0.846,1.908
		c11.697,53.334,26.36,106.759,48.438,151.752H601.051H466.938C453.875,1113.165,438.553,1032.724,423.419,964.949z
		 M1376.373,1734.406c-50.424,34.399-107.621,65.207-169.227,90.501c-164.268,67.425-328.348,84.849-450.171,47.77
		c-108.909-33.147-174.751-98.742-213.381-156.018h273.893h583.861C1393.224,1722.673,1384.9,1728.592,1376.373,1734.406z
		 M1826.009,1606.61c0,43.651-35.513,79.173-79.168,79.173h-86.55v165.372l-196.517-165.372h-66.829h-6.959h-38.082H771.697H524.73
		h-18.583h-15.155h-81.933h-47.86h-57.022c-43.651,0-79.172-35.521-79.172-79.173v-310.476c0-43.655,35.521-79.168,79.172-79.168
		H442.08h10.627h0.041h19.678H591.68h0.512h10.314h183.673c28.376,44.289,66.957,75.969,121.571,83.852
		c7.777,1.123,15.859,1.791,24.297,1.917c0.84,0.013,1.675,0.017,2.506,0.017c35.805,0,64.619-11.518,85.678-34.252
		c7.002-7.563,12.856-16.229,17.782-25.678c4.205-8.073,7.736-16.725,10.616-25.855h5.336h1.977
		c3.73,7.032,7.529,13.408,11.367,19.263c42.684,65.15,89.939,60.479,99.559,58.73c59.879-6.609,99.652-37.369,125.939-77.993
		h12.179h18.206h12.688h20.092h110.536h12.542h69.929h6.161h0.004h2.512h30.64h30.345h3.635h124.567
		c43.655,0,79.168,35.513,79.168,79.168V1606.61z"/>
	<path fill="#004075" d="M639.072,1474.601c-0.145-0.009-0.279-0.025-0.425-0.034c-29.137-1.921-42.567-10.318-42.567-25.195
		c0-11.669,9.723-19.384,27.667-21.948c4.328-0.617,9.124-0.945,14.393-0.945c21.961,0,40.648,5.138,57.006,20.554l31.768-37.377
		c-26.63-23.365-53.731-30.371-89.71-30.371c-7.676,0-15.792,0.63-23.921,1.973c-36.422,6.009-73.265,26.442-73.265,69.984
		c0,52.333,51.86,68.221,95.314,71.484c10.102,0.578,18.32,1.605,24.871,3.211c14.661,3.597,20.925,10.111,20.925,21.094
		c0,4.408-1.412,8.419-3.834,11.95c-6.825,9.93-21.896,15.956-37.757,15.615c-25.698-0.466-63.076-14.014-79.432-32.245
		l-28.033,40.654c33.637,35.043,70.087,41.121,106.536,41.121c29.106,0,51.806-6.855,68.107-17.998
		c20.591-14.078,30.954-35.003,30.954-57.698C737.669,1487.216,682.528,1477.402,639.072,1474.601z"/>
	<path fill="#004075" d="M958.364,1405.578c-3.918-3.021-8.073-5.785-12.436-8.302c-2.057-1.187-4.158-2.318-6.31-3.38
		c-16.396-8.13-35.502-12.744-56.842-12.744c-73.368,0-119.162,54.197-119.162,120.09c0,66.346,44.857,120.077,119.626,120.077
		c74.764,0,120.083-53.731,120.083-120.077c0-8.63-0.824-17.049-2.4-25.182C995.418,1447.559,980.56,1422.7,958.364,1405.578z
		 M945.004,1513.075c-0.624,4.438-1.589,8.781-2.918,12.956c-7.741,24.258-27.414,42.96-58.845,42.96
		c-41.587,0-62.612-32.72-62.612-67.749c0-34.576,21.489-68.229,62.612-68.229c38.319,0,62.616,33.652,62.616,68.229
		C945.857,1505.235,945.548,1509.189,945.004,1513.075z"/>
	<path fill="#004075" d="M1151.701,1568.521c-35.514,0-65.414-23.364-65.414-67.278c0-11.117,2.211-21.254,6.122-30.173
		c10.24-23.334,32.513-38.056,60.232-38.056c15.879,0,32.707,6.07,46.263,18.227l35.967-37.852
		c-10.207-10.021-20.425-17.48-31.127-22.852c-15.754-7.904-32.564-11.254-52.043-11.254c-10.932,0-21.557,1.096-31.693,3.255
		c-39.169,8.336-70.935,32.84-84.119,73.84c-4.256,13.241-6.605,28.17-6.605,44.864c0,81.762,55.605,121.951,122.418,121.951
		c34.122,0,62.148-10.284,88.786-36.45l-38.319-37.382C1188.154,1563.379,1169.928,1568.521,1151.701,1568.521z"/>
	<path fill="#004075" d="M1316.693,1295.189c-8.182-6.666-19.51-8.928-29.854-6.796c-13.922,2.866-26.01,13.677-26.01,32.487
		c0,1.648,0.12,3.216,0.297,4.744c0.453,3.877,1.459,7.352,2.91,10.438c3.121,6.645,8.28,11.454,14.372,14.437
		c19.937,9.766,49.708-0.091,49.708-29.619c0-0.135-0.018-0.26-0.018-0.394C1327.991,1309.082,1323.411,1300.658,1316.693,1295.189z
		"/>
	<polygon fill="#004075" points="1265.967,1421.789 1265.967,1616.182 1322.975,1616.182 1322.975,1440.215 1322.975,1384.887 
		1265.967,1384.887 	"/>
	<path fill="#004075" d="M1560.361,1385.823l-1.873,31.77c-13.081-22.894-42.52-37.378-73.357-37.378
		c-11.963-0.082-23.45,1.196-34.282,3.743c-31.593,7.442-57.448,25.993-72.247,55.062c-8.664,17.021-13.557,37.628-13.557,61.752
		c0,80.826,50.468,122.883,118.688,122.422c8.971-0.164,19.194-1.904,29.262-5.203c18.762-6.147,36.98-17.813,45.494-35.443
		l1.174,14.044l0.77,9.247l0.858,10.344h53.744v-118.834v-21.426v-90.099h-10.206H1560.361z M1490.277,1570.855
		c-37.857,0-68.232-26.166-68.232-70.084c0-43.927,30.375-69.623,68.232-69.623
		C1579.988,1431.148,1579.988,1570.855,1490.277,1570.855z"/>
	<rect x="1663.421" y="1289.568" fill="#004075" width="56.524" height="326.613"/>
	<path fill="#004075" d="M542.551,1358.409l7.397-11.358l-43.734,0.009h-4.023h-3.307l-13.744,0.004
		c-0.958-4.416-2.547-8.509-4.298-12.304c-0.268-0.583-0.533-1.17-0.808-1.735c-0.906-1.853-1.826-3.644-2.737-5.31
		c-1.109-2.025-2.291-3.99-3.523-5.945l4.037-0.004h0.418l13.567-0.005c0.978,0,1.955,0.005,2.927,0.005
		c8.129,0.004,16.256,0.013,24.438,0.051c0.487,0,0.911-0.09,1.357-0.146c2.062-0.254,3.75-1.079,5.125-2.572
		c0.425-0.463,0.844-0.945,1.215-1.537c0.649-1.027,1.325-2.042,1.986-3.065c2.692-4.214,5.405-8.409,8.146-12.602l3.341-5.12
		c1.645-2.525,3.303-5.043,5.183-7.896l4.514-6.852h-0.889l-8.677-0.004l-52.365,0.182l-17.811,0.061h-0.257l-12.224,0.043
		l-81.279,0.28c-12.949,0.048-25.896,0.091-38.846,0.091h-2.484c-3.333,0-5.8,1.343-7.542,4.102
		c-1.928,3.064-3.957,6.07-5.981,9.074l-17.426,26.214h8.23c3.231,0,6.389-0.017,9.498-0.038c6.573-0.044,12.917-0.078,19.261,0.068
		c2.599,0.064,5.202,0.082,7.805,0.082l8.289-0.018c8.378,0,17.299,0.139,26.141,1.801c16.207,3.052,27.917,8.591,36.866,17.437
		c1.979,1.952,3.583,3.804,4.883,5.651l-32.879,0.004c-19.246,0-38.479-0.008-57.772-0.047c-3.354,0-5.871,1.377-7.678,4.209
		c-1.981,3.096-4.045,6.131-6.111,9.17l-17.748,26.33h48.38c26.807,0,53.619-0.004,80.444-0.057
		c-0.751,6.329-2.293,11.756-4.697,16.544c-6.137,12.196-16.371,20.571-32.21,26.369c-15.076,5.517-31.75,8.198-50.994,8.198
		c-5.99,0-12.219-0.25-19.037-0.765c-0.414-0.03-0.781-0.047-1.109-0.047c-1.869,0-3.372,0.574-4.464,1.705
		c-1.712,1.771-1.632,4.058-1.6,5.034c0.292,8.543,0.453,17.096,0.601,25.647c0.043,2.698,1.252,4.469,2.303,5.721
		c9.479,11.216,18.939,22.444,28.398,33.674l9.195,10.909l21.441,25.424c3.838,4.55,7.665,9.109,11.507,13.655
		c16.451,19.505,32.903,39.005,49.321,58.54c1.915,2.275,4.214,3.333,7.238,3.333h0.282c7.1-0.143,14.199-0.246,21.299-0.362
		c5.347-0.087,10.691-0.19,16.036-0.272c0.967-0.017,1.934-0.034,2.903-0.048c1.848-0.029,5.286-0.082,7.369-2.736
		c2.074-2.638,1.3-6.031,0.933-7.642c-0.473-2.149-1.75-3.522-2.59-4.434c-0.164-0.177-0.33-0.35-0.481-0.54l-16.459-20.502
		l-21.437-26.706l-44.188-55.052l-27.79-34.628c4.274-0.437,8.408-0.898,12.587-1.598c20.627-3.444,37.531-9.83,51.683-19.518
		c5.463-3.747,10.365-7.853,14.743-12.296c7.74-7.848,13.689-16.811,17.97-26.757c2.351-5.479,4.177-11.264,5.468-17.355
		c0.214-0.993,0.497-1.951,0.683-2.961c1.528-0.009,3.063-0.048,4.598-0.061c3.557-0.035,7.117-0.087,10.674-0.143
		c2.648-0.048,5.297-0.061,7.946-0.108l10.065-0.164c1.135-0.004,4.151-0.021,6.074-3.025c4.863-7.529,9.757-15.041,14.778-22.748
		L542.551,1358.409z M483.708,1349.037l-0.076,2.228l-0.009,0.216l-0.032-0.41l-0.296-4.011c0.005,0,0.009,0.004,0.018,0.004
		c0.151,0.013,0.307,0.052,0.46,0.108L483.708,1349.037z"/>
</g>
</svg>
