<?xml version="1.0" encoding="utf-8"?>
<!-- Generator: Adobe Illustrator 16.0.0, SVG Export Plug-In . SVG Version: 6.00 Build 0)  -->
<!DOCTYPE svg PUBLIC "-//W3C//DTD SVG 1.1//EN" "http://www.w3.org/Graphics/SVG/1.1/DTD/svg11.dtd">
<svg version="1.1" id="Layer_1" xmlns="http://www.w3.org/2000/svg" xmlns:xlink="http://www.w3.org/1999/xlink" x="0px" y="0px"
	 width="1625.43px" height="388.405px" viewBox="187.284 803.774 1625.43 388.405"
	 enable-background="new 187.284 803.774 1625.43 388.405" xml:space="preserve">
<g>
	<path fill="#004075" d="M572.778,1024.695c-0.166-0.012-0.319-0.029-0.488-0.039c-33.424-2.205-48.832-11.836-48.832-28.902
		c0-13.387,11.153-22.238,31.738-25.179c4.965-0.708,10.467-1.084,16.512-1.084c25.193,0,46.629,5.893,65.396,23.579l36.442-42.879
		c-30.549-26.803-61.639-34.841-102.913-34.841c-8.806,0-18.116,0.724-27.44,2.265c-41.781,6.893-84.046,30.334-84.046,80.283
		c0,60.033,59.49,78.259,109.341,82.002c11.588,0.664,21.015,1.844,28.53,3.685c16.819,4.127,24.005,11.6,24.005,24.199
		c0,5.057-1.62,9.656-4.397,13.707c-7.83,11.392-25.119,18.306-43.314,17.913c-29.479-0.534-72.357-16.074-91.119-36.988
		l-32.159,46.638c38.587,40.198,80.399,47.171,122.214,47.171c33.389,0,59.43-7.864,78.13-20.646
		c23.621-16.148,35.509-40.154,35.509-66.188C685.885,1039.166,622.63,1027.909,572.778,1024.695"/>
	<path fill="#004075" d="M939.057,945.516c-4.494-3.467-9.261-6.636-14.266-9.522c-2.359-1.362-4.77-2.66-7.238-3.878
		c-18.81-9.325-40.727-14.62-65.207-14.62c-84.164,0-136.697,62.173-136.697,137.763c0,76.11,51.458,137.748,137.229,137.748
		c85.767,0,137.756-61.638,137.756-137.748c0-9.898-0.946-19.558-2.754-28.888C981.564,993.673,964.521,965.157,939.057,945.516
		 M852.879,1132.977c-47.707,0-71.825-37.535-71.825-77.72c0-39.665,24.65-78.268,71.825-78.268
		c43.958,0,71.831,38.603,71.831,78.268c0,4.581-0.354,9.117-0.978,13.575c-0.716,5.09-1.823,10.073-3.349,14.861
		C911.504,1111.521,888.936,1132.977,852.879,1132.977"/>
	<path fill="#004075" d="M1160.846,1132.438c-40.738,0-75.039-26.804-75.039-77.181c0-12.752,2.536-24.381,7.022-34.613
		c11.747-26.768,37.296-43.653,69.097-43.653c18.215,0,37.521,6.962,53.07,20.909l41.259-43.425
		c-11.707-11.494-23.429-20.051-35.707-26.213c-18.071-9.066-37.356-12.911-59.702-12.911c-12.539,0-24.728,1.259-36.354,3.735
		c-44.936,9.563-81.374,37.672-96.499,84.706c-4.885,15.188-7.577,32.313-7.577,51.466c0,93.796,63.787,139.897,140.432,139.897
		c39.146,0,71.295-11.798,101.854-41.813l-43.959-42.884C1202.665,1126.537,1181.756,1132.438,1160.846,1132.438"/>
	<path fill="#004075" d="M1350.119,818.881c-9.385-7.646-22.381-10.242-34.246-7.795c-15.972,3.288-29.838,15.689-29.838,37.268
		c0,1.892,0.138,3.689,0.341,5.442c0.521,4.447,1.673,8.435,3.339,11.976c3.58,7.621,9.498,13.139,16.486,16.561
		c22.869,11.203,57.021-0.104,57.021-33.979c0-0.152-0.02-0.297-0.02-0.449C1363.08,834.818,1357.825,825.156,1350.119,818.881"/>
	<polygon fill="#004075" points="1291.928,964.112 1291.928,1187.112 1357.325,1187.112 1357.325,985.25 1357.325,921.778 
		1291.928,921.778 	"/>
	<path fill="#004075" d="M1629.646,922.854l-2.149,36.444c-15.005-26.262-48.775-42.877-84.152-42.877
		c-13.723-0.096-26.901,1.371-39.327,4.293c-36.24,8.537-65.901,29.818-82.879,63.163c-9.938,19.527-15.551,43.166-15.551,70.84
		c0,92.721,57.895,140.967,136.152,140.438c10.291-0.188,22.019-2.186,33.567-5.968c21.524-7.055,42.423-20.436,52.188-40.659
		l1.347,16.108l0.884,10.608l0.984,11.867h61.652v-136.321v-24.58V922.854h-11.709H1629.646z M1549.247,1135.115
		c-43.427,0-78.272-30.019-78.272-80.398c0-50.392,34.846-79.868,78.272-79.868C1652.16,974.849,1652.16,1135.115,1549.247,1135.115
		"/>
	<rect x="1747.871" y="812.433" fill="#004075" width="64.843" height="374.681"/>
	<path fill="#004075" d="M462.053,891.405l8.487-13.03l-50.171,0.01h-4.616h-3.793l-15.767,0.005
		c-1.1-5.066-2.922-9.762-4.931-14.114c-0.307-0.668-0.611-1.343-0.926-1.991c-1.04-2.125-2.095-4.181-3.14-6.091
		c-1.272-2.323-2.627-4.576-4.041-6.82l4.63-0.005h0.479l15.563-0.005c1.122,0,2.243,0.005,3.358,0.005
		c9.324,0.005,18.647,0.015,28.032,0.059c0.561,0,1.045-0.104,1.558-0.168c2.365-0.292,4.302-1.237,5.879-2.952
		c0.486-0.529,0.968-1.085,1.394-1.764c0.746-1.178,1.521-2.342,2.278-3.516c3.088-4.834,6.201-9.648,9.345-14.457l3.833-5.874
		c1.887-2.896,3.788-5.784,5.945-9.059l5.178-7.858h-1.021l-9.954-0.005l-60.071,0.208l-20.431,0.068h-0.295l-14.023,0.049
		l-93.24,0.322c-14.854,0.055-29.708,0.104-44.562,0.104h-2.851c-3.823,0-6.653,1.541-8.652,4.705
		c-2.211,3.517-4.539,6.964-6.861,10.41l-19.991,30.071h9.441c3.708,0,7.33-0.02,10.896-0.044c7.541-0.05,14.818-0.09,22.096,0.079
		c2.981,0.074,5.968,0.094,8.954,0.094l9.509-0.02c9.61,0,19.845,0.158,29.987,2.064c18.592,3.501,32.025,9.855,42.292,20.003
		c2.271,2.239,4.11,4.363,5.602,6.483l-37.718,0.005c-22.078,0-44.141-0.01-66.273-0.055c-3.848,0-6.735,1.58-8.808,4.829
		c-2.273,3.551-4.641,7.031-7.01,10.52l-20.36,30.205h55.5c30.752,0,61.51-0.005,92.282-0.065
		c-0.862,7.261-2.631,13.486-5.39,18.979c-7.04,13.991-18.779,23.599-36.95,30.25c-17.294,6.33-36.423,9.404-58.499,9.404
		c-6.871,0-14.018-0.286-21.838-0.876c-0.475-0.034-0.896-0.056-1.272-0.056c-2.145,0-3.868,0.659-5.121,1.957
		c-1.963,2.03-1.872,4.655-1.835,5.774c0.335,9.801,0.52,19.611,0.688,29.422c0.05,3.097,1.437,5.125,2.643,6.563
		c10.873,12.866,21.726,25.746,32.577,38.63l10.549,12.514l24.596,29.166c4.403,5.221,8.793,10.449,13.201,15.664
		c18.872,22.376,37.745,44.746,56.579,67.156c2.196,2.609,4.833,3.821,8.303,3.821h0.324c8.146-0.162,16.289-0.28,24.433-0.416
		c6.135-0.099,12.266-0.217,18.396-0.312c1.109-0.02,2.218-0.04,3.33-0.054c2.12-0.035,6.063-0.095,8.454-3.142
		c2.38-3.024,1.491-6.919,1.069-8.766c-0.542-2.466-2.009-4.042-2.972-5.087c-0.188-0.202-0.379-0.401-0.552-0.618l-18.881-23.52
		l-24.592-30.638l-50.69-63.151l-31.879-39.725c4.903-0.501,9.645-1.03,14.439-1.833c23.663-3.953,43.054-11.277,59.289-22.39
		c6.268-4.3,11.891-9.01,16.913-14.104c8.879-9.003,15.704-19.285,20.615-30.695c2.696-6.285,4.791-12.921,6.272-19.908
		c0.244-1.141,0.568-2.239,0.781-3.398c1.753-0.009,3.515-0.054,5.275-0.068c4.08-0.041,8.164-0.099,12.245-0.164
		c3.039-0.056,6.077-0.069,9.114-0.123l11.548-0.188c1.303-0.005,4.762-0.025,6.968-3.472c5.579-8.638,11.193-17.254,16.952-26.095
		L462.053,891.405z M394.079,878.385c0.005,0,0.01,0.005,0.02,0.005c0.173,0.015,0.353,0.061,0.527,0.124l-0.074,2.14l-0.087,2.556
		l-0.01,0.248l-0.038-0.47L394.079,878.385z"/>
</g>
</svg>
