<?xml version="1.0" encoding="utf-8"?>
<!-- Generator: Adobe Illustrator 16.0.0, SVG Export Plug-In . SVG Version: 6.00 Build 0)  -->
<!DOCTYPE svg PUBLIC "-//W3C//DTD SVG 1.1//EN" "http://www.w3.org/Graphics/SVG/1.1/DTD/svg11.dtd">
<svg version="1.1" id="Layer_1" xmlns="http://www.w3.org/2000/svg" xmlns:xlink="http://www.w3.org/1999/xlink" x="0px" y="0px"
	 width="835.286px" height="1100.66px" viewBox="0 0 835.286 1100.66" enable-background="new 0 0 835.286 1100.66"
	 xml:space="preserve">
<path fill="#004075" d="M746.733,595.941c-3.977-86.193-19.26-182.364-23.903-210.091
	c-12.103-72.149-61.437-118.769-125.685-118.769c-13.153,0-26.911,1.92-40.965,5.71c-24.616-28.023-62.303-43.987-104.31-43.987
	c-35.225,0-70.863,11.249-98.628,30.999c-24.511-12.438-51.282-18.74-79.657-18.74c-38.984,0-79.172,12.586-108.495,33.828
	c-8.459-2.763-17.584-4.211-26.654-4.211c-26.804,0-51.704,12.421-70.113,34.976c-22.077,27.055-35.184,68.172-38.954,122.209
	c-10.795,154.781,3.904,245.078,47.663,292.782c23.727,25.851,47.761,38.958,71.435,38.958c7.933,0,15.597-1.481,22.888-4.416
	c5.642,25.411,18.828,46.418,38.426,61.076c18.795,14.058,43.104,21.799,68.448,21.799c27.679,0,54.689-8.687,75.5-24.066
	c19.855,25.795,59.1,42.047,103.119,42.047c18.941,0,37.677-3.202,54.646-9.303c7.434,12.375,22.751,25.113,54.295,25.113h0.008
	c22.961,0,52.91-6.874,89.048-20.435c6.175,1.117,12.605,1.683,19.15,1.683c35.37,0,74.15-17.03,101.205-44.444
	c22.347-22.642,34.459-49.826,34.106-76.545C808.352,658.114,770.982,615.708,746.733,595.941z M522.315,807.563
	c-4.137,2.696-8.625,5.138-13.342,7.257c-15.31,6.878-33.822,10.665-52.127,10.665c-36.589,0-69.904-14.079-81.764-34.39
	c-24.017-172.956-36.704-388.952-25.129-428.782c2.388-8.418-2.52-17.265-10.939-19.721l-0.128-0.037
	c-1.341-0.366-2.729-0.553-4.126-0.553c-7.137,0-13.491,4.729-15.45,11.492c-12.763,43.942-1.968,248.432,22.636,430.656
	c-15.918,14.682-39.423,23.352-63.719,23.352c-37.33,0-77.798-20.744-79.427-78.965c-0.102-3.634-1.518-7.09-3.911-9.757
	c-9.599-45.885-36.279-194.787-16.284-349.187c1.068-8.67-5.117-16.658-13.787-17.807l-0.099-0.013
	c-0.638-0.076-1.285-0.114-1.924-0.114c-8.043,0-14.849,5.989-15.825,13.887c-20.341,157.023,6.192,308.833,16.691,359.499
	c-4.818,2.658-9.911,4.001-15.195,4.001c-14.767,0-31.226-9.778-48.918-29.062c-37.616-41.01-49.858-124.278-39.694-269.992
	c8.108-116.209,57.656-128.755,78.583-128.755c10.124,0,17.92,2.65,22.673,4.872c2.041,0.956,4.217,1.44,6.47,1.44
	c3.546,0,7.006-1.246,9.739-3.506c24.198-20,61.085-32.424,96.267-32.424c26.475,0,51.155,6.573,73.356,19.537
	c2.334,1.362,4.996,2.083,7.698,2.083c3.537,0,6.987-1.238,9.711-3.482c23.474-19.314,55.374-30.393,87.521-30.393
	c36.534,0,68.044,14.573,86.459,39.994c2.87,3.947,7.493,6.304,12.365,6.304c1.634,0,3.249-0.262,4.799-0.774
	c14.553-4.811,28.566-7.25,41.651-7.25c49.284,0,85.896,35.736,95.545,93.262c11.628,69.423,20.031,142.064,23.053,199.301
	c0.319,6.018,0.581,11.938,0.78,17.602c1.217,34.491,0.246,62.062-2.882,81.941c-4.468,28.355-28.44,46.272-47.765,56.309
	c-26.351,13.686-54.281,18.542-70.192,18.542c-6.513,0-10.814-0.656-13.527-1.34c-1.66-7.916-3.308-16-4.906-24.081
	c-1.17-5.92-2.319-11.857-3.415-17.65c-37.198-196.646-40.279-362.189-40.293-363.753l-0.002-0.135
	c-0.174-8.436-6.692-15.011-15.498-15.634l-0.34-0.024l-0.341,0.005c-4.25,0.062-8.227,1.772-11.196,4.818
	c-2.979,3.054-4.585,7.076-4.523,11.276c0.014,1.667,3.178,175.862,43.093,381.021c1.173,6.027,2.371,12.05,3.562,17.903
	c1.115,5.48,2.255,10.982,3.427,16.516c0.002,0.011,0.005,0.021,0.007,0.032C545.539,787.434,535.654,798.866,522.315,807.563z
	 M753.455,787.186c-21.524,21.811-51.972,35.359-79.462,35.359c-5.901,0-11.619-0.628-16.962-1.86
	c-2.979-0.698-6.143-0.477-8.949,0.612c-34.525,13.271-62.211,20-82.295,20c-12.884,0-21.786-2.765-26.556-8.232
	c15.916-10.376,28.292-23.735,36.912-39.849c5.703,1.288,12.245,1.938,19.541,1.938c21.029,0,54.767-6.046,86.385-23.016
	c35.392-18.994,56.745-45.843,61.752-77.643c2.327-14.774,3.606-32.874,3.821-53.994c15.909,20.08,30.569,49.932,31.114,92.009
	C778.997,750.995,770.011,770.412,753.455,787.186z"/>
<g>
	<path fill="#009ECE" d="M747.642,640.502c-0.215,21.12-1.494,39.22-3.821,53.994c-5.007,31.8-26.36,58.648-61.752,77.643
		c-31.618,16.97-65.355,23.016-86.385,23.016c-7.296,0-13.838-0.65-19.541-1.938c-8.62,16.113-20.996,29.473-36.912,39.849
		c4.77,5.468,13.672,8.232,26.556,8.232c20.084,0,47.77-6.729,82.295-20c2.807-1.089,5.97-1.311,8.949-0.612
		c5.343,1.232,11.061,1.86,16.962,1.86c27.49,0,57.938-13.549,79.462-35.359c16.557-16.773,25.542-36.19,25.302-54.675
		C778.211,690.434,763.551,660.582,747.642,640.502z"/>
	<path fill="#009ECE" d="M551.723,773.518c-1.172-5.533-2.312-11.035-3.427-16.516c-1.19-5.854-2.389-11.876-3.562-17.903
		c-39.915-205.158-43.079-379.354-43.093-381.021c-0.062-4.2,1.545-8.223,4.523-11.276c2.97-3.046,6.946-4.757,11.196-4.818
		l0.341-0.005l0.34,0.024c8.806,0.623,15.324,7.198,15.498,15.634l0.002,0.135c0.014,1.563,3.095,167.107,40.293,363.753
		c1.096,5.793,2.245,11.73,3.415,17.65c1.599,8.081,3.246,16.165,4.906,24.081c2.713,0.684,7.015,1.34,13.527,1.34
		c15.911,0,43.842-4.856,70.192-18.542c19.324-10.036,43.297-27.953,47.765-56.309c3.128-19.88,4.099-47.45,2.882-81.941
		c-0.199-5.663-0.461-11.584-0.78-17.602c-3.021-57.236-11.425-129.878-23.053-199.301c-9.649-57.525-46.261-93.262-95.545-93.262
		c-13.085,0-27.099,2.439-41.651,7.25c-1.55,0.513-3.165,0.774-4.799,0.774c-4.872,0-9.495-2.356-12.365-6.304
		c-18.415-25.421-49.925-39.994-86.459-39.994c-32.146,0-64.046,11.078-87.521,30.393c-2.724,2.244-6.174,3.482-9.711,3.482
		c-2.702,0-5.364-0.721-7.698-2.083c-22.201-12.964-46.881-19.537-73.356-19.537c-35.182,0-72.069,12.424-96.267,32.424
		c-2.733,2.26-6.192,3.506-9.739,3.506c-2.252,0-4.429-0.484-6.47-1.44c-4.753-2.222-12.549-4.872-22.673-4.872
		c-20.926,0-70.475,12.546-78.583,128.755C49.69,575.707,61.932,658.976,99.548,699.985c17.693,19.283,34.152,29.062,48.918,29.062
		c5.284,0,10.377-1.343,15.195-4.001c-10.5-50.666-37.033-202.476-16.691-359.499c0.976-7.897,7.782-13.887,15.825-13.887
		c0.639,0,1.286,0.038,1.924,0.114l0.099,0.013c8.67,1.148,14.855,9.137,13.787,17.807
		c-19.995,154.399,6.686,303.302,16.284,349.187c2.393,2.667,3.809,6.123,3.911,9.757c1.628,58.221,42.097,78.965,79.427,78.965
		c24.295,0,47.8-8.67,63.719-23.352c-24.604-182.225-35.399-386.714-22.636-430.656c1.958-6.764,8.313-11.492,15.45-11.492
		c1.397,0,2.785,0.187,4.126,0.553l0.128,0.037c8.42,2.456,13.327,11.303,10.939,19.721c-11.575,39.83,1.112,255.826,25.129,428.782
		c11.86,20.311,45.175,34.39,81.764,34.39c18.305,0,36.817-3.787,52.127-10.665c4.717-2.119,9.205-4.561,13.342-7.257
		c13.339-8.696,23.224-20.129,29.415-34.013C551.728,773.539,551.725,773.528,551.723,773.518z"/>
</g>
</svg>
