<?xml version="1.0" encoding="utf-8"?>
<!-- Generator: Adobe Illustrator 16.0.0, SVG Export Plug-In . SVG Version: 6.00 Build 0)  -->
<!DOCTYPE svg PUBLIC "-//W3C//DTD SVG 1.1//EN" "http://www.w3.org/Graphics/SVG/1.1/DTD/svg11.dtd">
<svg version="1.1" id="Layer_1" xmlns="http://www.w3.org/2000/svg" xmlns:xlink="http://www.w3.org/1999/xlink" x="0px" y="0px"
	 width="835.286px" height="1026.725px" viewBox="0 36.934 835.286 1026.725" enable-background="new 0 36.934 835.286 1026.725"
	 xml:space="preserve">
<path fill="#004075" d="M811.756,479.743c-16.117-31.523-18.22-40.447-1.848-55.74c20.792-19.412,27.076-44.745,18.68-75.289
	c-6.765-24.603-21.79-48.154-32.761-65.351l-0.114-0.178c-3.353-5.259-9.236-14.485-11.2-18.645
	c1.952-8.004,4.642-24.314,0.652-43.342c-4.289-20.467-15.242-37.859-31.674-50.302c-8.606-6.52-9.926-13.267-12.323-25.516
	c-3.585-18.253-8.485-43.223-45.002-64.811c-39.604-23.421-91.879-38.554-133.181-38.554c-32.13,0-56.747,8.643-73.17,25.684
	c-20.017,20.781-37.966,39.036-50.418,48.351c-16.403-1.269-32.308-1.916-47.67-1.916c-65.125-0.003-120.817,11.385-166.181,34.042
	c-42.695,21.324-62.226,45.812-68.617,55.293L34.769,238.229l-3.52,8.461C-4.024,331.463-1.079,414.506,7.602,469.243
	c9.391,59.205,27.038,98.41,27.784,100.051l5.022,11.031l12.12,0.086c69.584,0.502,115.311,18.045,139.793,53.633
	c21.414,31.125,68.193,61.965,109.466,89.174c10.531,6.942,20.572,13.366,29.45,19.696c43.761,31.201,50.829,65.402,50.769,84.65
	c-0.937,12.237-2.983,24.717-6.154,37.406c-1.396,5.586-2.747,10.97-4.049,16.162c-20.772,82.814-29.372,117.094-14.046,142.965
	c10.464,17.653,29.531,25.519,54.943,31.896c6.827,1.712,14.092,2.58,21.599,2.58c37.036,0,77.696-20.482,108.77-54.789
	c39.534-43.643,57.853-102.4,51.581-165.446c-3.181-32.088-7.012-58.342-10.09-79.436l-0.065-0.452
	c-4.955-33.962-8.534-58.5-2.807-66.162c2.877-3.846,11.487-6.819,25.594-8.831c9.418-1.346,20.08-2.482,31.368-3.686l0.314-0.033
	c32.659-3.471,73.295-7.788,108.257-20.476c42.053-15.26,68.266-39.451,80.142-73.958
	C842.796,540.434,824.855,505.355,811.756,479.743z M497.182,108.431c4.857-4.917,10.392-10.6,16.879-17.337
	c12.227-12.69,33.329-15.353,48.881-15.353c0.006,0,0.013,0,0.019,0c0.008,0,0.016,0,0.023,0c40.604,0,87.522,17.003,116.017,33.855
	c23.514,13.902,25.967,26.423,29.072,42.271c0.916,4.675,1.938,9.878,3.639,15.259c-0.016-0.006-0.032-0.012-0.049-0.018
	c0.002,0.006,0.004,0.013,0.006,0.019c-31.58-11.671-78.65-25.355-125.704-25.355c-1.417,0-2.824,0.013-4.224,0.037
	c-43.378,0.784-77.938,13.58-102.958,38.094c-0.002-0.011-0.005-0.022-0.007-0.035c-0.011,0.013-0.023,0.023-0.035,0.034
	C474.334,161.101,487.805,126.885,497.182,108.431z M491.243,216.106c19.296-27.114,51.118-40.859,94.593-40.858
	c2.161,0,4.327,0.034,6.497,0.101c67.198,2.044,137.111,34.922,137.832,35.267c2.227,1.068,4.633,1.617,7.12,1.622
	c2.709-0.001,5.33-0.675,7.656-1.896c0.004,0.006,0.008,0.013,0.011,0.017c0.011-0.006,0.024-0.009,0.035-0.015
	c13.976,21.314,6.601,46.938,6.249,48.124c-3.053,10.256,1.845,20.202,10.937,34.783c-0.019-0.005-0.036-0.009-0.055-0.013
	c0.004,0.004,0.007,0.008,0.009,0.013c-59.697-14.576-111.931-22.406-155.634-23.336c-2.91-0.063-5.783-0.094-8.617-0.094
	c-43.401,0-78.811,7.222-105.332,21.466c-0.008-0.003-0.02-0.008-0.027-0.01c-0.005,0.002-0.011,0.006-0.017,0.008
	c-2.284-0.69-7.058-3.146-11.257-8.51C475.356,275.239,464.537,253.644,491.243,216.106z M469.721,375.138
	c2.379-20.915,12.523-37.612,30.151-49.63c21.789-14.854,54.856-22.387,98.285-22.387c10.684,0,21.958,0.466,33.808,1.396
	c42.271,3.31,91.846,12.512,147.921,27.48c0.937,0.25,1.898,0.417,2.864,0.5c0.954,0.08,1.913,0.079,2.858-0.006
	c0.001,0.003,0.001,0.004,0.002,0.005c0.013,0,0.027,0,0.041-0.001c16.533,32.128,16.829,52.315,1.25,66.869
	c-15.126,14.12-22.354,29.514-21.861,46.74c-0.015-0.006-0.03-0.013-0.044-0.019c0,0.005,0,0.011,0,0.016
	c-68.998-29.932-129.677-46.021-180.703-47.914c-1.351-0.05-2.689-0.084-4.026-0.113c-0.334-0.008-0.673-0.021-1.005-0.028
	c-1.678-0.032-3.347-0.048-5.005-0.048c-36.726,0-68.005,7.686-93.012,22.846c-0.005-0.006-0.01-0.013-0.013-0.019
	c-0.01,0.006-0.021,0.011-0.03,0.017C475.088,412.21,467.284,396.58,469.721,375.138z M795.473,574.334
	c-19.59,56.944-97.481,65.226-160.07,71.878c-11.104,1.176-22.587,2.391-32.891,3.863c-24.621,3.52-38.925,10.105-47.832,22.025
	c-14.116,18.888-10.359,44.62-3.539,91.336l0.041,0.282c3.03,20.767,6.801,46.61,9.922,77.956
	c5.3,53.456-9.981,102.989-43.029,139.475c-24.41,26.959-56.513,43.707-83.778,43.707c-1.195,0-2.375-0.034-3.536-0.101
	c-3.472-0.196-6.788-0.688-9.899-1.469c-20.386-5.12-30.275-9.865-34.132-16.381c-8.116-13.701,1.125-50.783,16.435-112.216
	c1.693-6.79,3.466-13.912,5.313-21.381c2.902-11.739,4.972-22.798,6.349-33.231h0.006c0.073-0.438,0.143-0.879,0.212-1.321
	c0.705-4.516,1.212-9.325,1.416-14.371c0.018-0.41,0.032-0.82,0.045-1.233c0.006-0.079,0.012-0.159,0.017-0.239l-0.01,0.009
	c0.933-32.684-11.031-74.884-63.695-111.253c-0.947-0.654-1.909-1.313-2.873-1.973c-8.507-5.818-17.639-11.841-27.256-18.181
	c-36.475-24.046-81.867-53.972-99.082-78.993c-15.142-22.01-36.342-39.057-63.011-50.666
	c-25.948-11.295-57.851-17.716-94.976-19.128c-5.488-14.736-14.928-43.563-20.701-80.622
	c-7.441-47.77-10.092-119.196,18.023-192.415l98.474-28.018c9.625-0.347,20.496-5.17,26.442-16.151
	c0.626-1.014,15.513-24.33,56.626-44.345c37.091-18.059,84.091-27.779,138.258-28.858c18.149-0.362,37.096,0.238,56.755,1.832
	c0.014,0.001,0.026,0.002,0.04,0.003c0.714,0.058,1.434,0.124,2.15,0.185c1.445,0.122,2.895,0.25,4.347,0.383
	c0.015,0.001,0.028,0.002,0.042,0.004c-2.643,17.296-1.704,37.575,10.567,53.882c-29.271,49.443-10.958,82.458-1.461,94.6
	c2.685,3.43,5.698,6.568,8.939,9.321c-19.101,19.854-25.44,42.566-27.293,58.867c-3.716,32.682,8.397,56.472,18.482,70.108
	c-22.439,23.285-35.773,55.344-35.971,87.131c-0.003,0.313,0.015,0.622,0.017,0.933l8.983,28.625
	c2.123,3.111,4.611,6.096,7.479,8.941c28.308,28.086,90.128,35.762,125.866,37.817c10.933,0.628,19.418,0.73,23.753,0.73
	c1.416,0,2.336-0.013,2.682-0.019c9.267-0.136,16.718-7.804,16.585-17.095c-0.111-8.727-6.663-15.692-15.222-16.539
	c-0.564-0.055-1.139-0.084-1.72-0.084l-0.117,0.002c-1.047,0.015-2.165,0.023-3.352,0.023c-10.826,0-23.749-0.606-37.203-1.948
	c-34.393-3.426-72.282-11.652-87.572-26.832c-4.467-4.438-6.533-8.996-6.5-14.351c0.154-24.567,11.922-58.076,44.491-78.442
	c20.035-12.533,45.916-18.887,76.927-18.887c10.195,0,20.9,0.687,32.098,2.054c48.492,5.913,106.262,24.613,172.301,55.814
	c0.963,1.91,1.935,3.815,2.909,5.716C794.34,519.749,806.244,543.039,795.473,574.334z"/>
<g>
	<path fill="#009ECE" d="M778.834,489.379c-66.039-31.201-123.809-49.901-172.301-55.814c-11.197-1.367-21.902-2.054-32.098-2.054
		c-31.011,0-56.892,6.354-76.927,18.887c-32.569,20.366-44.337,53.875-44.491,78.442c-0.033,5.354,2.033,9.913,6.5,14.351
		c15.29,15.18,53.18,23.406,87.572,26.832c13.454,1.342,26.377,1.948,37.203,1.948c1.187,0,2.305-0.009,3.352-0.023l0.117-0.002
		c0.581,0,1.155,0.029,1.72,0.084c8.559,0.847,15.11,7.813,15.222,16.539c0.133,9.291-7.318,16.959-16.585,17.095
		c-0.346,0.006-1.266,0.019-2.682,0.019c-4.335,0-12.82-0.103-23.753-0.73c-35.738-2.056-97.559-9.731-125.866-37.817
		c-2.867-2.846-5.355-5.83-7.479-8.941l-8.983-28.625c-0.002-0.311-0.02-0.619-0.017-0.933
		c0.197-31.787,13.531-63.846,35.971-87.131c-10.085-13.637-22.198-37.427-18.482-70.108c1.853-16.301,8.192-39.014,27.293-58.867
		c-3.241-2.753-6.255-5.892-8.939-9.321c-9.497-12.142-27.811-45.156,1.461-94.6c-12.271-16.307-13.21-36.586-10.567-53.882
		c-0.014-0.002-0.027-0.003-0.042-0.004c-1.452-0.133-2.901-0.261-4.347-0.383c-0.717-0.061-1.437-0.127-2.15-0.185
		c-0.014-0.001-0.026-0.002-0.04-0.003c-19.659-1.594-38.606-2.194-56.755-1.832c-54.167,1.079-101.167,10.8-138.258,28.858
		c-41.113,20.015-56,43.331-56.626,44.345c-5.946,10.981-16.817,15.805-26.442,16.151L62.94,269.691
		C34.825,342.91,37.476,414.337,44.917,462.106c5.773,37.06,15.213,65.886,20.701,80.622c37.125,1.412,69.027,7.833,94.976,19.128
		c26.669,11.609,47.869,28.656,63.011,50.666c17.215,25.021,62.607,54.947,99.082,78.993c9.617,6.34,18.749,12.362,27.256,18.181
		c0.964,0.66,1.926,1.318,2.873,1.973c52.664,36.369,64.628,78.569,63.695,111.253l0.01-0.009c-0.005,0.08-0.011,0.16-0.017,0.239
		c-0.013,0.413-0.027,0.823-0.045,1.233c-0.204,5.046-0.711,9.855-1.416,14.371c-0.069,0.442-0.139,0.884-0.212,1.321h-0.006
		c-1.377,10.434-3.446,21.492-6.349,33.231c-1.848,7.469-3.62,14.591-5.313,21.381c-15.31,61.433-24.551,98.515-16.435,112.216
		c3.857,6.516,13.746,11.261,34.132,16.381c3.111,0.781,6.428,1.272,9.899,1.469c1.161,0.066,2.341,0.101,3.536,0.101
		c27.266,0,59.368-16.748,83.778-43.707c33.048-36.485,48.329-86.019,43.029-139.475c-3.121-31.346-6.892-57.189-9.922-77.956
		l-0.041-0.282c-6.82-46.716-10.577-72.448,3.539-91.336c8.907-11.92,23.211-18.506,47.832-22.025
		c10.304-1.473,21.786-2.688,32.891-3.863c62.589-6.652,140.48-14.934,160.07-71.878c10.771-31.295-1.133-54.585-13.729-79.239
		C780.769,493.194,779.797,491.289,778.834,489.379z"/>
	<path fill="#009ECE" d="M478.776,179.867c0.002,0.013,0.005,0.024,0.007,0.035c25.02-24.514,59.58-37.31,102.958-38.094
		c1.399-0.024,2.807-0.037,4.224-0.037c47.054,0,94.124,13.685,125.704,25.355c-0.002-0.006-0.004-0.013-0.006-0.019
		c0.017,0.006,0.033,0.012,0.049,0.018c-1.701-5.381-2.723-10.584-3.639-15.259c-3.105-15.848-5.559-28.368-29.072-42.271
		c-28.494-16.853-75.413-33.855-116.017-33.855c-0.008,0-0.016,0-0.023,0c-0.006,0-0.013,0-0.019,0
		c-15.552,0-36.654,2.662-48.881,15.353c-6.487,6.737-12.021,12.42-16.879,17.337c-9.377,18.454-22.848,52.67-18.441,71.471
		C478.752,179.891,478.765,179.88,478.776,179.867z"/>
	<path fill="#009ECE" d="M492.5,291.284c0.006-0.002,0.012-0.006,0.017-0.008c0.008,0.002,0.02,0.007,0.027,0.01
		c26.521-14.244,61.931-21.466,105.332-21.466c2.834,0,5.707,0.031,8.617,0.094c43.703,0.93,95.937,8.76,155.634,23.336
		c-0.002-0.005-0.005-0.009-0.009-0.013c0.019,0.004,0.036,0.008,0.055,0.013c-9.092-14.581-13.989-24.527-10.937-34.783
		c0.352-1.187,7.727-26.81-6.249-48.124c-0.011,0.006-0.024,0.009-0.035,0.015c-0.003-0.004-0.007-0.011-0.011-0.017
		c-2.326,1.222-4.947,1.896-7.656,1.896c-2.487-0.005-4.894-0.554-7.12-1.622c-0.721-0.345-70.634-33.223-137.832-35.267
		c-2.17-0.066-4.336-0.101-6.497-0.101c-43.475-0.001-75.297,13.744-94.593,40.858c-26.706,37.537-15.887,59.133-10,66.668
		C485.442,288.139,490.215,290.594,492.5,291.284z"/>
	<path fill="#009ECE" d="M481.233,420.825c0.003,0.006,0.008,0.013,0.013,0.019c25.007-15.16,56.286-22.846,93.012-22.846
		c1.658,0,3.327,0.016,5.005,0.048c0.332,0.007,0.671,0.021,1.005,0.028c1.337,0.029,2.676,0.063,4.026,0.113
		c51.026,1.894,111.705,17.982,180.703,47.914c0-0.005,0-0.011,0-0.016c0.014,0.006,0.029,0.013,0.044,0.019
		c-0.493-17.227,6.735-32.62,21.861-46.74c15.579-14.554,15.283-34.741-1.25-66.869c-0.014,0.001-0.028,0.001-0.041,0.001
		c-0.001-0.001-0.001-0.002-0.002-0.005c-0.945,0.085-1.904,0.086-2.858,0.006c-0.966-0.083-1.928-0.25-2.864-0.5
		c-56.075-14.969-105.65-24.171-147.921-27.48c-11.85-0.93-23.124-1.396-33.808-1.396c-43.429,0-76.496,7.532-98.285,22.387
		c-17.628,12.018-27.772,28.715-30.151,49.63c-2.438,21.442,5.367,37.072,11.481,45.704
		C481.212,420.836,481.223,420.831,481.233,420.825z"/>
</g>
</svg>
