<?xml version="1.0" encoding="utf-8"?>
<!-- Generator: Adobe Illustrator 16.0.0, SVG Export Plug-In . SVG Version: 6.00 Build 0)  -->
<!DOCTYPE svg PUBLIC "-//W3C//DTD SVG 1.1//EN" "http://www.w3.org/Graphics/SVG/1.1/DTD/svg11.dtd">
<svg version="1.1" id="Layer_1" xmlns="http://www.w3.org/2000/svg" xmlns:xlink="http://www.w3.org/1999/xlink" x="0px" y="0px"
	 width="835.286px" height="1026.725px" viewBox="0 36.934 835.286 1026.725" enable-background="new 0 36.934 835.286 1026.725"
	 xml:space="preserve">
<path fill="#004075" d="M828.588,348.714c-6.765-24.603-21.79-48.154-32.761-65.351l-0.114-0.178
	c-3.353-5.259-9.236-14.485-11.2-18.645c1.952-8.004,4.642-24.314,0.652-43.342c-4.289-20.467-15.242-37.859-31.674-50.302
	c-8.606-6.52-9.926-13.267-12.323-25.516c-3.585-18.253-8.485-43.223-45.002-64.811c-39.604-23.421-91.879-38.554-133.181-38.554
	c-32.13,0-56.747,8.643-73.17,25.684c-20.017,20.781-37.966,39.036-50.418,48.351c-16.403-1.269-32.308-1.916-47.67-1.916
	c-65.125-0.003-120.817,11.385-166.181,34.042c-42.695,21.324-62.226,45.812-68.617,55.293L34.769,238.229l-3.52,8.461
	C-4.024,331.463-1.079,414.506,7.602,469.243c9.391,59.205,27.038,98.41,27.784,100.051l5.022,11.031l12.12,0.086
	c69.584,0.502,115.311,18.045,139.793,53.633c21.414,31.125,68.193,61.965,109.466,89.174c10.531,6.942,20.572,13.366,29.45,19.696
	c43.761,31.201,50.829,65.402,50.769,84.65c-0.937,12.237-2.983,24.717-6.154,37.406c-1.396,5.586-2.747,10.97-4.049,16.162
	c-20.772,82.814-29.372,117.094-14.046,142.965c10.464,17.653,29.531,25.519,54.943,31.896c6.827,1.712,14.092,2.58,21.599,2.58
	c37.036,0,77.696-20.482,108.77-54.789c39.534-43.643,57.853-102.4,51.581-165.446c-3.181-32.088-7.012-58.342-10.09-79.436
	l-0.065-0.452c-4.955-33.962-8.534-58.5-2.807-66.162c2.877-3.846,11.487-6.819,25.594-8.831c9.418-1.346,20.08-2.482,31.368-3.686
	l0.314-0.033c32.659-3.471,73.295-7.788,108.257-20.476c42.053-15.26,68.266-39.451,80.142-73.958
	c15.434-44.872-2.508-79.95-15.606-105.563c-16.117-31.523-18.22-40.447-1.848-55.74
	C830.701,404.591,836.985,379.258,828.588,348.714z M604.704,588.568c-0.111-8.727-6.663-15.692-15.222-16.539
	c-0.564-0.055-1.139-0.084-1.72-0.084l-0.117,0.002c-1.047,0.015-2.165,0.023-3.352,0.023c-10.826,0-23.749-0.606-37.203-1.948
	c-34.393-3.426-72.282-11.652-87.572-26.832c-4.467-4.438-6.533-8.996-6.5-14.351c0.154-24.567,11.922-58.076,44.491-78.442
	c20.035-12.533,45.916-18.887,76.927-18.887c10.195,0,20.9,0.687,32.098,2.054c48.492,5.913,106.262,24.613,172.301,55.814
	c0.963,1.91,1.935,3.815,2.909,5.716c12.597,24.654,24.5,47.944,13.729,79.239c-19.59,56.944-97.481,65.226-160.07,71.878
	c-11.104,1.176-22.587,2.391-32.891,3.863c-24.621,3.52-38.925,10.105-47.832,22.025c-14.116,18.888-10.359,44.62-3.539,91.336
	l0.041,0.282c3.03,20.767,6.801,46.61,9.922,77.956c5.3,53.456-9.981,102.989-43.029,139.475
	c-24.41,26.959-56.513,43.707-83.778,43.707c-1.195,0-2.375-0.034-3.536-0.101c-3.472-0.196-6.788-0.688-9.899-1.469
	c-20.386-5.12-30.275-9.865-34.132-16.381c-8.116-13.701,1.125-50.783,16.435-112.216c1.693-6.79,3.466-13.912,5.313-21.381
	c2.902-11.739,4.972-22.798,6.349-33.231h0.006c0.073-0.438,0.143-0.879,0.212-1.321c0.705-4.516,1.212-9.325,1.416-14.371
	c0.018-0.41,0.032-0.82,0.045-1.233c0.006-0.079,0.012-0.159,0.017-0.239l-0.01,0.009c0.933-32.684-11.031-74.884-63.695-111.253
	c-0.947-0.654-1.909-1.313-2.873-1.973c-8.507-5.818-17.639-11.841-27.256-18.181c-36.475-24.046-81.867-53.972-99.082-78.993
	c-15.142-22.01-36.342-39.057-63.011-50.666c-25.948-11.295-57.851-17.716-94.976-19.128c-5.488-14.736-14.928-43.563-20.701-80.622
	c-7.441-47.77-10.092-119.196,18.023-192.415l98.474-28.018c9.625-0.347,20.496-5.17,26.442-16.151
	c0.626-1.014,15.513-24.33,56.626-44.345c37.091-18.059,84.091-27.779,138.258-28.858c18.149-0.362,37.096,0.238,56.755,1.832
	c0.014,0.001,0.026,0.002,0.04,0.003c0.714,0.058,1.434,0.124,2.15,0.185c1.445,0.122,2.895,0.25,4.347,0.383
	c0.015,0.001,0.028,0.002,0.042,0.004c-2.643,17.296-1.704,37.575,10.567,53.882c-29.271,49.443-10.958,82.458-1.461,94.6
	c2.685,3.43,5.698,6.568,8.939,9.321c-19.101,19.854-25.44,42.566-27.293,58.867c-3.716,32.682,8.397,56.472,18.482,70.108
	c-22.439,23.285-35.773,55.344-35.971,87.131c-0.003,0.313,0.015,0.622,0.017,0.933l8.983,28.625
	c2.123,3.111,4.611,6.096,7.479,8.941c28.308,28.086,90.128,35.762,125.866,37.817c10.933,0.628,19.418,0.73,23.753,0.73
	c1.416,0,2.336-0.013,2.682-0.019C597.385,605.527,604.836,597.859,604.704,588.568z M711.711,167.126
	c-0.016-0.006-0.032-0.012-0.049-0.018c0.002,0.006,0.004,0.013,0.006,0.019c-31.58-11.671-78.65-25.355-125.704-25.355
	c-1.417,0-2.824,0.013-4.224,0.037c-43.378,0.784-77.938,13.58-102.958,38.094c-0.002-0.011-0.005-0.022-0.007-0.035
	c-0.011,0.013-0.023,0.023-0.035,0.034c-4.406-18.801,9.064-53.017,18.441-71.471c4.857-4.917,10.392-10.6,16.879-17.337
	c12.227-12.69,33.329-15.353,48.881-15.353c0.006,0,0.013,0,0.019,0c0.008,0,0.016,0,0.023,0c40.604,0,87.522,17.003,116.017,33.855
	c23.514,13.902,25.967,26.423,29.072,42.271C708.989,156.542,710.01,161.745,711.711,167.126z M762.172,293.25
	c-0.019-0.005-0.036-0.009-0.055-0.013c0.004,0.004,0.007,0.008,0.009,0.013c-59.697-14.576-111.931-22.406-155.634-23.336
	c-2.91-0.063-5.783-0.094-8.617-0.094c-43.401,0-78.811,7.222-105.332,21.466c-0.008-0.003-0.02-0.008-0.027-0.01
	c-0.005,0.002-0.011,0.006-0.017,0.008c-2.284-0.69-7.058-3.146-11.257-8.51c-5.887-7.535-16.706-29.131,10-66.668
	c19.296-27.114,51.118-40.859,94.593-40.858c2.161,0,4.327,0.034,6.497,0.101c67.198,2.044,137.111,34.922,137.832,35.267
	c2.227,1.068,4.633,1.617,7.12,1.622c2.709-0.001,5.33-0.675,7.656-1.896c0.004,0.006,0.008,0.013,0.011,0.017
	c0.011-0.006,0.024-0.009,0.035-0.015c13.976,21.314,6.601,46.938,6.249,48.124C748.183,268.723,753.081,278.669,762.172,293.25z
	 M786.902,399.364c-15.126,14.12-22.354,29.514-21.861,46.74c-0.015-0.006-0.03-0.013-0.044-0.019c0,0.005,0,0.011,0,0.016
	c-68.998-29.932-129.677-46.021-180.703-47.914c-1.351-0.05-2.689-0.084-4.026-0.113c-0.334-0.008-0.673-0.021-1.005-0.028
	c-1.678-0.032-3.347-0.048-5.005-0.048c-36.726,0-68.005,7.686-93.012,22.846c-0.005-0.006-0.01-0.013-0.013-0.019
	c-0.01,0.006-0.021,0.011-0.03,0.017c-6.114-8.632-13.919-24.262-11.481-45.704c2.379-20.915,12.523-37.612,30.151-49.63
	c21.789-14.854,54.856-22.387,98.285-22.387c10.684,0,21.958,0.466,33.808,1.396c42.271,3.31,91.846,12.512,147.921,27.48
	c0.937,0.25,1.898,0.417,2.864,0.5c0.954,0.08,1.913,0.079,2.858-0.006c0.001,0.003,0.001,0.004,0.002,0.005
	c0.013,0,0.027,0,0.041-0.001C802.185,364.623,802.481,384.811,786.902,399.364z"/>
</svg>
