<?xml version="1.0" encoding="utf-8"?>
<!-- Generator: Adobe Illustrator 16.0.0, SVG Export Plug-In . SVG Version: 6.00 Build 0)  -->
<!DOCTYPE svg PUBLIC "-//W3C//DTD SVG 1.1//EN" "http://www.w3.org/Graphics/SVG/1.1/DTD/svg11.dtd">
<svg version="1.1" id="Layer_1" xmlns="http://www.w3.org/2000/svg" xmlns:xlink="http://www.w3.org/1999/xlink" x="0px" y="0px"
	 width="835.286px" height="1100.66px" viewBox="0 0 835.286 1100.66" enable-background="new 0 0 835.286 1100.66"
	 xml:space="preserve">
<path fill="#004075" d="M690.295,682.458c-17.129-15.999-14.927-25.335,1.934-58.315c13.704-26.796,32.473-63.494,16.327-110.439
	c-12.425-36.101-39.85-61.41-83.844-77.375c-36.577-13.273-79.091-17.791-113.258-21.421l-0.33-0.035
	c-11.81-1.259-22.964-2.448-32.816-3.855c-14.758-2.106-23.767-5.216-26.776-9.24c-5.993-8.016-2.248-33.688,2.935-69.219
	l0.069-0.473c3.22-22.068,7.229-49.534,10.557-83.104c6.56-65.959-12.605-127.431-53.965-173.09
	c-32.508-35.892-75.047-57.32-113.794-57.32c-7.853,0-15.455,0.908-22.597,2.699c-26.585,6.674-46.534,14.901-57.48,33.37
	c-16.035,27.067-7.039,62.93,14.694,149.57c1.362,5.432,2.775,11.064,4.236,16.908c10.508,42.053,9.284,81.909-3.638,118.462
	c-9.132,25.832-21.414,41.607-24.961,45.826c-0.317,0.378-0.5,0.618-0.55,0.687c-70.25,95.678-97.939,184.584-82.299,264.247
	c14.555,74.127,62.975,117.8,82.89,132.991c-26.403,179.147,72.169,211.644,83.596,214.783
	c11.539,3.161,35.898,27.731,64.191,57.104c17.181,17.83,42.935,26.871,76.549,26.871c43.209,0,97.9-15.832,139.332-40.334
	c38.203-22.586,43.333-48.709,47.083-67.806c2.507-12.814,3.888-19.873,12.892-26.693c17.191-13.018,28.65-31.215,33.138-52.625
	c4.173-19.907,1.357-36.971-0.683-45.346c2.054-4.351,8.209-14.004,11.716-19.505l0.119-0.186
	c11.479-17.991,27.199-42.63,34.275-68.369C718.623,729.27,712.047,702.768,690.295,682.458z M628.91,855.642
	c0.37,1.241,8.087,28.047-6.537,50.346c-2.438-1.277-5.184-1.984-8.021-1.984c-2.616,0-5.144,0.577-7.485,1.701
	c-0.778,0.37-78.662,36.996-150.951,36.999c-45.481,0.002-78.777-14.38-98.962-42.747c-27.939-39.271-16.621-61.863-10.463-69.747
	c4.395-5.612,9.389-8.181,11.778-8.903c27.747,14.903,64.792,22.456,110.198,22.456c47.502-0.004,105.25-8.243,171.886-24.511
	C630.843,834.507,625.717,844.912,628.91,855.642z M431.964,1046.809c-16.27,0-38.349-2.787-51.139-16.064
	c-6.789-7.047-12.577-12.992-17.658-18.138c-9.81-19.306-23.905-55.104-19.295-74.771c27.027,26.481,64.699,39.892,112.179,39.892
	c49.226,0,98.471-14.317,131.509-26.526c-1.779,5.631-2.846,11.074-3.805,15.965c-3.249,16.581-5.815,29.679-30.417,44.225
	C523.531,1029.02,474.442,1046.809,431.964,1046.809z M310.271,967.839c-3.306-1.64-6.509-2.868-9.717-3.747
	c-3.891-1.067-24.132-7.677-40.517-33.11c-21.676-33.646-27.166-86.477-15.873-152.786c1.211-7.147-2-14.213-8.153-17.981
	c-0.612-0.381-61.41-39.024-76.656-116.675c-13.586-69.2,11.676-148.32,75.085-235.161l0.424-0.645
	c1.632-2.759,3.757-5.944,6.219-9.633c19.175-28.737,54.869-82.229,29.28-185.708c-1.932-7.813-3.789-15.264-5.559-22.368
	c-16.017-64.271-25.685-103.066-17.194-117.401c4.037-6.815,14.383-11.78,35.709-17.137c4.332-1.087,9.046-1.639,14.013-1.639
	c28.525,0,62.11,17.521,87.649,45.726c34.574,38.171,50.562,89.993,45.016,145.917c-3.266,32.795-7.21,59.833-10.38,81.559
	l-0.043,0.296c-7.135,48.873-11.065,75.795,3.703,95.554c9.318,12.471,24.284,19.361,50.041,23.042
	c10.779,1.541,22.792,2.813,34.412,4.042c65.479,6.961,146.97,15.624,167.465,75.2c11.267,32.74-1.185,57.105-14.366,82.9
	c-1.018,1.988-2.037,3.981-3.043,5.979c-85.022,40.169-156.944,60.535-213.798,60.537c-32.442,0.001-59.52-6.646-80.48-19.758
	c-34.074-21.309-46.386-56.365-46.546-82.067c-0.035-5.601,2.126-10.371,6.8-15.013c22.249-22.089,90.231-30.106,130.498-30.106
	c1.24,0,2.41,0.009,3.505,0.025l0.123,0.001c9.838,0,17.642-7.647,17.765-17.395c0.141-9.72-7.654-17.742-17.351-17.884
	c-0.36-0.007-1.321-0.019-2.805-0.019c-19.358,0-117.886,1.944-156.574,40.331c-11.53,11.441-17.331,24.992-17.24,40.279
	c0.206,33.254,14.157,66.794,37.632,91.153c-10.55,14.269-23.223,39.158-19.337,73.349c1.939,17.054,8.571,40.816,28.554,61.586
	c-3.389,2.881-6.544,6.165-9.35,9.753c-9.937,12.702-29.096,47.243,1.527,98.969C306.993,926.029,306.812,948.999,310.271,967.839z
	 M658.884,778.716c-75.087,20.043-139.037,30.206-190.077,30.207c-45.436,0-80.031-7.88-102.824-23.422
	c-18.443-12.571-29.057-30.041-31.546-51.922c-2.549-22.434,5.616-38.786,12.011-47.815c26.163,15.861,58.887,23.9,97.309,23.9
	c55.501,0,122.598-16.925,199.595-50.327c-0.514,18.022,7.048,34.127,22.872,48.9c16.3,15.224,15.991,36.345-1.308,69.957
	C662.914,778.016,660.847,778.19,658.884,778.716z"/>
</svg>
