<?xml version="1.0" encoding="utf-8"?>
<!-- Generator: Adobe Illustrator 16.0.0, SVG Export Plug-In . SVG Version: 6.00 Build 0)  -->
<!DOCTYPE svg PUBLIC "-//W3C//DTD SVG 1.1//EN" "http://www.w3.org/Graphics/SVG/1.1/DTD/svg11.dtd">
<svg version="1.1" id="Layer_1" xmlns="http://www.w3.org/2000/svg" xmlns:xlink="http://www.w3.org/1999/xlink" x="0px" y="0px"
	 width="835.286px" height="1100.66px" viewBox="0 0 835.286 1100.66" enable-background="new 0 0 835.286 1100.66"
	 xml:space="preserve">
<path fill="#004075" d="M780.81,633.395l-0.124-1.188c-0.365-3.491-1.08-10.338-2.098-19.932
	c-15.478-146.113-53.386-490.424-71.052-531.791c-11.84-27.744-31.516-43.656-53.981-43.656c-4.909,0-9.902,0.772-14.834,2.292
	c-23.641,7.264-43.815,31.123-55.353,65.459c-12.06,35.889-13.796,80.759-4.892,126.344c8.343,42.708,14.32,94.12,18.418,138.703
	c-10.443-11.579-22.432-19.806-35.881-24.594c-17.287-6.158-34.594-9.28-51.438-9.28c-31.067,0-54.525,10.495-68.445,19.014
	c-11.218-7.724-29.338-15.072-57.669-15.072c-10.604,0-22.137,1.053-34.282,3.131c-32.908,5.635-54.165,20.163-67.846,35.74
	c-14.092-72.777-39.954-201.876-57.71-264.308c-7.389-25.982-20.807-47.19-38.802-61.332c-15.927-12.517-35.483-19.41-55.066-19.41
	c-5.593,0-11.157,0.557-16.535,1.655c-21.879,4.46-40.866,17.627-53.463,37.077c-14.069,21.723-19.375,50.134-15.342,82.165
	c5.295,42.056,11.247,91.216,17.003,138.759c8.181,67.551,16.64,137.401,24.407,197.374c11.442,88.437,20.207,215.7,21.895,241.044
	c-23.7,43.599-26.64,102.994-7.758,159.678c23.168,69.557,76.045,125.556,145.07,153.638c24.813,10.102,53.24,16.667,84.489,19.514
	c11.86,1.082,24.24,1.631,36.797,1.631c0.004,0,0.007,0,0.012,0c70.744,0,148.306-16.986,218.396-47.83
	c72.842-32.054,131.065-76.646,163.944-125.563c24.361-36.249,38.28-82.027,41.37-136.064
	C792.2,718.821,789.094,677.374,780.81,633.395z M509.914,373.889c12.473,0,25.374,2.343,38.347,6.965
	c22.365,7.963,35.77,34.859,43.076,56.022c7.755,22.444,12.739,49.226,14.814,79.601l0.063,2.212
	c0.021,0.773,0.095,1.553,0.223,2.362c4.252,73.707-9.578,153.904-32.946,190.892c-11.659,18.456-31.602,29.921-52.047,29.921
	c-5.289,0-10.444-0.794-15.324-2.361c-19.337-6.204-30.399-24.004-31.182-50.15c0.368-5.961,0.211-10.134,0.159-11.199
	l-2.965-97.162c-0.033-1.061-0.151-2.107-0.354-3.133c6.549-25.617,5.741-51.432-2.41-76.781c-0.652-2.027-1.378-4.008-2.169-5.926
	c0.272-1.126,0.443-2.279,0.507-3.446c1.715-32.377-4.547-81.848-7.675-103.864C469.338,382.016,486.523,373.889,509.914,373.889z
	 M355.597,380.306c10.092-1.726,19.502-2.601,27.972-2.601c23.348,0,34.071,6.543,37.981,9.827
	c1.811,12.269,6.366,45.083,7.903,74.262c-4.194-0.928-8.637-1.397-13.27-1.397c-34.167,0-75.464,24.683-115.924,52.364
	c-4.685-29.682-6.802-65.29-7.086-70.346C293.589,435.231,298.483,390.083,355.597,380.306z M99.168,288.601
	c-5.736-47.385-11.668-96.384-17.021-138.938c-2.923-23.214,0.319-42.844,9.375-56.767c9.458-14.541,22.414-19.065,29.294-20.468
	c2.854-0.581,5.82-0.876,8.817-0.876c20.455,0,46.278,13.952,57.413,53.109c24.661,86.702,65.136,303.78,68.167,320.104
	c0.475,8.554,3.468,58.047,10.799,91.913l-1.592,1.118c-40.512,28.332-89.215,92.819-122.344,140.944
	c-4.091-54.29-10.634-131.971-18.538-193.078C115.75,425.53,107.321,355.919,99.168,288.601z M717.113,871.44
	c-37.396,55.64-114.726,105.784-206.856,134.137c-48.659,14.979-98.07,22.897-142.892,22.897c-41.018,0-77.354-6.321-107.997-18.788
	c-80.409-32.718-111.783-95.767-123.328-130.438c-16.26-48.819-13.541-98.659,7.267-133.344
	c2.283-3.646,86.329-137.39,142.917-176.959l10.596-7.438c35.757-25.153,89.793-63.165,118.951-63.165
	c2.665,0,5.017,0.336,7.004,1.005c2.93,0.981,7.195,3.436,10.394,13.374c28.219,87.735-79.108,158.138-80.191,158.835
	c-8.217,5.259-11.127,15.803-6.783,24.496c0.401,0.813,39.731,81.945,6.031,136.607c-2.668,4.323-3.492,9.426-2.32,14.367
	c1.171,4.941,4.198,9.131,8.49,11.776c2.498,1.553,5.363,2.512,8.274,2.774c0.571,0.052,1.151,0.078,1.725,0.078
	c6.662,0,12.718-3.384,16.191-9.036c13.6-22.052,20.116-48.209,19.422-77.882c18.521-1.812,33.98-9.035,46.052-21.54
	c1.728-1.789,3.376-3.684,4.939-5.679c9.803,13.349,23.205,22.96,39.496,28.188c8.579,2.756,17.597,4.154,26.8,4.154
	c33.469,0,65.787-18.245,84.342-47.614c28.248-44.713,43.741-130.755,38.606-214.309l0.004-0.066l-0.027-0.431
	c-1.937-69.597-11.095-205.112-28.423-293.809c-9.381-48.025-4.94-94.908,11.88-125.415c0.451-0.818,0.904-1.624,1.372-2.413
	c6.408-10.826,14.005-18.24,20.843-20.341c1.241-0.382,2.434-0.576,3.544-0.576c9.619,0,17.074,15.71,19.131,20.525
	c13.631,31.921,49.631,342.042,70.504,542.702l0.02,0.174c0.056,0.463,0.124,0.933,0.212,1.4
	C756.308,708.287,762.323,804.174,717.113,871.44z M437.073,678.8c-0.165,3.174-0.228,6.299-0.187,9.302
	c-0.73,9.925-3.562,27.726-14.222,38.73c-5.766,5.947-13.355,9.281-23.102,10.122c-3.598-17.477-8.71-32.476-12.767-42.804
	c12.451-9.479,31.804-25.883,49.287-47.75L437.073,678.8z"/>
<g>
	<path fill="#CBCDCF" d="M264.419,537.795l1.592-1.118c-7.331-33.865-10.324-83.359-10.799-91.913
		c-3.031-16.324-43.506-233.402-68.167-320.104c-11.134-39.158-36.958-53.109-57.413-53.109c-2.997,0-5.963,0.295-8.817,0.876
		c-6.88,1.403-19.836,5.927-29.294,20.468c-9.056,13.923-12.297,33.552-9.375,56.767c5.352,42.554,11.284,91.553,17.021,138.938
		c8.152,67.318,16.582,136.929,24.369,197.061c7.904,61.106,14.447,138.788,18.538,193.078
		C175.204,630.614,223.907,566.126,264.419,537.795z"/>
	<path fill="#CBCDCF" d="M416.184,460.397c4.633,0,9.076,0.469,13.27,1.397c-1.537-29.179-6.093-61.993-7.903-74.262
		c-3.911-3.284-14.634-9.827-37.981-9.827c-8.469,0-17.88,0.875-27.972,2.601c-57.114,9.778-62.008,54.925-62.424,62.109
		c0.285,5.056,2.401,40.664,7.086,70.346C340.719,485.08,382.016,460.397,416.184,460.397z"/>
	<path fill="#CBCDCF" d="M743.302,639.691c-0.088-0.468-0.156-0.938-0.212-1.4l-0.02-0.174
		c-20.873-200.66-56.873-510.78-70.504-542.702c-2.057-4.815-9.512-20.525-19.131-20.525c-1.11,0-2.303,0.194-3.544,0.576
		c-6.838,2.102-14.435,9.516-20.843,20.341c-0.468,0.79-0.921,1.595-1.372,2.413c-16.82,30.506-21.261,77.389-11.88,125.415
		c17.328,88.696,26.486,224.211,28.423,293.809l0.027,0.431l-0.004,0.066c5.135,83.554-10.358,169.596-38.606,214.309
		c-18.555,29.369-50.873,47.614-84.342,47.614c-9.203,0-18.221-1.398-26.8-4.154c-16.291-5.228-29.693-14.839-39.496-28.188
		c-1.563,1.995-3.212,3.89-4.939,5.679c-12.071,12.505-27.531,19.729-46.052,21.54c0.694,29.673-5.822,55.83-19.422,77.882
		c-3.473,5.652-9.529,9.036-16.191,9.036c-0.574,0-1.154-0.026-1.725-0.078c-2.912-0.263-5.777-1.222-8.274-2.774
		c-4.292-2.646-7.318-6.835-8.49-11.776c-1.172-4.941-0.348-10.044,2.32-14.367c33.7-54.662-5.63-135.794-6.031-136.607
		c-4.344-8.693-1.434-19.237,6.783-24.496c1.083-0.697,108.41-71.101,80.191-158.835c-3.198-9.938-7.464-12.393-10.394-13.374
		c-1.987-0.668-4.34-1.005-7.004-1.005c-29.158,0-83.194,38.012-118.951,63.165l-10.596,7.438
		c-56.588,39.569-140.634,173.313-142.917,176.959c-20.808,34.685-23.527,84.524-7.267,133.344
		c11.545,34.671,42.919,97.72,123.328,130.438c30.643,12.467,66.979,18.788,107.997,18.788c44.822,0,94.233-7.918,142.892-22.897
		c92.131-28.353,169.46-78.497,206.856-134.137C762.323,804.174,756.308,708.287,743.302,639.691z"/>
	<path fill="#CBCDCF" d="M467.706,491.705c-0.063,1.167-0.234,2.32-0.507,3.446c0.791,1.918,1.517,3.899,2.169,5.926
		c8.151,25.35,8.959,51.164,2.41,76.781c0.203,1.025,0.321,2.072,0.354,3.133l2.965,97.162c0.052,1.065,0.209,5.238-0.159,11.199
		c0.782,26.146,11.845,43.946,31.182,50.15c4.88,1.567,10.035,2.361,15.324,2.361c20.445,0,40.388-11.465,52.047-29.921
		c23.368-36.988,37.198-117.186,32.946-190.892c-0.128-0.81-0.201-1.589-0.223-2.362l-0.063-2.212
		c-2.075-30.375-7.06-57.157-14.814-79.601c-7.307-21.163-20.711-48.059-43.076-56.022c-12.973-4.622-25.874-6.965-38.347-6.965
		c-23.391,0-40.575,8.127-49.883,13.952C463.159,409.857,469.42,459.327,467.706,491.705z"/>
	<path fill="#CBCDCF" d="M386.796,694.151c4.057,10.328,9.168,25.327,12.767,42.804c9.746-0.841,17.336-4.175,23.102-10.122
		c10.66-11.005,13.491-28.806,14.222-38.73c-0.041-3.003,0.021-6.128,0.187-9.302l-0.989-32.399
		C418.6,668.268,399.248,684.672,386.796,694.151z"/>
</g>
</svg>
