<?xml version="1.0" encoding="utf-8"?>
<!-- Generator: Adobe Illustrator 16.0.0, SVG Export Plug-In . SVG Version: 6.00 Build 0)  -->
<!DOCTYPE svg PUBLIC "-//W3C//DTD SVG 1.1//EN" "http://www.w3.org/Graphics/SVG/1.1/DTD/svg11.dtd">
<svg version="1.1" id="Layer_1" xmlns="http://www.w3.org/2000/svg" xmlns:xlink="http://www.w3.org/1999/xlink" x="0px" y="0px"
	 width="835.286px" height="1100.66px" viewBox="0 0 835.286 1100.66" enable-background="new 0 0 835.286 1100.66"
	 xml:space="preserve">
<path fill="#004075" d="M746.745,595.941c-3.977-86.193-19.26-182.364-23.903-210.09c-12.103-72.149-61.437-118.769-125.685-118.769
	c-13.153,0-26.911,1.919-40.965,5.71c-24.616-28.023-62.303-43.987-104.31-43.987c-35.225,0-70.863,11.249-98.628,30.999
	c-24.511-12.438-51.282-18.74-79.657-18.74c-38.984,0-79.172,12.586-108.495,33.828c-8.459-2.763-17.584-4.211-26.654-4.211
	c-26.804,0-51.704,12.421-70.113,34.976c-22.077,27.055-35.184,68.172-38.954,122.209c-10.795,154.781,3.904,245.078,47.663,292.782
	c23.727,25.851,47.761,38.958,71.435,38.958c7.933,0,15.597-1.481,22.888-4.416c5.642,25.411,18.828,46.418,38.426,61.076
	c18.795,14.058,43.104,21.799,68.448,21.799c27.679,0,54.689-8.687,75.5-24.066c19.855,25.795,59.1,42.047,103.119,42.047
	c18.941,0,37.677-3.202,54.646-9.303c7.434,12.375,22.751,25.113,54.295,25.113h0.008c22.961,0,52.91-6.874,89.048-20.435
	c6.175,1.117,12.605,1.683,19.15,1.683c35.37,0,74.15-17.03,101.205-44.444c22.347-22.642,34.459-49.826,34.106-76.545
	C808.364,658.114,770.994,615.708,746.745,595.941z M674.004,822.545c-5.901,0-11.619-0.628-16.962-1.86
	c-2.979-0.698-6.143-0.477-8.949,0.612c-34.525,13.271-62.211,20-82.295,20c-12.884,0-21.786-2.765-26.556-8.232
	c15.916-10.376,28.292-23.735,36.912-39.849c5.703,1.288,12.245,1.938,19.541,1.938c21.029,0,54.767-6.046,86.385-23.016
	c35.392-18.994,56.745-45.843,61.752-77.643c2.327-14.774,3.606-32.874,3.821-53.994c15.909,20.08,30.569,49.932,31.114,92.009
	c0.24,18.484-8.745,37.901-25.302,54.675C731.942,808.996,701.495,822.545,674.004,822.545z M456.858,825.484
	c-36.589,0-69.904-14.079-81.764-34.39c-24.017-172.956-36.704-388.952-25.129-428.782c2.388-8.417-2.52-17.264-10.939-19.721
	l-0.128-0.037c-1.341-0.367-2.729-0.553-4.126-0.553c-7.137,0-13.491,4.728-15.45,11.492
	c-12.763,43.942-1.968,248.432,22.636,430.656c-15.918,14.682-39.423,23.352-63.719,23.352c-37.33,0-77.798-20.744-79.427-78.965
	c-0.102-3.634-1.518-7.09-3.911-9.757c-9.599-45.885-36.279-194.787-16.284-349.186c1.068-8.67-5.117-16.659-13.787-17.807
	l-0.099-0.013c-0.638-0.076-1.285-0.115-1.924-0.115c-8.043,0-14.849,5.99-15.825,13.887
	c-20.341,157.024,6.192,308.833,16.691,359.499c-4.818,2.658-9.911,4.001-15.195,4.001c-14.767,0-31.226-9.778-48.918-29.062
	c-37.616-41.01-49.858-124.278-39.694-269.992c8.108-116.209,57.656-128.755,78.583-128.755c10.124,0,17.92,2.651,22.673,4.873
	c2.041,0.956,4.217,1.44,6.47,1.44c3.546,0,7.006-1.246,9.739-3.506c24.198-20,61.085-32.423,96.267-32.423
	c26.475,0,51.155,6.573,73.356,19.537c2.334,1.362,4.996,2.083,7.698,2.083c3.537,0,6.987-1.238,9.711-3.482
	c23.474-19.315,55.374-30.393,87.521-30.393c36.534,0,68.044,14.573,86.459,39.994c2.87,3.947,7.493,6.303,12.365,6.303
	c1.634,0,3.249-0.261,4.799-0.774c14.553-4.811,28.566-7.25,41.651-7.25c49.284,0,85.896,35.736,95.545,93.261
	c11.628,69.423,20.031,142.065,23.053,199.301c0.319,6.018,0.581,11.938,0.78,17.602c1.217,34.491,0.246,62.062-2.882,81.941
	c-4.468,28.355-28.44,46.272-47.765,56.309c-26.351,13.686-54.281,18.542-70.192,18.542c-6.513,0-10.814-0.656-13.527-1.34
	c-1.66-7.916-3.308-16-4.906-24.081c-1.17-5.92-2.319-11.857-3.415-17.65c-37.198-196.645-40.279-362.189-40.293-363.753
	l-0.002-0.134c-0.174-8.436-6.692-15.011-15.498-15.634l-0.34-0.024l-0.341,0.005c-4.25,0.062-8.227,1.772-11.196,4.818
	c-2.979,3.054-4.585,7.076-4.523,11.277c0.014,1.667,3.178,175.862,43.093,381.02c1.173,6.027,2.371,12.05,3.562,17.903
	c1.115,5.48,2.255,10.982,3.427,16.516c0.002,0.011,0.005,0.021,0.007,0.032c-6.191,13.884-16.076,25.316-29.415,34.013
	c-4.137,2.696-8.625,5.138-13.342,7.257C493.675,821.697,475.163,825.484,456.858,825.484z"/>
</svg>
