<?xml version="1.0" encoding="utf-8"?>
<!-- Generator: Adobe Illustrator 16.0.0, SVG Export Plug-In . SVG Version: 6.00 Build 0)  -->
<!DOCTYPE svg PUBLIC "-//W3C//DTD SVG 1.1//EN" "http://www.w3.org/Graphics/SVG/1.1/DTD/svg11.dtd">
<svg version="1.1" id="Layer_1" xmlns="http://www.w3.org/2000/svg" xmlns:xlink="http://www.w3.org/1999/xlink" x="0px" y="0px"
	 width="835.286px" height="1100.66px" viewBox="0 0 835.286 1100.66" enable-background="new 0 0 835.286 1100.66"
	 xml:space="preserve">
<path fill="#004075" d="M690.295,682.458c-17.129-15.999-14.927-25.335,1.934-58.315c13.704-26.796,32.473-63.494,16.327-110.439
	c-12.425-36.101-39.85-61.41-83.844-77.375c-36.577-13.273-79.091-17.791-113.258-21.421l-0.33-0.035
	c-11.81-1.259-22.964-2.448-32.816-3.855c-14.758-2.106-23.767-5.216-26.776-9.24c-5.993-8.016-2.248-33.688,2.935-69.219
	l0.069-0.473c3.22-22.068,7.229-49.534,10.557-83.104c6.56-65.959-12.605-127.431-53.965-173.09
	c-32.508-35.892-75.047-57.32-113.794-57.32c-7.853,0-15.455,0.908-22.597,2.699c-26.585,6.674-46.534,14.901-57.48,33.37
	c-16.035,27.067-7.039,62.93,14.694,149.57c1.362,5.432,2.775,11.064,4.236,16.908c10.508,42.053,9.284,81.909-3.638,118.462
	c-9.132,25.832-21.414,41.607-24.961,45.826c-0.317,0.378-0.5,0.618-0.55,0.687c-70.25,95.678-97.939,184.584-82.299,264.247
	c14.555,74.127,62.975,117.8,82.89,132.991c-26.403,179.147,72.169,211.644,83.596,214.783
	c11.539,3.161,35.898,27.731,64.191,57.104c17.181,17.83,42.935,26.871,76.549,26.871c43.209,0,97.9-15.832,139.332-40.334
	c38.203-22.586,43.333-48.709,47.083-67.806c2.507-12.814,3.888-19.873,12.892-26.693c17.191-13.018,28.65-31.215,33.138-52.625
	c4.173-19.907,1.357-36.971-0.683-45.346c2.054-4.351,8.209-14.004,11.716-19.505l0.119-0.186
	c11.479-17.991,27.199-42.63,34.275-68.369C718.623,729.27,712.047,702.768,690.295,682.458z M458.302,492.403
	c-0.36-0.007-1.321-0.019-2.805-0.019c-19.358,0-117.886,1.944-156.574,40.331c-11.53,11.441-17.331,24.992-17.24,40.279
	c0.206,33.254,14.157,66.794,37.632,91.153c-10.55,14.269-23.223,39.158-19.337,73.349c1.939,17.054,8.571,40.816,28.554,61.586
	c-3.389,2.881-6.544,6.165-9.35,9.753c-9.937,12.702-29.096,47.243,1.527,98.969c-13.717,18.225-13.898,41.194-10.439,60.034
	c-3.306-1.64-6.509-2.868-9.717-3.747c-3.891-1.067-24.132-7.677-40.517-33.11c-21.676-33.646-27.166-86.477-15.873-152.786
	c1.211-7.147-2-14.213-8.153-17.981c-0.612-0.381-61.41-39.024-76.656-116.675c-13.586-69.2,11.676-148.32,75.085-235.161
	l0.424-0.645c1.632-2.759,3.757-5.944,6.219-9.633c19.175-28.737,54.869-82.229,29.28-185.708
	c-1.932-7.813-3.789-15.264-5.559-22.368c-16.017-64.271-25.685-103.066-17.194-117.401c4.037-6.815,14.383-11.78,35.709-17.137
	c4.332-1.087,9.046-1.639,14.013-1.639c28.525,0,62.11,17.521,87.649,45.726c34.574,38.171,50.562,89.993,45.016,145.917
	c-3.266,32.795-7.21,59.833-10.38,81.559l-0.043,0.296c-7.135,48.873-11.065,75.795,3.703,95.554
	c9.318,12.471,24.284,19.361,50.041,23.042c10.779,1.541,22.792,2.813,34.412,4.042c65.479,6.961,146.97,15.624,167.465,75.2
	c11.267,32.74-1.185,57.105-14.366,82.9c-1.018,1.988-2.037,3.981-3.043,5.979c-85.022,40.169-156.944,60.535-213.798,60.537
	c-32.442,0.001-59.52-6.646-80.48-19.758c-34.074-21.309-46.386-56.365-46.546-82.067c-0.035-5.601,2.126-10.371,6.8-15.013
	c22.249-22.089,90.231-30.106,130.498-30.106c1.24,0,2.41,0.009,3.505,0.025l0.123,0.001c9.838,0,17.642-7.647,17.765-17.395
	C475.793,500.567,467.999,492.545,458.302,492.403z M583.755,967.165c-3.249,16.581-5.815,29.679-30.417,44.225
	c-29.808,17.63-78.896,35.419-121.374,35.419c-16.27,0-38.349-2.787-51.139-16.064c-6.789-7.047-12.577-12.992-17.658-18.138
	c-9.81-19.306-23.905-55.104-19.295-74.771c27.027,26.481,64.699,39.892,112.179,39.892c49.226,0,98.471-14.317,131.509-26.526
	C585.781,956.831,584.714,962.274,583.755,967.165z M628.91,855.642c0.37,1.241,8.087,28.047-6.537,50.346
	c-2.438-1.277-5.184-1.984-8.021-1.984c-2.616,0-5.144,0.577-7.485,1.701c-0.778,0.37-78.662,36.996-150.951,36.999
	c-45.481,0.002-78.777-14.38-98.962-42.747c-27.939-39.271-16.621-61.863-10.463-69.747c4.395-5.612,9.389-8.181,11.778-8.903
	c27.747,14.903,64.792,22.456,110.198,22.456c47.502-0.004,105.25-8.243,171.886-24.511
	C630.843,834.507,625.717,844.912,628.91,855.642z M664.917,778.194c-2.003-0.179-4.069-0.004-6.032,0.521
	c-75.087,20.043-139.037,30.206-190.077,30.207c-45.436,0-80.031-7.88-102.824-23.422c-18.443-12.571-29.057-30.041-31.546-51.922
	c-2.549-22.434,5.616-38.786,12.011-47.815c26.163,15.861,58.887,23.9,97.309,23.9c55.501,0,122.598-16.925,199.595-50.327
	c-0.514,18.022,7.048,34.127,22.872,48.9C682.524,723.461,682.215,744.582,664.917,778.194z"/>
<g>
	<path fill="#009ECE" d="M468.421,843.764c-45.406,0-82.451-7.553-110.198-22.456c-2.389,0.723-7.383,3.291-11.778,8.903
		c-6.158,7.884-17.477,30.477,10.463,69.747c20.186,28.367,53.481,42.749,98.962,42.747c72.289-0.003,150.173-36.629,150.951-36.999
		c2.342-1.124,4.869-1.701,7.485-1.701c2.837,0,5.583,0.707,8.021,1.984c14.624-22.299,6.907-49.104,6.537-50.346
		c-3.192-10.729,1.934-21.135,11.442-36.391C573.671,835.521,515.923,843.76,468.421,843.764z"/>
	<path fill="#009ECE" d="M343.828,937.837c-4.61,19.668,9.485,55.466,19.295,74.771c5.081,5.146,10.869,11.091,17.658,18.138
		c12.79,13.277,34.869,16.064,51.139,16.064c42.478,0,91.566-17.789,121.374-35.419c24.602-14.546,27.168-27.644,30.417-44.225
		c0.959-4.891,2.025-10.334,3.805-15.965c-33.038,12.209-82.283,26.526-131.509,26.526
		C408.526,977.729,370.854,964.318,343.828,937.837z"/>
	<path fill="#009ECE" d="M319.271,664.15c-23.475-24.359-37.426-57.899-37.632-91.153c-0.09-15.287,5.71-28.838,17.24-40.279
		c38.688-38.387,137.215-40.331,156.574-40.331c1.483,0,2.444,0.012,2.805,0.019c9.696,0.142,17.491,8.164,17.351,17.884
		c-0.123,9.747-7.927,17.395-17.765,17.395l-0.123-0.001c-1.095-0.017-2.265-0.025-3.505-0.025
		c-40.267,0-108.249,8.018-130.498,30.106c-4.674,4.642-6.835,9.412-6.8,15.013c0.161,25.702,12.473,60.759,46.546,82.067
		c20.961,13.111,48.038,19.759,80.48,19.758c56.854-0.002,128.775-20.368,213.798-60.537c1.006-1.998,2.025-3.991,3.043-5.979
		c13.182-25.795,25.633-50.16,14.366-82.9c-20.495-59.576-101.985-68.239-167.465-75.2c-11.62-1.229-23.633-2.501-34.412-4.042
		c-25.757-3.681-40.723-10.571-50.041-23.042c-14.769-19.759-10.838-46.681-3.703-95.554l0.043-0.296
		c3.17-21.726,7.114-48.764,10.38-81.559c5.546-55.924-10.441-107.746-45.016-145.917C359.398,71.37,325.813,53.85,297.288,53.85
		c-4.966,0-9.681,0.552-14.013,1.639c-21.327,5.356-31.673,10.321-35.709,17.137c-8.491,14.335,1.177,53.13,17.194,117.401
		c1.771,7.104,3.627,14.555,5.559,22.368c25.588,103.479-10.105,156.971-29.28,185.708c-2.461,3.688-4.587,6.874-6.219,9.633
		l-0.424,0.645c-63.41,86.841-88.672,165.961-75.085,235.161c15.247,77.65,76.044,116.294,76.656,116.675
		c6.153,3.769,9.364,10.834,8.153,17.981c-11.293,66.31-5.804,119.141,15.873,152.786c16.385,25.434,36.626,32.043,40.517,33.11
		c3.208,0.879,6.411,2.107,9.717,3.747c-3.459-18.84-3.278-41.81,10.439-60.034c-30.623-51.726-11.463-86.267-1.527-98.969
		c2.806-3.588,5.961-6.872,9.35-9.753c-19.983-20.77-26.615-44.532-28.554-61.586C296.048,703.309,308.721,678.419,319.271,664.15z"
		/>
	<path fill="#009ECE" d="M666.179,708.239c-15.824-14.773-23.386-30.878-22.872-48.9c-76.997,33.402-144.094,50.327-199.595,50.327
		c-38.422,0-71.146-8.039-97.309-23.9c-6.395,9.029-14.56,25.382-12.011,47.815c2.489,21.881,13.103,39.351,31.546,51.922
		c22.793,15.542,57.388,23.422,102.824,23.422c51.04-0.001,114.99-10.164,190.077-30.207c1.963-0.525,4.029-0.7,6.032-0.521
		C682.17,744.584,682.479,723.463,666.179,708.239z"/>
</g>
</svg>
