<?xml version="1.0" encoding="utf-8"?>
<!-- Generator: Adobe Illustrator 16.0.0, SVG Export Plug-In . SVG Version: 6.00 Build 0)  -->
<!DOCTYPE svg PUBLIC "-//W3C//DTD SVG 1.1//EN" "http://www.w3.org/Graphics/SVG/1.1/DTD/svg11.dtd">
<svg version="1.1" id="Layer_1" xmlns="http://www.w3.org/2000/svg" xmlns:xlink="http://www.w3.org/1999/xlink" x="0px" y="0px"
	 width="835.286px" height="1100.66px" viewBox="0 0 835.286 1100.66" enable-background="new 0 0 835.286 1100.66"
	 xml:space="preserve">
<path fill="#004075" d="M705.4,469.929c-16.883-33.02-19.09-42.365-1.962-58.363c21.846-20.395,28.447-47.005,19.623-79.09
	c-4.968-18.063-14.177-35.574-23.223-50.677l0.142-0.588l-0.58-0.139c-3.738-6.213-7.437-12.02-10.782-17.262
	c-3.533-5.538-9.738-15.259-11.798-19.606c2.053-8.414,4.875-25.52,0.693-45.481c-4.454-21.266-15.774-39.367-32.735-52.408
	c-0.047-0.038-0.094-0.074-0.141-0.111c-0.135-0.103-0.262-0.212-0.396-0.314c-8.998-6.813-10.385-13.878-12.9-26.709
	c-3.749-19.147-8.884-45.37-47.239-68.057C545.265,28.168,490.599,23.35,451.58,23.35c-34.107,0-69.361,3.776-96.724,10.362
	c-36.881,8.884-96.591,36.142-143.494,83.726c-38.489,39.053-81.25,105.433-68.049,200.798
	c-10.375,13.09-29.922,43.76-34.896,93.601c-8.549,85.709,28.552,185.603,110.269,296.896c1.366,1.864,3.168,3.505,5.236,4.758
	c0.579,0.349,14.284,8.797,24.251,32.543c9.317,22.196,16.836,62.414-0.259,127.998c-25.488,97.787-36.038,138.262-18.976,167.061
	c10.991,18.543,31.011,26.806,57.692,33.505c7.176,1.802,14.808,2.715,22.685,2.715h0.012c38.879,0,81.561-21.498,114.172-57.508
	c41.485-45.795,60.715-107.462,54.145-173.641c-3.364-33.898-7.399-61.514-10.641-83.703c-5.208-35.663-8.972-61.43-2.981-69.446
	c2.997-4.008,12.009-7.114,26.78-9.231c10.309-1.467,22.486-2.755,33.261-3.896c34.26-3.644,76.899-8.178,113.584-21.493
	c44.139-16.021,71.654-41.42,84.12-77.646C737.973,533.654,719.148,496.827,705.4,469.929z M435.53,671.711
	c-14.837,19.836-10.893,46.85-3.731,95.899c3.191,21.834,7.164,49.008,10.443,82.064c5.566,56.049-10.453,107.986-45.107,146.249
	c-25.594,28.256-59.24,45.809-87.817,45.809c-4.985,0-9.7-0.553-14.026-1.645c-21.354-5.354-31.708-10.319-35.745-17.141
	c-9.503-16.031,1.971-60.056,22.802-139.974c35.335-135.554-21.875-187.01-36.8-197.78
	c-92.797-127.297-106.642-216.087-101.882-268.207c4.863-53.246,30.118-79.754,30.878-80.538c4.205-4.083,6.127-9.961,5.144-15.749
	C157.97,193.168,253.026,113.311,325.894,81.213c-5.835,11.101-10.32,23.82-11.326,37.597c-1.687,23.101,6.338,44.591,23.851,63.907
	c-33.321,47.62-16.754,81.532-7.413,94.556c2.99,4.168,6.482,7.965,10.292,11.297c-23.482,20.35-30.966,44.349-32.943,61.762
	c-4.415,38.862,17.365,72.009,30.918,88.482c-28.888,20.874-45.543,50.843-45.737,82.447c-0.097,15.352,5.725,28.965,17.307,40.465
	c38.816,38.518,137.805,40.469,157.255,40.469c1.351,0,2.253-0.011,2.649-0.02c4.73-0.075,9.151-1.983,12.454-5.377
	c3.314-3.406,5.104-7.897,5.039-12.649c-0.132-9.674-8.112-17.543-17.789-17.543l-0.247,0.001c-0.989,0.013-2.036,0.02-3.146,0.02
	c-34.854,0-107.119-6.303-131.151-30.154c-4.671-4.639-6.83-9.402-6.795-14.991c0.125-20.407,11.736-40.256,31.858-54.456
	c17.139-12.097,49.605-26.517,106.949-26.517c55.933,0,124.297,13.678,203.278,40.657c0.847,1.676,1.692,3.332,2.527,4.964
	c13.21,25.843,25.686,50.253,14.402,83.039c-20.54,59.689-102.22,68.367-167.853,75.341l-0.652,0.069
	c-12.051,1.286-23.434,2.5-33.854,3.982C459.909,652.262,444.883,659.187,435.53,671.711z M650.478,269.938
	c-64.495-13.538-120.567-20.393-167.099-20.393c-43.758,0-79.913,6.078-107.943,18.1c-2.763-0.459-10.041-3.463-15.52-11.106
	c-11.313-15.769-5.904-38.222,15.231-63.222c24.368-28.829,62.912-43.446,114.562-43.446c62.07,0,122.566,21.257,134.895,25.845
	c28.238,23.258,17.583,60.492,17.104,62.103C638.822,247.54,642.709,256.98,650.478,269.938z M688.656,342.061
	c5.137,18.834,2.118,32.658-9.496,43.502c-19.394,18.109-24.356,36.192-22.626,53.363c-71.425-22.39-134.676-33.729-188.386-33.729
	c-42.684,0-74.117,7.196-96.807,16.276c-7.715-8.284-31.145-36.263-27.638-67.125c1.395-12.279,7.272-29.868,27.351-43.93
	c23.85-16.703,61.747-25.173,112.638-25.173c51.842,0,116.504,9.02,192.292,26.812C681.502,322.359,686.053,332.516,688.656,342.061
	z M490.003,113.929c-53.864,0-96.75,14.069-127.834,41.843c-8.886-10.918-12.972-22.437-12.123-34.302
	c2.16-30.196,33.809-56.365,34.07-56.579c0.356-0.286,0.685-0.593,1.014-0.9c20.47-3.259,43.66-5.064,66.449-5.064
	c48.886,0,89.518,8.106,114.41,22.824c24.614,14.556,27.185,27.67,30.444,44.298c0.228,1.163,0.462,2.351,0.707,3.556
	C568.935,121.918,530.003,113.929,490.003,113.929z"/>
</svg>
