<svg id="Layer_1" data-name="Layer 1" xmlns="http://www.w3.org/2000/svg" viewBox="0 0 387.67 443.49"><defs><style>.cls-1{fill:none;}.cls-2{fill:#4dbae6;}.cls-3{fill:#009ece;}.cls-4{fill:#fff;}.cls-5{fill:#004075;}</style></defs><title>RSOCIAL Logo</title><path class="cls-1" d="M1055.64,817.08c-.17.35-.33.7-.49,1.07,0,.2.1.42.15.64C1055.41,818.21,1055.52,817.64,1055.64,817.08Z" transform="translate(-806.16 -778.25)"/><path class="cls-2" d="M1004.44,971.79q.42,2.34.84,4.74c-.29-1.68-.57-3.25-.82-4.6Z" transform="translate(-806.16 -778.25)"/><path class="cls-2" d="M1070.34,1041.38c-.1.24-.2.47-.31.71h.2C1070.27,1041.85,1070.31,1041.62,1070.34,1041.38Z" transform="translate(-806.16 -778.25)"/><path class="cls-2" d="M998.38,938.87h0v0Z" transform="translate(-806.16 -778.25)"/><path class="cls-3" d="M1054.79,871c.94,3.23,1.87,6.64,2.79,10.17-3.09-23.48-5-47.09-2.28-62.37,0-.22-.1-.44-.15-.64C1050.08,829.71,1048.2,848.42,1054.79,871Z" transform="translate(-806.16 -778.25)"/><path class="cls-3" d="M1095.13,1042.09h4.47c-12.22-20.66-12.13-68.26-16.35-96-5.45-35.8-23.69-110.17-28-127.32-2.72,15.28-.81,38.89,2.28,62.37,8.75,33.84,16,79.64,18.91,104.35,0,0,0,.07,0,.1,1,6.39,1.67,13,2,19.53C1082,1019.59,1087.38,1035.16,1095.13,1042.09Z" transform="translate(-806.16 -778.25)"/><path class="cls-3" d="M1078.29,1032.05c.49,3.68.93,7.06,1.32,10h15.52c-7.75-6.93-13.1-22.5-16.59-36.95A198.93,198.93,0,0,1,1078.29,1032.05Z" transform="translate(-806.16 -778.25)"/><path class="cls-2" d="M1062.62,1042.09h-.22l.19.05Z" transform="translate(-806.16 -778.25)"/><path class="cls-2" d="M936.57,1007.33c-4.55-13-7.88-35.35-8.26-38-1.32-4.67-25.61-90.79-38.69-124.72-6-15.56-17.23-21.77-27.06-21.66-2.93,6-9.45,28.32,7.38,91,17.89,66.64,35.53,116.32,39.82,128.11h38c-5-10.18-8.31-22.26-11-34.33A2.83,2.83,0,0,1,936.57,1007.33Z" transform="translate(-806.16 -778.25)"/><path class="cls-2" d="M1085.14,1166.13q2.89-2,5.65-4H958.71C999.79,1184.72,1066.2,1170.8,1085.14,1166.13Z" transform="translate(-806.16 -778.25)"/><path class="cls-2" d="M1128.21,1028.55a2.29,2.29,0,0,1-.07-.28c-13.37-67.81-40.57-199.64-47.86-213.16-2.49-4.61-7.75-11.9-14.94-9-3.56,1.46-7,5.25-9.7,10.92-.12.56-.23,1.13-.34,1.71,4.26,17.15,22.5,91.52,28,127.32,4.22,27.72,4.13,75.32,16.35,96h32.05C1130.6,1037.35,1129.43,1032.81,1128.21,1028.55Z" transform="translate(-806.16 -778.25)"/><path class="cls-2" d="M979.6,1042.09l1.08,3.49,1.07,3.5c.53,1.76,1,3.39,1.48,4.9,1.21,4,2.11,7,2.6,8.68,5.7-.12,10.12-1.92,13.45-5.52a24.13,24.13,0,0,0,4.74-8.06c.41-1.12.78-2.29,1.1-3.5s.55-2.29.76-3.49c.26-1.42.47-2.87.62-4.35a80.1,80.1,0,0,0,.38-8.41c0-1.79-.06-3.58-.16-5.37-.09-1.57-.2-3.14-.34-4.68-.08-.78-.16-1.58-.25-2.38s-.21-1.78-.33-2.68c-.7-5-1.87-10.41-3.19-16.52l-.74-3.4-.35,0c-4.1-24-9-50.05-9.94-55.09-1.66-1.62-9.64-7.84-31.08-2.13a41.44,41.44,0,0,0-11,4.6c-.07.2-6.41,16.25,2.28,25.37,3,3.11,7.89,15.27,13.09,30S975.5,1028.81,979.6,1042.09Z" transform="translate(-806.16 -778.25)"/><path class="cls-2" d="M1038,1028c12,9.31,19.7,12.87,24.41,14.07h.22c10.76-21.16,7.52-52.38,7.47-52.84v0a2.45,2.45,0,0,1,.05-.72c-.09-.59-.17-1.18-.26-1.76a3.48,3.48,0,0,1-.1-.44c0-.29-.07-.6-.11-.9-1.86-11.64-4.83-22.75-9.06-32.12-4-8.94-11.08-20.17-21.81-22.92-12.7-3.26-22.65-1.3-29.64,1.67,0,0,1.78,32.89,9.91,61C1023.37,1007.88,1029.45,1021.4,1038,1028Z" transform="translate(-806.16 -778.25)"/><path class="cls-3" d="M939.81,950.07a36.76,36.76,0,0,0-5.61,13.4c.14.5.28,1,.42,1.54A33,33,0,0,1,939.81,950.07Z" transform="translate(-806.16 -778.25)"/><path class="cls-3" d="M1004.44,971.79c-2.71-15.11-5.15-28.14-6.05-32.88C998.55,939.77,1001.48,955.76,1004.44,971.79Z" transform="translate(-806.16 -778.25)"/><path class="cls-3" d="M1005.28,976.53c.57,3.25,1.19,7,1.78,10.54a2.12,2.12,0,0,1,.11.21C1006.55,983.67,1005.91,980.06,1005.28,976.53Z" transform="translate(-806.16 -778.25)"/><polygon class="cls-3" points="192.22 160.62 192.22 160.62 192.22 160.61 192.22 160.62"/><path class="cls-3" d="M949.52,941.71a25.9,25.9,0,0,0-9.71,8.36A33,33,0,0,0,934.62,965l.09.32.27,1c1.83,6.92,3.37,14.85,5,23.24.58,3,1.17,6.06,1.79,9.16,3.06,15.22,6.84,31.16,13.39,43.31.64,1.2,1.32,2.37,2,3.49s1.56,2.39,2.39,3.5c4.4,5.89,9.82,10.27,16.63,12.32a31.51,31.51,0,0,0,8.56,1.29c.38,0,.72,0,1.09,0-.49-1.63-1.39-4.66-2.6-8.68-.45-1.51-1-3.14-1.48-4.9l-1.07-3.5-1.08-3.49c-4.1-13.28-9.55-30.41-14.72-45s-10.12-26.87-13.09-30c-8.69-9.12-2.35-25.17-2.28-25.37Z" transform="translate(-806.16 -778.25)"/><path class="cls-3" d="M958.71,1162.11h-62c8.74,13,23.63,27.8,48.27,35.29,27.55,8.39,64.67,4.45,101.83-10.8a209.5,209.5,0,0,0,38.28-20.47C1066.2,1170.8,999.79,1184.72,958.71,1162.11Z" transform="translate(-806.16 -778.25)"/><path class="cls-3" d="M879.42,1042.09h30.34c-4.29-11.79-21.93-61.47-39.82-128.11-16.83-62.66-10.31-84.94-7.38-91a21.84,21.84,0,0,0-6.1.91c-10.15,3.05-20.27,14.52-15.37,36.81,3.56,16.24,7.54,34.74,11.75,54.34,5.66,26.38,11.52,53.66,16.73,77C873,1007.4,876.46,1025.6,879.42,1042.09Z" transform="translate(-806.16 -778.25)"/><path class="cls-3" d="M933,905.12a5.26,5.26,0,0,0,5.13,4.18,5.45,5.45,0,0,0,1.06-.11,5.23,5.23,0,0,0,4.07-6.19c-.67-3.23-16.71-79.33-47-110.7a5.24,5.24,0,0,0-7.55,7.27C916.89,828.76,932.83,904.36,933,905.12Z" transform="translate(-806.16 -778.25)"/><path class="cls-3" d="M813.57,814.55a5.16,5.16,0,0,0,3.07,1,5.22,5.22,0,0,0,4.24-2.16c6-8.18,21.52-22.12,38-24.72a5.24,5.24,0,1,0-1.63-10.35c-19.75,3.11-37.64,19-44.84,28.91A5.23,5.23,0,0,0,813.57,814.55Z" transform="translate(-806.16 -778.25)"/><path class="cls-3" d="M924,1211.53c-31.48-10.36-47.2-30.75-55-49.42h-11.1c.06.16.11.31.17.46,7.52,19.94,24.49,46.34,62.68,58.91a5.24,5.24,0,1,0,3.28-10Z" transform="translate(-806.16 -778.25)"/><path class="cls-3" d="M816.44,896.45a5.24,5.24,0,1,0-10.07,2.88c.24.86,24.79,87,32.57,130.26a5.25,5.25,0,0,0,5.15,4.31,5.07,5.07,0,0,0,.94-.09,5.23,5.23,0,0,0,4.22-6.08C841.37,984,816.69,897.32,816.44,896.45Z" transform="translate(-806.16 -778.25)"/><path class="cls-3" d="M1004.44,971.79l0,.14c.25,1.35.53,2.92.82,4.6.63,3.53,1.27,7.14,1.89,10.75a2.83,2.83,0,0,1,.17.4c.12.42.76,2.64,1.59,6.1a177.44,177.44,0,0,1,4.19,25c.2,2,.38,3.84.56,5.61.73,7.42,1.36,13.83,2.21,15.94.24.6.48,1.16.72,1.72.54,1.25,1.08,2.41,1.63,3.49.63,1.27,1.27,2.43,1.91,3.5,8,13.42,16,12,16.13,12a2.33,2.33,0,0,1,.46-.08,30.43,30.43,0,0,0,21.47-11.91,37.64,37.64,0,0,0,2.44-3.5c.7-1.11,1.34-2.26,1.94-3.44l-.19-.05c-4.71-1.2-12.38-4.76-24.41-14.07-8.54-6.62-14.62-20.14-18.92-35-8.13-28.09-9.9-61-9.91-61h0a38.56,38.56,0,0,0-10.77,6.82h0v0C999.29,943.65,1001.73,956.68,1004.44,971.79Z" transform="translate(-806.16 -778.25)"/><path class="cls-4" d="M1186.85,1148.52c-3.09,12.48-34.84,10.56-34.84,10.56l2.4,42.64-51.36-43.6s-238.08.48-253.71,2.4-25.74-7.25-26.61-16.8-1-61-2.4-71.13,8.16-22,13.92-27,85.92,0,85.92,0l33.47.05c5.2,6.9,21.44,26.78,32.19,21.4,12.94-6.48,22.86-11.08,22.94-18,0-1.13,0-2.27.06-3.37h7.2c2.58,6.34,6.39,13.58,10.82,15.4,8.28,3.4,23.06,1.6,27.55-3.8,3-3.6,7.42-8.6,10-11.53h5.91s96.07-.48,104.23,0a16.64,16.64,0,0,1,12.28,6.72s2.6,18.24,4.52,34.54S1189.93,1136,1186.85,1148.52Z" transform="translate(-806.16 -778.25)"/><path class="cls-5" d="M1168.94,1042.09h-30.38c-1.15-5.35-2.45-10.48-3.81-15.26-.21-1-.79-4-1.67-8.43-7.67-38.51-38.31-190.64-46.86-206.5-6-11.08-14.74-15.56-23.44-12-15.37,6.3-25.27,36-14.48,73,5.91,20.26,11.29,47.23,15.34,71.41-6.27-11.24-14-18.13-23.16-20.47-24.19-6.2-39.92,4.27-45.76,9.27-4.51-3.41-15.05-8.08-36-2.51-16.24,4.33-23.86,14-27.42,22.48,0-.1-.06-.22-.09-.31-.34-1.21-.62-2.23-.93-3.06a.65.65,0,0,1,0-.11h0a4.85,4.85,0,0,0-1.15-1.9C920.84,919,905.46,867,895.92,842.23c-8.84-22.93-27.66-28.93-41.4-24.79-13.94,4.19-25.54,19.65-20,44.73,3.56,16.22,7.53,34.72,11.74,54.31,5.67,26.39,11.53,53.69,16.75,77.06,3.32,14.87,6.68,32.46,9.57,48.55H842.6a24.92,24.92,0,0,0-24.89,24.9v70.23a24.92,24.92,0,0,0,24.89,24.89h46.14a96.38,96.38,0,0,0,54.32,41.76,113.27,113.27,0,0,0,32.89,4.49c42.3,0,92.18-18.63,125.88-46.25h.53l54,45.44v-45.44h12.59a24.93,24.93,0,0,0,24.9-24.89V1067A24.93,24.93,0,0,0,1168.94,1042.09Zm17.91,95.13a17.94,17.94,0,0,1-17.91,17.91h-19.58v37.41l-44.45-37.41H842.6a17.94,17.94,0,0,1-17.91-17.91V1067a17.93,17.93,0,0,1,17.91-17.91h109c6.42,10,15.15,17.18,27.5,19a43.94,43.94,0,0,0,5.5.43h.57c8.09,0,14.61-2.6,19.38-7.74a26.82,26.82,0,0,0,4-5.81,36.59,36.59,0,0,0,2.4-5.85h1.65c.85,1.59,1.71,3,2.58,4.36,9.65,14.73,20.34,13.68,22.52,13.28,13.54-1.49,22.54-8.45,28.48-17.64h102.71a17.93,17.93,0,0,1,17.91,17.91Zm-101.71,28.91a209.5,209.5,0,0,1-38.28,20.47c-37.16,15.25-74.28,19.19-101.83,10.8-24.64-7.49-39.53-22.33-48.27-35.29h194Q1088,1164.15,1085.14,1166.13ZM856.46,823.91a21.84,21.84,0,0,1,6.1-.91c9.83-.11,21.05,6.1,27.06,21.66C902.7,878.59,927,964.71,928.31,969.38c.38,2.6,3.71,25,8.26,38a2.83,2.83,0,0,0,.2.43c2.64,12.07,6,24.15,11,34.33h-68.3c-3-16.49-6.42-34.69-9.85-50-5.21-23.35-11.07-50.63-16.73-77-4.21-19.6-8.19-38.1-11.75-54.34C836.19,838.43,846.31,827,856.46,823.91Zm141.92,115h0a38.56,38.56,0,0,1,10.77-6.82h0c7-3,16.94-4.93,29.64-1.67,10.73,2.75,17.78,14,21.81,22.92,4.23,9.37,7.2,20.48,9.06,32.12,0,.3.08.61.11.9a3.48,3.48,0,0,0,.1.44c.09.58.17,1.17.26,1.76a2.45,2.45,0,0,0-.05.72v0c.05.46,3.29,31.68-7.47,52.84l0,.05c-.6,1.18-1.24,2.33-1.94,3.44a37.64,37.64,0,0,1-2.44,3.5,30.43,30.43,0,0,1-21.47,11.91,2.33,2.33,0,0,0-.46.08c-.09,0-8.12,1.43-16.13-12-.64-1.07-1.28-2.23-1.91-3.5-.55-1.08-1.09-2.24-1.63-3.49-.24-.56-.48-1.12-.72-1.72-.85-2.11-1.48-8.52-2.21-15.94-.18-1.77-.36-3.65-.56-5.61a177.44,177.44,0,0,0-4.19-25c-.83-3.46-1.47-5.68-1.59-6.1a2.83,2.83,0,0,0-.17-.4,2.12,2.12,0,0,0-.11-.21c-.59-3.58-1.21-7.29-1.78-10.54q-.42-2.4-.84-4.74c-3-16-5.89-32-6.05-32.88v0ZM1070,1042.09c.11-.24.21-.47.31-.71,0,.24-.07.47-.11.71Zm-14.39-225c2.68-5.67,6.14-9.46,9.7-10.92,7.19-2.95,12.45,4.34,14.94,9,7.29,13.52,34.49,145.35,47.86,213.16a2.29,2.29,0,0,0,.07.28c1.22,4.26,2.39,8.8,3.44,13.54h-52c-.39-3-.83-6.36-1.32-10a198.93,198.93,0,0,0,.25-26.91c-.37-6.57-1.06-13.14-2-19.53,0,0,0-.07,0-.1-2.94-24.71-10.16-70.51-18.91-104.35-.92-3.53-1.85-6.94-2.79-10.17-6.59-22.57-4.71-41.28.36-52.84C1055.31,817.78,1055.47,817.43,1055.64,817.08Zm-115.83,133a25.9,25.9,0,0,1,9.71-8.36h0a41.44,41.44,0,0,1,11-4.6c21.44-5.71,29.42.51,31.08,2.13.95,5,5.84,31.08,9.94,55.09l.35,0,.74,3.4c1.32,6.11,2.49,11.5,3.19,16.52.12.9.24,1.8.33,2.68s.17,1.6.25,2.38c.14,1.54.25,3.11.34,4.68.1,1.79.15,3.58.16,5.37a80.1,80.1,0,0,1-.38,8.41c-.15,1.48-.36,2.93-.62,4.35-.21,1.2-.46,2.36-.76,3.49s-.69,2.38-1.1,3.5a24.13,24.13,0,0,1-4.74,8.06c-3.33,3.6-7.75,5.4-13.45,5.52-.37,0-.71,0-1.09,0a31.51,31.51,0,0,1-8.56-1.29c-6.81-2.05-12.23-6.43-16.63-12.32-.83-1.11-1.63-2.28-2.39-3.5s-1.38-2.29-2-3.49c-6.55-12.15-10.33-28.09-13.39-43.31-.62-3.1-1.21-6.16-1.79-9.16-1.61-8.39-3.15-16.32-5-23.24l-.27-1-.09-.32c-.14-.53-.28-1-.42-1.54A36.76,36.76,0,0,1,939.81,950.07Z" transform="translate(-806.16 -778.25)"/><path class="cls-5" d="M918.36,1107.36h-.1c-6.59-.43-9.63-2.33-9.63-5.7,0-2.64,2.2-4.38,6.26-5a23,23,0,0,1,3.26-.22c5,0,9.19,1.16,12.89,4.65l7.19-8.45c-6-5.29-12.16-6.87-20.3-6.87a33.9,33.9,0,0,0-5.41.44c-8.24,1.36-16.57,6-16.57,15.83,0,11.84,11.73,15.44,21.56,16.17a32.33,32.33,0,0,1,5.63.73c3.31.81,4.73,2.29,4.73,4.77a4.67,4.67,0,0,1-.87,2.7c-1.54,2.25-5,3.61-8.54,3.54-5.81-.11-14.27-3.17-18-7.3l-6.34,9.2c7.61,7.93,15.86,9.3,24.1,9.3,6.59,0,11.72-1.55,15.41-4.07a15.5,15.5,0,0,0,7-13C940.66,1110.21,928.19,1108,918.36,1107.36Z" transform="translate(-806.16 -778.25)"/><path class="cls-5" d="M990.58,1091.74a25.87,25.87,0,0,0-2.81-1.87c-.47-.27-.94-.53-1.43-.77a28.71,28.71,0,0,0-12.86-2.88c-16.59,0-27,12.26-27,27.16s10.15,27.17,27.06,27.17,27.16-12.16,27.16-27.17a30.41,30.41,0,0,0-.54-5.69A26.25,26.25,0,0,0,990.58,1091.74Zm-17,37c-9.41,0-14.16-7.4-14.16-15.33s4.86-15.43,14.16-15.43c8.67,0,14.16,7.61,14.16,15.43a19.77,19.77,0,0,1-.19,2.68,17.79,17.79,0,0,1-.66,2.93A13.32,13.32,0,0,1,973.59,1128.71Z" transform="translate(-806.16 -778.25)"/><path class="cls-5" d="M1034.32,1128.6c-8,0-14.8-5.28-14.8-15.22a17,17,0,0,1,1.38-6.82,14.41,14.41,0,0,1,13.63-8.61,15.8,15.8,0,0,1,10.46,4.12l8.14-8.56a28,28,0,0,0-7-5.17,25.45,25.45,0,0,0-11.77-2.54,34.26,34.26,0,0,0-7.17.73c-8.86,1.89-16.05,7.43-19,16.71a33.05,33.05,0,0,0-1.5,10.14c0,18.5,12.58,27.59,27.7,27.59a26.83,26.83,0,0,0,20.08-8.25l-8.67-8.45A15.66,15.66,0,0,1,1034.32,1128.6Z" transform="translate(-806.16 -778.25)"/><path class="cls-5" d="M1071.64,1066.77a8.2,8.2,0,0,0-6.76-1.53,7.13,7.13,0,0,0-5.88,7.35,9.3,9.3,0,0,0,.07,1.07,7.46,7.46,0,0,0,.66,2.36,6.88,6.88,0,0,0,3.25,3.27c4.51,2.2,11.24,0,11.24-6.7v-.09A7.22,7.22,0,0,0,1071.64,1066.77Z" transform="translate(-806.16 -778.25)"/><polygon class="cls-5" points="254 317.16 254 361.13 266.9 361.13 266.9 321.33 266.9 308.81 254 308.81 254 317.16"/><path class="cls-5" d="M1126.76,1087.27l-.43,7.19c-3-5.18-9.61-8.45-16.59-8.45a33.15,33.15,0,0,0-7.76.84,23.91,23.91,0,0,0-16.34,12.46,30.49,30.49,0,0,0-3.06,14c0,18.28,11.41,27.79,26.84,27.69a23.09,23.09,0,0,0,6.62-1.18c4.25-1.39,8.37-4,10.29-8l.27,3.18.17,2.09.2,2.34h12.15v-52.11h-12.36Zm-15.86,41.86c-8.56,0-15.43-5.92-15.43-15.85s6.87-15.75,15.43-15.75C1131.2,1097.53,1131.2,1129.13,1110.9,1129.13Z" transform="translate(-806.16 -778.25)"/><rect class="cls-5" x="343.91" y="287.25" width="12.79" height="73.88"/><path class="cls-5" d="M896.52,1081.07l1.68-2.56H883.54a13.52,13.52,0,0,0-1-2.79l-.18-.39c-.2-.42-.41-.82-.62-1.2s-.52-.9-.8-1.34h10.27a1.55,1.55,0,0,0,.31,0,1.78,1.78,0,0,0,1.16-.58,2,2,0,0,0,.27-.35l.45-.69,1.84-2.85.76-1.16,1.17-1.78,1-1.55h-2.16l-11.85,0h-6.85l-18.38.06-8.79,0h-.56a1.9,1.9,0,0,0-1.71.93c-.43.69-.89,1.37-1.35,2.05l-3.94,5.93h4c1.48,0,2.92,0,4.35,0,.59,0,1.18,0,1.77,0h1.87a32.44,32.44,0,0,1,5.92.4,15.36,15.36,0,0,1,8.34,4,9.42,9.42,0,0,1,1.1,1.28h-20.5a1.93,1.93,0,0,0-1.74,1c-.45.7-.92,1.38-1.38,2.07l-4,6h29.14a11.29,11.29,0,0,1-1.06,3.74c-1.39,2.76-3.7,4.65-7.29,6A33,33,0,0,1,851.6,1099c-1.36,0-2.76-.06-4.31-.18H847a1.34,1.34,0,0,0-1,.39,1.47,1.47,0,0,0-.36,1.14c.07,1.93.1,3.86.14,5.8a2,2,0,0,0,.52,1.29l6.42,7.62,2.08,2.47,4.85,5.75,2.6,3.09q5.58,6.61,11.16,13.24a2,2,0,0,0,1.64.75h.06l4.82-.08,3.63-.06h.65a2.05,2.05,0,0,0,1.67-.62,2,2,0,0,0,.21-1.73,2.18,2.18,0,0,0-.58-1l-.11-.12-3.73-4.64-4.84-6-10-12.45-6.29-7.84c1-.1,1.9-.2,2.85-.36a28.58,28.58,0,0,0,11.69-4.41,22.35,22.35,0,0,0,3.34-2.79,19.51,19.51,0,0,0,4.06-6,21.07,21.07,0,0,0,1.24-3.92c0-.23.11-.45.15-.67l1,0,2.42,0,1.79,0,2.28,0a1.51,1.51,0,0,0,1.37-.69c1.1-1.7,2.21-3.4,3.35-5.14Zm-13.4-2.56h0l.11,0,0,.42,0,.51v0Z" transform="translate(-806.16 -778.25)"/></svg>