<?xml version="1.0" encoding="utf-8"?>
<!-- Generator: Adobe Illustrator 16.0.0, SVG Export Plug-In . SVG Version: 6.00 Build 0)  -->
<!DOCTYPE svg PUBLIC "-//W3C//DTD SVG 1.1//EN" "http://www.w3.org/Graphics/SVG/1.1/DTD/svg11.dtd">
<svg version="1.1" id="Layer_1" xmlns="http://www.w3.org/2000/svg" xmlns:xlink="http://www.w3.org/1999/xlink" x="0px" y="0px"
	 width="835.286px" height="1026.725px" viewBox="0 36.934 835.286 1026.725" enable-background="new 0 36.934 835.286 1026.725"
	 xml:space="preserve">
<path fill="none" d="M606.493,830.712c-2.91,0.063-5.783,0.094-8.617,0.094c-43.401,0-78.811-7.222-105.332-21.466
	c-0.008,0.003-0.02,0.008-0.027,0.01c26.521,14.238,61.923,21.457,105.314,21.457C600.68,830.807,603.567,830.774,606.493,830.712z"
	/>
<path fill="none" d="M478.783,920.724c-0.002,0.011-0.005,0.022-0.007,0.035c25.022,24.5,59.587,37.284,102.965,38.059
	C538.363,958.033,503.802,945.237,478.783,920.724z"/>
<path fill="none" d="M708.031,948.76c-3.106,15.848-5.559,28.367-29.075,42.271c-28.484,16.851-75.396,33.848-115.995,33.854
	c0.008,0,0.016,0,0.023,0c40.604,0,87.522-17.003,116.017-33.855c23.514-13.902,25.967-26.423,29.072-42.271
	c0.916-4.675,1.938-9.878,3.639-15.259c-0.016,0.006-0.032,0.012-0.049,0.018C709.965,938.894,708.948,944.09,708.031,948.76z"/>
<path fill="none" d="M730.12,890.012c-0.719,0.345-70.603,33.207-137.787,35.266c67.198-2.044,137.111-34.922,137.832-35.267
	c2.227-1.068,4.633-1.617,7.12-1.622c-0.004,0-0.007-0.001-0.011-0.001C734.775,888.388,732.36,888.938,730.12,890.012z"/>
<path fill="none" d="M751.19,842.159c0.354,1.188,7.727,26.798-6.238,48.109c0.011,0.006,0.024,0.009,0.035,0.015
	c13.976-21.314,6.601-46.938,6.249-48.124c-3.053-10.256,1.845-20.202,10.937-34.783c-0.019,0.005-0.036,0.009-0.055,0.013
	C753.036,821.965,748.141,831.909,751.19,842.159z"/>
<path fill="none" d="M419.296,571.995c0.198,31.786,13.533,63.845,35.972,87.128c-10.084,13.639-22.198,37.431-18.482,70.111
	c1.853,16.3,8.192,39.014,27.294,58.865c-3.24,2.755-6.257,5.894-8.938,9.322c-9.497,12.141-27.812,45.157,1.46,94.6
	c-12.272,16.305-13.21,36.586-10.568,53.883c0.015-0.001,0.028-0.002,0.042-0.004c-2.643-17.296-1.704-37.575,10.567-53.882
	c-29.271-49.443-10.958-82.458-1.461-94.6c2.685-3.43,5.698-6.568,8.939-9.321c-19.101-19.854-25.44-42.566-27.293-58.867
	c-3.716-32.682,8.397-56.472,18.482-70.108c-22.439-23.285-35.773-55.344-35.971-87.131c-0.003-0.313,0.015-0.622,0.017-0.933
	l-0.045,0.145C419.308,571.468,419.295,571.729,419.296,571.995z"/>
<path fill="none" d="M428.376,542.319l-0.037,0.114c2.123-3.112,4.611-6.096,7.479-8.941
	c28.308-28.086,90.128-35.762,125.866-37.818c-35.732,2.052-97.59,9.723-125.907,37.82
	C432.946,536.304,430.482,539.249,428.376,542.319z"/>
<path fill="none" d="M518.034,119.479c33.049,36.486,48.329,86.019,43.029,139.474c-3.122,31.346-6.893,57.19-9.922,77.958
	l-0.041,0.283c-6.82,46.715-10.578,72.448,3.538,91.335c8.907,11.919,23.215,18.505,47.833,22.024
	c10.303,1.474,21.785,2.688,32.892,3.863c62.591,6.654,140.481,14.934,160.069,71.88c10.772,31.293-1.131,54.582-13.73,79.239
	c-0.973,1.9-1.946,3.806-2.909,5.715c-66.02,31.191-123.775,49.891-172.259,55.811c48.492-5.913,106.262-24.613,172.301-55.814
	c0.963-1.91,1.935-3.815,2.909-5.716c12.597-24.654,24.5-47.944,13.729-79.239c-19.59-56.945-97.481-65.226-160.07-71.878
	c-11.104-1.175-22.587-2.391-32.891-3.863c-24.621-3.52-38.925-10.105-47.832-22.025c-14.116-18.888-10.359-44.621-3.539-91.336
	l0.041-0.282c3.03-20.767,6.801-46.61,9.922-77.957c5.3-53.456-9.981-102.989-43.029-139.475
	c-24.41-26.959-56.513-43.707-83.778-43.707c-1.195,0-2.375,0.034-3.536,0.1c1.148-0.065,2.314-0.098,3.495-0.098
	C461.521,75.771,493.623,92.518,518.034,119.479z"/>
<path fill="none" d="M587.604,528.683l0.117,0.001c0.596,0,1.184-0.03,1.761-0.087c-0.564,0.055-1.139,0.083-1.72,0.083
	l-0.117-0.001c-1.047-0.015-2.165-0.023-3.352-0.023c-10.826,0-23.749,0.606-37.203,1.948c13.441-1.338,26.348-1.944,37.164-1.944
	C585.438,528.659,586.558,528.667,587.604,528.683z"/>
<path fill="none" d="M579.262,702.58c-1.678,0.032-3.347,0.048-5.005,0.048c-36.726,0-68.005-7.686-93.012-22.846
	c-0.005,0.006-0.01,0.013-0.013,0.019c25.001,15.151,56.271,22.828,92.981,22.828C575.887,702.629,577.569,702.612,579.262,702.58z"
	/>
<path fill="none" d="M786.902,701.262c-15.126-14.12-22.354-29.514-21.861-46.74c-0.015,0.006-0.03,0.013-0.044,0.019
	c-0.486,17.221,6.741,32.61,21.859,46.725c15.581,14.552,15.287,34.738-1.245,66.865c0.013,0,0.027,0,0.041,0.001
	C802.185,736.003,802.481,715.815,786.902,701.262z"/>
<path fill="none" d="M631.965,796.109c42.271-3.31,91.846-12.512,147.921-27.48c0.937-0.25,1.898-0.417,2.864-0.5
	c-0.981,0.082-1.958,0.248-2.908,0.503C723.788,783.595,674.226,792.797,631.965,796.109z"/>
<path fill="none" d="M580.267,702.552c1.337-0.029,2.676-0.063,4.026-0.113C582.943,702.488,581.604,702.522,580.267,702.552z"/>
<path fill="#004075" d="M809.909,676.623c-16.372-15.293-14.27-24.217,1.848-55.74c13.099-25.612,31.04-60.69,15.606-105.563
	c-11.876-34.507-38.089-58.698-80.142-73.958c-34.962-12.688-75.598-17.005-108.257-20.476l-0.314-0.034
	c-11.288-1.203-21.95-2.339-31.368-3.685c-14.106-2.012-22.717-4.985-25.594-8.831c-5.728-7.662-2.148-32.201,2.807-66.162
	l0.065-0.452c3.078-21.094,6.909-47.348,10.09-79.436c6.271-63.046-12.047-121.804-51.581-165.447
	c-31.073-34.307-71.733-54.789-108.77-54.789c-7.507,0-14.772,0.868-21.599,2.58c-25.412,6.378-44.479,14.243-54.943,31.896
	c-15.326,25.871-6.727,60.15,14.046,142.965c1.302,5.192,2.652,10.576,4.049,16.162c3.171,12.689,5.218,25.168,6.154,37.406
	c0.061,19.249-7.008,53.449-50.769,84.651c-8.878,6.33-18.919,12.754-29.451,19.696c-41.272,27.209-88.052,58.048-109.466,89.174
	c-24.482,35.587-70.209,53.13-139.793,53.632l-12.12,0.087l-5.022,11.031c-0.746,1.64-18.393,40.845-27.784,100.05
	C-1.079,686.12-4.024,769.163,31.25,853.937l3.52,8.461l122.161,34.758c6.392,9.481,25.922,33.969,68.618,55.293
	c45.363,22.657,101.056,34.045,166.181,34.042c15.362,0,31.266-0.647,47.669-1.916c12.452,9.314,30.401,27.569,50.418,48.351
	c16.423,17.041,41.04,25.684,73.17,25.684c41.302,0,93.577-15.133,133.181-38.554c36.517-21.588,41.417-46.558,45.002-64.811
	c2.397-12.249,3.717-18.996,12.323-25.516c16.432-12.442,27.385-29.835,31.674-50.302c3.989-19.027,1.3-35.338-0.652-43.342
	c1.964-4.159,7.848-13.386,11.2-18.645l0.114-0.178c10.971-17.196,25.996-40.748,32.761-65.351
	C836.985,721.368,830.701,696.035,809.909,676.623z M588.119,494.963c-0.346-0.006-1.266-0.019-2.682-0.019
	c-4.335,0-12.82,0.103-23.753,0.73c-35.738,2.056-97.559,9.732-125.866,37.818c-2.867,2.845-5.355,5.83-7.479,8.941l-8.983,28.625
	c-0.002,0.311-0.02,0.619-0.017,0.933c0.197,31.787,13.531,63.846,35.971,87.131c-10.085,13.637-22.198,37.427-18.482,70.108
	c1.853,16.301,8.192,39.014,27.293,58.867c-3.241,2.753-6.255,5.892-8.939,9.321c-9.497,12.142-27.811,45.156,1.461,94.6
	c-12.271,16.307-13.21,36.586-10.567,53.882c-0.014,0.002-0.027,0.003-0.042,0.004c-1.452,0.133-2.901,0.261-4.347,0.383
	c-0.717,0.061-1.437,0.127-2.15,0.185c-0.014,0.001-0.026,0.002-0.04,0.003c-19.659,1.594-38.605,2.194-56.754,1.832
	c-54.167-1.079-101.167-10.8-138.258-28.858c-41.113-20.015-56-43.331-56.626-44.345c-5.946-10.981-16.817-15.805-26.442-16.151
	l-98.473-28.018C34.826,757.716,37.477,686.289,44.918,638.52c5.773-37.06,15.213-65.886,20.701-80.622
	c37.125-1.412,69.028-7.833,94.976-19.128c26.668-11.609,47.869-28.656,63.011-50.666c17.214-25.022,62.607-54.948,99.082-78.993
	c9.617-6.34,18.75-12.362,27.256-18.181c0.964-0.66,1.926-1.318,2.873-1.972c52.665-36.37,64.628-78.569,63.696-111.253l0.009,0.008
	c-0.005-0.08-0.011-0.16-0.017-0.239c-0.012-0.413-0.027-0.823-0.044-1.233c-0.205-5.046-0.711-9.855-1.416-14.371
	c-0.069-0.442-0.139-0.884-0.212-1.321l-0.006,0c-1.377-10.434-3.446-21.492-6.349-33.231c-1.847-7.468-3.62-14.59-5.313-21.38
	c-15.309-61.433-24.55-98.515-16.434-112.216c3.857-6.515,13.746-11.261,34.131-16.38c3.111-0.781,6.428-1.273,9.899-1.469
	c1.161-0.066,2.341-0.1,3.536-0.1c27.266,0,59.368,16.748,83.778,43.707c33.048,36.486,48.329,86.019,43.029,139.475
	c-3.121,31.346-6.892,57.19-9.922,77.957l-0.041,0.282c-6.82,46.715-10.577,72.448,3.539,91.336
	c8.907,11.92,23.211,18.505,47.832,22.025c10.304,1.473,21.786,2.688,32.891,3.863c62.589,6.653,140.48,14.934,160.07,71.878
	c10.771,31.295-1.133,54.585-13.729,79.239c-0.975,1.9-1.946,3.806-2.909,5.716c-66.039,31.201-123.809,49.901-172.301,55.814
	c-11.197,1.367-21.902,2.054-32.098,2.054c-31.011,0-56.892-6.354-76.927-18.887c-32.569-20.366-44.337-53.875-44.491-78.442
	c-0.033-5.354,2.033-9.913,6.5-14.351c15.29-15.18,53.18-23.407,87.572-26.833c13.454-1.341,26.377-1.948,37.203-1.948
	c1.187,0,2.305,0.009,3.352,0.023l0.117,0.001c0.581,0,1.155-0.029,1.72-0.083c8.559-0.847,15.11-7.813,15.222-16.539
	C604.836,502.767,597.385,495.098,588.119,494.963z M708.073,948.759c-3.105,15.848-5.559,28.368-29.072,42.271
	c-28.494,16.853-75.413,33.855-116.017,33.855c-0.008,0-0.016,0-0.023,0c-0.006,0-0.013,0-0.019,0
	c-15.552,0-36.654-2.662-48.881-15.353c-6.487-6.737-12.021-12.42-16.879-17.337c-9.377-18.454-22.848-52.67-18.441-71.471
	c0.012,0.011,0.024,0.021,0.035,0.034c0.002-0.013,0.005-0.024,0.007-0.035c25.02,24.514,59.58,37.31,102.958,38.094
	c1.399,0.024,2.807,0.037,4.224,0.037c47.054,0,94.124-13.685,125.704-25.355c-0.002,0.006-0.004,0.013-0.006,0.019
	c0.017-0.006,0.033-0.012,0.049-0.018C710.01,938.881,708.989,944.084,708.073,948.759z M751.236,842.159
	c0.352,1.187,7.727,26.81-6.249,48.124c-0.011-0.006-0.024-0.009-0.035-0.015c-0.003,0.004-0.007,0.011-0.011,0.017
	c-2.326-1.222-4.947-1.896-7.656-1.896c-2.487,0.005-4.894,0.554-7.12,1.622c-0.721,0.345-70.634,33.223-137.832,35.267
	c-2.17,0.066-4.336,0.101-6.497,0.101c-43.475,0.001-75.297-13.744-94.593-40.858c-26.706-37.537-15.887-59.133-10-66.668
	c4.199-5.364,8.973-7.819,11.257-8.51c0.006,0.002,0.012,0.006,0.017,0.008c0.008-0.002,0.02-0.007,0.027-0.01
	c26.521,14.244,61.931,21.466,105.332,21.466c2.834,0,5.707-0.031,8.617-0.094c43.703-0.93,95.937-8.76,155.634-23.336
	c-0.002,0.005-0.005,0.009-0.009,0.013c0.019-0.004,0.036-0.008,0.055-0.013C753.081,821.957,748.183,831.903,751.236,842.159z
	 M785.652,768.131c-0.014-0.001-0.028-0.001-0.041-0.001c-0.001,0.001-0.001,0.002-0.002,0.005
	c-0.945-0.085-1.904-0.086-2.858-0.006c-0.966,0.083-1.928,0.25-2.864,0.5c-56.075,14.969-105.65,24.171-147.921,27.48
	c-11.85,0.93-23.124,1.396-33.808,1.396c-43.429,0-76.496-7.532-98.285-22.387c-17.628-12.018-27.772-28.715-30.151-49.63
	c-2.438-21.442,5.367-37.072,11.481-45.704c0.01,0.006,0.021,0.011,0.03,0.017c0.003-0.006,0.008-0.013,0.013-0.019
	c25.007,15.16,56.286,22.846,93.012,22.846c1.658,0,3.327-0.016,5.005-0.048c0.332-0.007,0.671-0.021,1.005-0.028
	c1.337-0.029,2.676-0.063,4.026-0.113c51.026-1.894,111.705-17.982,180.703-47.914c0,0.005,0,0.011,0,0.016
	c0.014-0.006,0.029-0.013,0.044-0.019c-0.493,17.227,6.735,32.62,21.861,46.74C802.481,715.815,802.185,736.003,785.652,768.131z"/>
</svg>
