<?xml version="1.0" encoding="utf-8"?>
<!-- Generator: Adobe Illustrator 16.0.0, SVG Export Plug-In . SVG Version: 6.00 Build 0)  -->
<!DOCTYPE svg PUBLIC "-//W3C//DTD SVG 1.1//EN" "http://www.w3.org/Graphics/SVG/1.1/DTD/svg11.dtd">
<svg version="1.1" id="Layer_1" xmlns="http://www.w3.org/2000/svg" xmlns:xlink="http://www.w3.org/1999/xlink" x="0px" y="0px"
	 width="835.286px" height="1100.659px" viewBox="0 0 835.286 1100.659" enable-background="new 0 0 835.286 1100.659"
	 xml:space="preserve">
<path fill="#CBCDCF" d="M799.076,620.501C765.897,452.193,698.373,125.019,680.279,91.465
	c-6.172-11.444-19.218-29.526-37.063-22.203c-8.807,3.612-17.395,12.957-24.045,26.955c-0.305,1.436-0.594,2.902-0.861,4.404
	c-0.141-0.569-0.274-1.105-0.403-1.624c-12.571,28.703-17.224,75.135-0.88,131.152c24.784,84.937,45.795,216.51,53.869,284.222
	c0.003,0.027,0.002,0.053,0.006,0.08c11.701,75.582,6.205,161.436-17.593,207.999c-18.103,35.425-57.493,55.287-93.681,47.2
	c-19.811-4.42-35.291-16.44-45.098-34.15c-2.463,6.829-5.947,13.58-10.832,19.662c-10.963,13.646-26.744,21.334-46.914,22.853
	c4.484,26.022,3.864,55.316-9.619,82.421c-1.461,2.949-4.432,4.656-7.515,4.656c-1.254,0-2.528-0.282-3.726-0.883
	c-4.149-2.063-5.836-7.094-3.773-11.24c30.947-62.23-18.094-142.703-18.593-143.512c-2.259-3.647-1.397-8.422,1.993-11.053
	c1.07-0.828,106.47-83.919,67.631-175.231c-4.403-10.346-10.465-16.301-18.535-18.208c-30.769-7.312-86.468,39.95-127.084,74.443
	l-9.721,8.238c-53.85,45.468-124.898,185.626-126.958,189.713c-18.653,38.585-16.932,90.996,4.604,140.205
	c15.145,34.612,53.363,96.573,139.137,122.678c68.386,20.81,160.499,11.048,252.718-26.819
	c89.973-36.936,163.273-94.775,196.083-154.72c40.016-73.119,25.251-169.521,5.816-237.52
	C799.178,620.958,799.125,620.73,799.076,620.501z"/>
<path fill="#CBCDCF" d="M494.924,625.463c-18.487,40.341-50.368,70.346-63.43,81.538c5.379,9.832,15.33,29.956,21.75,54.671
	c0.609-0.188,1.246-0.311,1.903-0.355c15.513-1.095,27.432-6.682,35.429-16.599c11.58-14.365,13.021-34.849,12.768-46.42
	c-0.33-3.031-0.546-6.138-0.661-9.31L494.924,625.463z"/>
<path fill="#CBCDCF" d="M124.825,113.309c-25.193,7.576-50.301,36.054-38.149,91.361c8.839,40.261,18.695,86.149,29.126,134.738
	c14.067,65.515,28.616,133.26,41.568,191.238c16.211,72.622,32.818,171.144,40.244,216.729
	c23.044-43.054,75.452-135.428,119.409-172.548l6.845-5.802c-0.071-0.167-0.159-0.322-0.22-0.496
	c-11.302-32.276-19.582-87.773-20.52-94.213c-3.443-12.234-63.595-225.434-96.022-309.508
	C189.004,117.863,151.75,105.217,124.825,113.309z"/>
<path fill="#CBCDCF" d="M319.708,471.748c0.67,4.594,8.063,54.174,17.917,85.62c43.632-36.825,94.832-77.306,130.887-68.726
	c3.248,0.769,6.299,1.909,9.157,3.403c-3.465-34.974-14.935-82.51-17.365-92.344c-3.747-3.79-23.404-19.792-77.263-5.442
	C318.244,411.533,319.469,466.857,319.708,471.748z"/>
<path fill="#CBCDCF" d="M494.316,508.204c1.569,2.569,3.006,5.364,4.298,8.401c10.771,25.321,12.162,49.726,8.069,72.201
	c0.542,0.943,0.907,2.01,1.047,3.161l11.621,95.162c0.12,0.827,0.629,4.685,0.775,10.396c3.533,30.245,18.939,50.35,43.156,55.753
	c28.841,6.441,60.418-9.741,75.094-38.459c20.35-39.821,27.44-122.431,16.163-197.068c-0.135-0.451-0.242-0.914-0.3-1.396
	c-0.093-0.78-0.189-1.577-0.286-2.373c-4.616-28.845-12.004-56.363-22.476-79.586c-9.995-22.175-27.506-50.043-54.137-56.872
	c-55.224-14.178-90.023,11.856-100.07,20.916c3.992,16.342,16.734,70.831,18.055,105.461
	C495.385,505.458,495.009,506.927,494.316,508.204z"/>
<path fill="#CBCDCF" d="M314.732,314.861c1.274,6.144,6.682,10.366,12.719,10.366c0.874,0,1.76-0.09,2.65-0.273
	c7.03-1.458,11.551-8.336,10.093-15.37c-1.658-8.001-41.461-196.862-116.583-274.725c-4.991-5.175-13.217-5.318-18.384-0.331
	s-5.314,13.218-0.331,18.384C274.794,125.362,314.34,312.974,314.732,314.861z"/>
<path fill="#CBCDCF" d="M18.367,90.084c2.308,1.679,4.983,2.483,7.63,2.483c4.023,0,7.985-1.858,10.53-5.358
	c14.749-20.3,53.396-54.912,94.302-61.361c7.091-1.115,11.935-7.772,10.815-14.867c-1.119-7.091-7.785-11.955-14.867-10.815
	c-49.01,7.728-93.403,47.146-111.285,71.76C11.269,77.733,12.56,85.866,18.367,90.084z"/>
<path fill="#CBCDCF" d="M292.341,1075.302c-162.174-53.389-155.834-214.01-155.479-220.88c0.38-7.16-5.11-13.282-12.274-13.671
	c-7.274-0.498-13.303,5.098-13.691,12.271c-0.106,1.915-2.332,47.502,17.747,100.771c18.65,49.476,60.781,115.007,155.569,146.212
	c1.348,0.44,2.72,0.653,4.068,0.653c5.461,0,10.546-3.468,12.347-8.941C302.871,1084.901,299.162,1077.548,292.341,1075.302z"/>
<path fill="#CBCDCF" d="M25.507,293.34c-1.969-6.907-9.182-10.894-16.072-8.934c-6.902,1.974-10.901,9.166-8.933,16.073
	c0.612,2.144,61.521,215.953,80.844,323.276c1.131,6.29,6.608,10.701,12.78,10.701c0.768,0,1.54-0.069,2.32-0.208
	c7.066-1.274,11.763-8.034,10.493-15.101C87.383,510.547,26.124,295.5,25.507,293.34z"/>
<path fill="#004075" d="M835.28,734.883c-1.435-42.33-10.022-83.64-19.813-117.968c-0.501-2.538-1.944-9.845-4.15-20.926
	c-19.033-95.597-95.051-473.131-116.275-512.485c-14.823-27.5-36.585-38.635-58.188-29.759
	c-38.129,15.635-62.709,89.323-35.928,181.101c14.665,50.259,28.006,117.153,38.071,177.165
	c-15.568-27.885-34.855-44.93-57.488-50.734c-60.025-15.402-99.073,10.574-113.548,22.991c-11.204-8.459-37.365-20.042-89.242-6.217
	c-41.788,11.143-60.597,36.393-69.023,58.081c-19.005-66.2-61.402-211.146-86.938-277.359
	c-21.945-56.904-68.651-71.792-102.765-61.524c-34.596,10.403-63.379,48.769-49.704,111.021
	c8.835,40.22,18.687,86.092,29.114,134.66c14.075,65.548,28.628,133.325,41.596,191.374c19.979,89.486,40.59,218.715,43.659,238.182
	c-19.549,42.67-17.572,99.166,5.465,151.803c27.742,63.395,82.273,111.506,149.618,131.997
	c24.936,7.594,52.555,11.135,81.624,11.131c144.627,0,324.939-87.682,386.773-200.658
	C830.184,826.476,836.813,780.097,835.28,734.883z M619.172,96.217c6.65-13.998,15.238-23.342,24.045-26.955
	c17.845-7.323,30.891,10.759,37.063,22.203c18.094,33.554,85.618,360.728,118.797,529.036c0.049,0.229,0.102,0.457,0.167,0.682
	c19.435,67.998,34.199,164.4-5.816,237.52c-32.81,59.944-106.11,117.784-196.083,154.72
	c-92.219,37.867-184.332,47.629-252.718,26.819c-85.773-26.104-123.992-88.065-139.137-122.678
	c-21.536-49.209-23.257-101.62-4.604-140.205c2.059-4.087,73.108-144.245,126.958-189.713l9.721-8.238
	c40.616-34.493,96.316-81.755,127.084-74.443c8.07,1.907,14.132,7.862,18.535,18.208c38.839,91.313-66.561,174.403-67.631,175.231
	c-3.39,2.631-4.252,7.405-1.993,11.053c0.499,0.809,49.54,81.281,18.593,143.512c-2.063,4.146-0.376,9.178,3.773,11.24
	c1.197,0.601,2.472,0.883,3.726,0.883c3.083,0,6.054-1.707,7.515-4.656c13.483-27.104,14.104-56.398,9.619-82.421
	c20.17-1.519,35.951-9.206,46.914-22.853c4.885-6.082,8.369-12.833,10.832-19.662c9.807,17.71,25.287,29.73,45.098,34.15
	c36.188,8.087,75.578-11.775,93.681-47.2c23.798-46.563,29.294-132.417,17.593-207.999c-0.004-0.027-0.003-0.053-0.006-0.08
	c-8.074-67.712-29.085-199.285-53.869-284.222c-16.344-56.017-11.691-102.449,0.88-131.152
	C618.321,98.053,618.741,97.123,619.172,96.217z M115.802,339.409c-10.432-48.589-20.288-94.478-29.126-134.738
	c-12.151-55.308,12.956-83.785,38.149-91.361c26.924-8.092,64.179,4.554,82.281,51.501c32.427,84.074,92.579,297.273,96.022,309.508
	c0.938,6.44,9.218,61.937,20.52,94.213c0.061,0.174,0.148,0.329,0.22,0.496l-6.845,5.802
	c-43.957,37.12-96.365,129.494-119.409,172.548c-7.426-45.586-24.033-144.107-40.244-216.729
	C144.418,472.668,129.869,404.923,115.802,339.409z M460.304,399.701c2.431,9.834,13.9,57.371,17.365,92.344
	c-2.858-1.494-5.909-2.634-9.157-3.403c-36.056-8.58-87.255,31.9-130.887,68.726c-9.853-31.446-17.246-81.026-17.917-85.62
	c-0.239-4.891-1.464-60.215,63.333-77.489C436.899,379.909,456.557,395.911,460.304,399.701z M631.479,434.397
	c10.472,23.223,17.859,50.741,22.476,79.586c0.097,0.796,0.193,1.593,0.286,2.373c0.058,0.482,0.165,0.945,0.3,1.396
	c11.277,74.637,4.187,157.247-16.163,197.068c-14.676,28.718-46.253,44.9-75.094,38.459c-24.217-5.403-39.623-25.508-43.156-55.753
	c-0.146-5.712-0.655-9.569-0.775-10.396l-11.621-95.162c-0.14-1.151-0.505-2.218-1.047-3.161c4.093-22.476,2.701-46.88-8.069-72.201
	c-1.292-3.037-2.729-5.832-4.298-8.401c0.692-1.277,1.068-2.746,1.01-4.302c-1.32-34.63-14.063-89.119-18.055-105.461
	c10.047-9.06,44.847-35.094,100.07-20.916C603.973,384.354,621.483,412.222,631.479,434.397z M490.576,744.718
	c-7.997,9.917-19.916,15.504-35.429,16.599c-0.657,0.045-1.294,0.168-1.903,0.355c-6.42-24.715-16.371-44.839-21.75-54.671
	c13.062-11.192,44.942-41.197,63.43-81.538l7.759,63.525c0.115,3.172,0.331,6.278,0.661,9.31
	C503.598,709.87,502.156,730.353,490.576,744.718z"/>
</svg>
