<?xml version="1.0" encoding="utf-8"?>
<!-- Generator: Adobe Illustrator 25.0.1, SVG Export Plug-In . SVG Version: 6.00 Build 0)  -->
<svg version="1.1" id="Layer_1" xmlns="http://www.w3.org/2000/svg" xmlns:xlink="http://www.w3.org/1999/xlink" x="0px" y="0px"
	 viewBox="0 0 2000 2000" style="enable-background:new 0 0 2000 2000;" xml:space="preserve">

<g>
	<path fill="#009ECE" d="M1310.96,1182.91c-0.46,1.06-0.91,2.12-1.38,3.17h0.9C1310.64,1185.02,1310.81,1183.97,1310.96,1182.91z"/>
	<path fill="#009ECE" d="M992.85,729.76c0,0,0.01,0.08,0.03,0.18C992.87,729.88,992.86,729.82,992.85,729.76z"/>
	<path fill="#009ECE" d="M1566.78,1126.21c-0.11-0.41-0.21-0.81-0.29-1.22c-59.1-299.8-179.38-882.59-211.61-942.36
		c-11-20.38-34.23-52.58-66.03-39.54c-15.73,6.45-31.04,23.21-42.9,48.25c-0.52,2.46-1,5.01-1.46,7.59
		c-0.24-0.98-0.48-1.96-0.71-2.85c-22.39,51.13-30.69,133.82-1.57,233.6c4.17,14.3,8.28,29.34,12.32,44.95
		c38.69,149.62,70.61,352.1,83.64,461.32c0.02,0.15,0,0.29,0.01,0.43c4.36,28.26,7.39,57.29,9.04,86.34
		c2.29,40.42,1.95,80.79-1.1,118.97c2.15,16.27,4.11,31.19,5.83,44.39h68.61h19.75H1582
		C1577.35,1165.13,1572.17,1145.06,1566.78,1126.21z"/>
	<path fill="#009ECE" d="M992.85,729.75L992.85,729.75c0.01,0,0.02-0.01,0.03-0.02L992.85,729.75z"/>
	<path fill="#009ECE" d="M733.93,779.3c-6.21,9.75-10.77,19.23-14.1,27.94C723.16,798.53,727.71,789.05,733.93,779.3
		c-11.85,16.77-19.89,36.89-24.8,59.22c0.6,2.19,1.21,4.46,1.85,6.78c0.01-0.15,0.02-0.31,0.04-0.47c-0.01,0.16-0.03,0.32-0.04,0.47
		c0.13,0.49,0.26,0.94,0.39,1.44c0.42,1.52,0.81,3.11,1.22,4.65c8.08,30.57,14.86,65.63,22,102.72c2.56,13.25,5.17,26.81,7.92,40.5
		c13.5,67.27,30.23,137.74,59.17,191.48c2.86,5.31,5.84,10.47,8.95,15.44c3.36,5.38,6.88,10.53,10.55,15.46
		c19.46,26.05,43.43,45.4,73.54,54.46c11.67,3.51,24.23,5.5,37.84,5.7c1.64,0.03,3.18-0.08,4.78-0.1c-1.73-5.86-1.73-5.87,0,0
		c25.21-0.53,44.73-8.52,59.47-24.43c9.04-9.77,15.85-21.92,20.94-35.62c1.85-4.96,3.49-10.11,4.89-15.45
		c1.3-5,2.4-10.16,3.36-15.44c1.13-6.27,2.06-12.68,2.74-19.25c1.24-12.08,1.73-24.58,1.67-37.19c-0.03-7.9-0.28-15.82-0.71-23.74
		c-0.38-6.93-0.87-13.84-1.5-20.67c-0.35-3.45-0.72-6.97-1.1-10.53c-0.41-3.89-0.92-7.85-1.48-11.85c-3.09-22.16-8.24-46.01-14.1-73
		c-1.06-4.9-2.15-9.96-3.24-15.03c0,0-41.32-221.14-45.53-243.41c-7.3-7.2-42.61-34.67-137.36-9.42
		c-19.31,5.15-35.29,12.19-48.58,20.34c0,0,0.01-0.04,0.01-0.04C758.99,751.2,744.85,763.83,733.93,779.3z"/>
	<path fill="#009ECE" d="M543.6,1716.66c38.62,57.28,104.47,122.87,213.38,156.02c121.82,37.08,285.9,19.66,450.17-47.77
		c61.61-25.29,118.8-56.1,169.23-90.5c8.53-5.81,16.85-11.73,24.97-17.75H817.49H543.6z"/>
	<path fill="#009ECE" d="M466.94,1186.08h134.11c-6.8-18.73-6.8-18.73,0,0h167.84c-22.08-44.99-36.74-98.42-48.44-151.75
		c-0.31-0.61-0.72-1.21-0.84-1.91c-10.48-58.92-34.88-156.29-36.54-167.78c-5.81-20.66-113.21-401.35-171.05-551.36
		c-26.53-68.8-76.14-96.23-119.61-95.76c-8.86,18.28-8.87,18.28,0,0c-9.36,0.1-18.45,1.47-26.95,4.03
		c-44.87,13.5-89.61,64.22-67.96,162.75c15.76,71.77,33.33,153.59,51.93,240.2c25.04,116.63,50.93,237.23,73.99,340.46
		C438.56,1032.72,453.88,1113.17,466.94,1186.08z"/>
	<path fill="#009ECE" d="M703.73,580.56c2.27,10.94,11.91,18.47,22.66,18.47c1.56,0,3.13-0.16,4.72-0.49
		c12.53-2.59,20.57-14.85,17.98-27.37c-2.95-14.26-73.86-350.67-207.67-489.36c-8.89-9.2-23.55-9.47-32.75-0.59
		c-9.2,8.89-9.47,23.55-0.59,32.75C632.58,243.01,703.04,577.2,703.73,580.56z"/>
	<path fill="#009ECE" d="M175.82,180.17c4.11,2.99,8.88,4.43,13.59,4.43c7.16,0,14.23-3.31,18.75-9.54
		c26.28-36.17,95.13-97.81,167.98-109.3c12.63-1.99,21.26-13.85,19.27-26.48C393.42,26.64,381.56,18,368.93,20
		c-87.29,13.75-166.37,83.97-198.23,127.81C163.18,158.17,165.47,172.65,175.82,180.17z"/>
	<path fill="#009ECE" d="M663.85,1935.13c-139.18-45.82-208.67-135.97-243.26-218.47h-49.08c0.25,0.68,0.48,1.35,0.74,2.02
		c33.22,88.13,108.26,204.85,277.1,260.44c2.41,0.8,4.84,1.17,7.24,1.17c9.73,0,18.78-6.17,22-15.92
		C682.6,1952.22,675.99,1939.12,663.85,1935.13z"/>
	<path fill="#009ECE" d="M188.54,542.23c-3.52-12.3-16.33-19.42-28.63-15.91c-12.3,3.51-19.42,16.33-15.91,28.63
		c1.09,3.82,109.59,384.68,144.01,575.84c2.02,11.2,11.78,19.06,22.76,19.06c1.37,0,2.75-0.12,4.13-0.36
		c12.59-2.27,20.96-14.31,18.7-26.9C298.76,929.14,189.63,546.08,188.54,542.23z"/>
	<path fill="#009ECE" d="M992.89,729.94c0.7,3.8,13.68,74.5,26.75,145.37c0.03,0.2,0.07,0.4,0.11,0.6c0,0,0,0.01,0,0.01
		c1.2,6.69,2.41,13.46,3.62,20.31c2.5,14.4,5.25,30.8,7.87,46.61c0.17,0.3,0.32,0.6,0.47,0.91c0,0,0,0.01,0,0.01
		c0.29,0.58,0.57,1.16,0.75,1.78c0.54,1.84,3.38,11.66,7.05,26.95c6.12,25.55,14.58,66.37,18.49,110.71
		c0.89,8.67,1.7,16.96,2.47,24.8c3.25,32.81,6.04,61.14,9.8,70.47c1.06,2.62,2.12,5.13,3.19,7.6c2.37,5.5,4.77,10.63,7.18,15.44
		c2.8,5.58,5.61,10.74,8.43,15.45c35.45,59.35,70.93,53.08,71.32,52.99c0.79-0.2,1.22-0.25,2.04-0.34
		c42.36-4.52,72.91-24.62,94.91-52.66c3.86-4.92,7.46-10.08,10.81-15.45c3.06-4.91,5.91-10,8.57-15.22
		c0.04-0.07,0.07-0.14,0.11-0.22c47.57-93.55,33.27-231.56,33.05-233.59c0-0.03,0-0.08,0-0.11c-0.11-1.09-0.01-2.14,0.19-3.16
		c-0.37-2.6-0.73-5.21-1.13-7.8c-0.16-0.63-0.34-1.25-0.43-1.92c-0.16-1.29-0.32-2.67-0.48-3.98
		c-8.22-51.47-21.38-100.58-40.05-142.01c-17.81-39.5-49.01-89.14-96.45-101.31c-56.14-14.4-100.13-5.77-131,7.39c0,0.01,0,0.02,0,0
		l-0.01,0c-23.99,10.22-40.02,23.14-47.62,30.16c-0.01,0.01-0.02,0.02-0.03,0.02C992.85,729.76,992.87,729.83,992.89,729.94z"/>
</g>
<g>
	<path fill="#004075" d="M1746.84,1186.08h-130.08h-4.22c-5.08-23.67-10.84-46.33-16.87-67.47c-0.9-4.52-3.46-17.53-7.39-37.26
		c-33.9-170.25-169.32-842.79-207.12-912.9c-26.41-48.98-65.17-68.8-103.65-53.01c-67.92,27.85-111.7,159.11-64,322.6
		c26.13,89.56,49.9,208.77,67.83,315.7c-27.74-49.71-62.08-80.15-102.42-90.5c-106.92-27.43-176.48,18.85-202.27,40.95
		c-19.96-15.07-66.56-35.7-158.97-11.08c-71.82,19.15-105.49,61.68-121.25,99.36c-0.12-0.44-0.27-0.95-0.38-1.37
		c-1.49-5.33-2.76-9.85-4.12-13.54c-0.04-0.18-0.07-0.34-0.1-0.46l-0.08,0.01c-1.43-3.74-3-6.52-5.06-8.42
		C650.06,641.81,582.07,411.9,539.89,302.53c-39.09-101.36-122.29-127.88-183.04-109.59c-61.63,18.53-112.9,86.87-88.54,197.77
		c15.75,71.69,33.31,153.47,51.9,240.07c25.06,116.68,50.97,237.34,74.05,340.69c14.67,65.72,29.54,143.48,42.32,214.62h-132.4
		c-60.68,0-110.06,49.37-110.06,110.06v310.48c0,60.68,49.38,110.05,110.06,110.05h67.34h49.08h87.53
		c53.76,87.82,138.81,153.75,240.15,184.6c44.41,13.52,93.61,19.84,145.39,19.84c187.02-0.01,407.51-82.33,556.48-204.43h2.36
		l238.67,200.88v-200.88h55.67c60.69,0,110.06-49.37,110.06-110.05v-310.48C1856.9,1235.44,1807.53,1186.08,1746.84,1186.08z
		 M1254.53,474.63c-4.04-15.62-8.15-30.66-12.32-44.95c-29.11-99.79-20.82-182.47,1.58-233.6c0.71-1.61,1.43-3.18,2.17-4.74
		c11.86-25.04,27.17-41.81,42.9-48.26c31.8-13.04,55.03,19.16,66.03,39.55c32.23,59.77,152.51,642.55,211.61,942.36
		c0.09,0.41,0.18,0.82,0.29,1.22c5.39,18.84,10.57,38.92,15.22,59.87h-141.7h-19.75h-68.61c-1.73-13.2-3.69-28.12-5.84-44.39
		c3.06-38.17,3.4-78.55,1.11-118.97c-1.65-29.05-4.68-58.08-9.04-86.34c-0.01-0.15,0.01-0.29-0.01-0.43
		C1325.14,826.72,1293.22,624.24,1254.53,474.63z M992.85,729.75l0.03-0.01c7.6-7.01,23.64-19.93,47.62-30.15l0.01-0.01v0
		c30.87-13.15,74.85-21.79,131-7.4c47.44,12.17,78.63,61.81,96.45,101.31c18.68,41.43,31.83,90.55,40.05,142.01
		c0.16,1.32,0.33,2.7,0.48,3.99c0.08,0.67,0.27,1.28,0.42,1.91c0.4,2.59,0.76,5.2,1.14,7.8c-0.2,1.03-0.29,2.08-0.19,3.16
		c0,0.04,0,0.08,0,0.11c0.22,2.04,14.52,140.05-33.05,233.6c-0.04,0.07-0.07,0.15-0.11,0.22c-2.66,5.22-5.51,10.31-8.57,15.22
		c-3.35,5.37-6.95,10.53-10.81,15.45c-22,28.04-52.55,48.14-94.91,52.66c-0.82,0.09-1.24,0.14-2.04,0.34
		c-0.4,0.09-35.88,6.36-71.32-52.99c-2.81-4.71-5.63-9.87-8.43-15.45c-2.41-4.81-4.81-9.94-7.18-15.44
		c-1.07-2.47-2.13-4.98-3.19-7.6c-3.76-9.33-6.55-37.66-9.8-70.47c-0.77-7.84-1.58-16.12-2.47-24.8
		c-3.92-44.34-12.37-85.16-18.49-110.71c-3.67-15.28-6.51-25.11-7.05-26.95c-0.18-0.63-0.47-1.21-0.75-1.78
		c-0.15-0.32-0.3-0.63-0.47-0.92c-2.61-15.82-5.36-32.22-7.87-46.61c-1.26-7.06-2.5-14.03-3.73-20.92
		c-13.07-70.87-26.05-141.57-26.75-145.37C992.87,729.88,992.86,729.82,992.85,729.75L992.85,729.75L992.85,729.75z
		 M1310.96,1182.91c-0.15,1.06-0.32,2.11-0.48,3.17h-0.91C1310.05,1185.03,1310.5,1183.97,1310.96,1182.91z M733.93,779.29
		c10.93-15.47,25.07-28.1,42.9-37c0,0-0.01,0.04-0.01,0.04c13.29-8.16,29.27-15.19,48.58-20.34c94.75-25.26,130.06,2.22,137.36,9.42
		c4.21,22.27,45.53,243.41,45.53,243.41c1.09,5.07,2.18,10.13,3.24,15.03c5.86,26.99,11.01,50.84,14.1,73
		c0.56,4,1.07,7.96,1.48,11.85c0.38,3.57,0.74,7.08,1.1,10.53c0.63,6.83,1.12,13.75,1.5,20.68c0.43,7.91,0.68,15.84,0.71,23.74
		c0.05,12.61-0.44,25.11-1.68,37.19c-0.67,6.57-1.6,12.98-2.73,19.25c-0.95,5.28-2.05,10.44-3.36,15.44
		c-1.4,5.34-3.04,10.49-4.89,15.45c-5.09,13.7-11.89,25.86-20.94,35.62c-14.74,15.91-34.27,23.9-59.47,24.43
		c-1.6,0.03-3.15,0.13-4.78,0.11c-13.61-0.2-26.18-2.19-37.84-5.7c-30.11-9.06-54.09-28.4-73.54-54.46
		c-3.67-4.92-7.19-10.08-10.55-15.45c-3.11-4.97-6.09-10.12-8.95-15.44c-28.94-53.74-45.67-124.2-59.17-191.47
		c-2.75-13.69-5.36-27.24-7.92-40.5c-7.14-37.08-13.93-72.15-22-102.72c-0.41-1.54-0.8-3.13-1.22-4.65
		c-0.13-0.49-0.26-0.94-0.39-1.44c-0.64-2.33-1.25-4.59-1.85-6.78C714.03,816.19,722.08,796.06,733.93,779.29z M423.42,964.95
		c-23.06-103.23-48.95-223.82-73.99-340.46c-18.6-86.62-36.17-168.44-51.94-240.2c-21.65-98.53,23.08-149.25,67.96-162.75
		c8.5-2.56,17.59-3.92,26.96-4.02c43.47-0.46,93.08,26.97,119.61,95.76c57.85,150.01,165.24,530.71,171.05,551.37
		c1.67,11.49,21.93,90.36,36.54,167.77c0.13,0.7,0.53,1.3,0.85,1.91c11.7,53.33,26.36,106.76,48.44,151.75H601.05H466.94
		C453.88,1113.17,438.55,1032.72,423.42,964.95z M1376.37,1734.41c-50.42,34.4-107.62,65.21-169.23,90.5
		c-164.27,67.42-328.35,84.85-450.17,47.77c-108.91-33.15-174.75-98.74-213.38-156.02h273.89h583.86
		C1393.22,1722.67,1384.9,1728.59,1376.37,1734.41z M1826.01,1606.61c0,43.65-35.51,79.17-79.17,79.17h-86.55v165.37l-196.52-165.37
		h-66.83h-6.96h-38.08H771.7H524.73h-18.58h-15.16h-81.93H361.2h-57.02c-43.65,0-79.17-35.52-79.17-79.17v-310.48
		c0-43.66,35.52-79.17,79.17-79.17h137.9h10.63h0.04h19.68h119.25h0.51h10.31h183.67c28.38,44.29,66.96,75.97,121.57,83.85
		c7.78,1.12,15.86,1.79,24.3,1.92c0.84,0.01,1.67,0.02,2.51,0.02c35.8,0,64.62-11.52,85.68-34.25c7-7.56,12.86-16.23,17.78-25.68
		c4.21-8.07,7.74-16.72,10.62-25.86h5.34h1.98c3.73,7.03,7.53,13.41,11.37,19.26c42.68,65.15,89.94,60.48,99.56,58.73
		c59.88-6.61,99.65-37.37,125.94-77.99h12.18h18.21h12.69h20.09h110.54h12.54h69.93h6.16h0h2.51h30.64h30.34h3.63h124.57
		c43.66,0,79.17,35.51,79.17,79.17V1606.61z"/>
	<g>
		<path fill="#004075" d="M1308.63,1293.2c-8.29-6.75-19.76-9.04-30.23-6.88c-14.1,2.9-26.34,13.85-26.34,32.9
			c0,1.67,0.12,3.26,0.3,4.8c0.46,3.93,1.48,7.44,2.95,10.57c3.16,6.73,8.38,11.6,14.55,14.62c20.19,9.89,50.34-0.09,50.34-29.99
			c0-0.14-0.02-0.26-0.02-0.4C1320.07,1307.26,1315.43,1298.73,1308.63,1293.2z"/>
		<path fill="#004075" d="M622.45,1474.87c-0.15-0.01-0.28-0.03-0.43-0.03c-29.5-1.95-43.1-10.45-43.1-25.51
			c0-11.82,9.85-19.63,28.02-22.23c4.38-0.62,9.24-0.96,14.57-0.96c22.24,0,41.16,5.2,57.73,20.81l32.17-37.85
			c-26.97-23.66-54.41-30.75-90.84-30.75c-7.77,0-15.99,0.64-24.22,2c-36.88,6.08-74.19,26.78-74.19,70.87
			c0,52.99,52.51,69.08,96.52,72.39c10.23,0.59,18.55,1.63,25.18,3.25c14.85,3.64,21.19,10.24,21.19,21.36
			c0,4.46-1.43,8.53-3.88,12.1c-6.91,10.05-22.17,16.16-38.23,15.81c-26.02-0.47-63.87-14.19-80.43-32.65l-28.39,41.17
			c34.06,35.49,70.97,41.64,107.88,41.64c29.47,0,52.46-6.94,68.97-18.23c20.85-14.26,31.34-35.44,31.34-58.43
			C722.3,1487.65,666.46,1477.71,622.45,1474.87z"/>
		<path fill="#004075" d="M945.78,1404.98c-3.97-3.06-8.18-5.86-12.59-8.41c-2.08-1.2-4.21-2.35-6.39-3.42
			c-16.6-8.23-35.95-12.91-57.56-12.91c-74.29,0-120.67,54.88-120.67,121.61c0,67.18,45.42,121.59,121.14,121.59
			c75.71,0,121.6-54.41,121.6-121.59c0-8.74-0.83-17.26-2.43-25.5C983.3,1447.49,968.25,1422.32,945.78,1404.98z M932.25,1513.83
			c-0.63,4.49-1.61,8.89-2.96,13.12c-7.84,24.56-27.76,43.5-59.59,43.5c-42.11,0-63.4-33.13-63.4-68.6
			c0-35.01,21.76-69.09,63.4-69.09c38.8,0,63.41,34.08,63.41,69.09C933.11,1505.89,932.8,1509.9,932.25,1513.83z"/>
		<path fill="#004075" d="M1141.55,1569.98c-35.96,0-66.24-23.66-66.24-68.13c0-11.26,2.24-21.52,6.2-30.55
			c10.37-23.63,32.92-38.54,60.99-38.54c16.08,0,33.12,6.15,46.85,18.46l36.42-38.33c-10.34-10.15-20.68-17.7-31.52-23.14
			c-15.95-8-32.98-11.4-52.7-11.4c-11.07,0-21.83,1.11-32.09,3.3c-39.66,8.44-71.83,33.25-85.18,74.77
			c-4.31,13.41-6.69,28.53-6.69,45.43c0,82.79,56.31,123.49,123.96,123.49c34.55,0,62.93-10.41,89.91-36.91l-38.8-37.85
			C1178.47,1564.77,1160.01,1569.98,1141.55,1569.98z"/>
		<polygon fill="#004075" points="1257.26,1421.39 1257.26,1618.24 1314.99,1618.24 1314.99,1440.05 1314.99,1384.03 1257.26,1384.03 
					"/>
		<path fill="#004075" d="M1555.37,1384.97l-1.9,32.17c-13.25-23.18-43.06-37.85-74.28-37.85c-12.11-0.08-23.75,1.21-34.71,3.79
			c-31.99,7.54-58.17,26.32-73.16,55.76c-8.77,17.24-13.73,38.1-13.73,62.53c0,81.85,51.1,124.43,120.19,123.97
			c9.08-0.17,19.44-1.93,29.63-5.27c19-6.22,37.45-18.04,46.07-35.89l1.19,14.22l0.78,9.36l0.87,10.47h54.42v-120.33v-21.7v-91.24
			h-10.33H1555.37z M1484.4,1572.34c-38.34,0-69.09-26.5-69.09-70.97c0-44.48,30.76-70.5,69.09-70.5
			C1575.24,1430.87,1575.24,1572.34,1484.4,1572.34z"/>
		<rect x="1659.73" y="1287.51" fill="#004075" width="57.24" height="330.73"/>
		<g>
			<path fill="#004075" d="M485.94,1339.02c-0.72-1.99-1.54-3.91-2.39-5.76c-0.27-0.59-0.54-1.18-0.82-1.76
				c-0.92-1.88-1.85-3.69-2.77-5.38c-1.12-2.05-2.32-4.04-3.57-6.02l4.09,0h0.42l13.74-0.01c0.99,0,1.98,0.01,2.96,0.01
				c8.23,0,16.46,0.01,24.75,0.05c0.49,0,0.92-0.09,1.37-0.15c2.09-0.26,3.8-1.09,5.19-2.6c0.43-0.47,0.85-0.96,1.23-1.56
				c0.66-1.04,1.34-2.07,2.01-3.1c2.73-4.27,5.47-8.52,8.25-12.76l3.38-5.18c1.67-2.56,3.34-5.11,5.25-8l4.57-6.94h-0.9l-8.79,0
				l-53.03,0.18l-18.04,0.06h-0.26l-12.38,0.04l-82.31,0.28c-13.11,0.05-26.22,0.09-39.34,0.09h-2.52c-3.38,0-5.87,1.36-7.64,4.15
				c-1.95,3.1-4.01,6.15-6.06,9.19l-17.65,26.54h8.33c3.27,0,6.47-0.02,9.62-0.04c6.66-0.04,13.08-0.08,19.5,0.07
				c2.63,0.07,5.27,0.08,7.9,0.08l8.39-0.02c8.48,0,17.52,0.14,26.47,1.82c12.24,2.3,21.95,6.01,29.85,11.46l0,0
				c0,0,5.94,2.87,11.35,10.47c0.38,0.48,0.74,0.96,1.08,1.44h-0.1c5.23,8.06,9.55,20.82,6.8,40.11c0.01,0,0.01,0,0.02,0
				c-0.32,2.71-0.8,5.26-1.41,7.66c-0.01,0.03-0.01,0.06-0.02,0.09c-0.05,0.2-0.11,0.39-0.16,0.59c-0.07,0.25-0.13,0.51-0.21,0.76
				c-0.12,0.41-0.23,0.81-0.37,1.2c-0.72,2.27-1.57,4.42-2.59,6.44c-6.21,12.35-16.58,20.83-32.62,26.7
				c-15.27,5.59-32.15,8.3-51.64,8.3c-6.07,0-12.37-0.25-19.28-0.77c-0.42-0.03-0.79-0.05-1.12-0.05c-1.89,0-3.41,0.58-4.52,1.73
				c-1.73,1.79-1.65,4.11-1.62,5.1c0.3,8.65,0.46,17.31,0.61,25.97c0.04,2.73,1.27,4.53,2.33,5.79c9.6,11.36,19.18,22.73,28.76,34.1
				l9.31,11.05l21.71,25.74c3.89,4.61,7.76,9.22,11.65,13.83c16.66,19.75,33.32,39.5,49.94,59.28c1.94,2.3,4.27,3.38,7.33,3.38h0.29
				c7.19-0.14,14.38-0.25,21.57-0.37c5.41-0.09,10.83-0.19,16.24-0.28c0.98-0.02,1.96-0.03,2.94-0.05c1.87-0.03,5.35-0.08,7.46-2.77
				c2.1-2.67,1.32-6.11,0.94-7.74c-0.48-2.18-1.77-3.57-2.62-4.49c-0.17-0.18-0.33-0.35-0.49-0.55l-16.67-20.76L458,1558.68
				l-44.75-55.75l-28.14-35.06c4.33-0.44,8.51-0.91,12.75-1.62c20.89-3.49,38-9.95,52.33-19.76c5.53-3.79,10.5-7.95,14.93-12.45
				c7.84-7.95,13.86-17.02,18.2-27.09c2.38-5.55,4.23-11.41,5.54-17.57c0.07-0.31,0.15-0.62,0.22-0.93
				C493.91,1363.02,486.23,1339.88,485.94,1339.02z"/>
		</g>
	</g>
</g>
</svg>
