<svg xmlns="http://www.w3.org/2000/svg" width="22.054" height="18.471" viewBox="0 0 22.054 18.471"><defs><style>.a{fill:none;stroke:#bdc1c3;stroke-width:0.5px;}</style></defs><path class="a" d="M25.862,14.291,17.945,6.885a.4.4,0,0,0-.314-.135c-.247.011-.561.185-.561.449v3.715a.24.24,0,0,1-.2.23C8.995,12.35,5.679,18.242,4.506,24.358c-.045.241.281.466.432.275,2.873-3.619,6.369-5.982,11.9-6.026a.278.278,0,0,1,.236.269v3.647a.482.482,0,0,0,.814.3l7.974-7.536a.62.62,0,0,0,.2-.471A.752.752,0,0,0,25.862,14.291Z" transform="translate(-4.249 -6.5)"/></svg>