<?xml version="1.0" encoding="utf-8"?>
<!-- Generator: Adobe Illustrator 25.0.1, SVG Export Plug-In . SVG Version: 6.00 Build 0)  -->
<svg version="1.1" id="Layer_1" xmlns="http://www.w3.org/2000/svg" xmlns:xlink="http://www.w3.org/1999/xlink" x="0px" y="0px"
	 viewBox="0 0 1000 1000" style="enable-background:new 0 0 1000 1000;" xml:space="preserve">
<style type="text/css">
	.st0{fill:#4DBAE6;}
</style>
<g>
	<g>
		<path class="st0" d="M345.08,495.55c-12.54-1.8-21.75-12.23-22.49-24.41c-8.29-0.75-16.49,1.57-23.23,6.62
			c-7.23,5.41-11.92,13.3-13.2,22.22c-2.64,18.36,10.13,35.5,28.47,38.22l0.46,0.05c0.02,0,0.33,0.04,0.35,0.05
			c12.28,1.34,37.01,4.04,55.92,18.22l-7.67-65.35C358.24,494.92,351.68,496.5,345.08,495.55z"/>
		<path class="st0" d="M700.63,477.75c-6.75-5.05-14.95-7.38-23.26-6.61c-0.79,12.27-9.97,22.61-22.46,24.41
			c-6.15,0.88-12.28-0.41-17.5-3.64l-8.1,64.09c18.79-13.72,43.01-16.39,54.96-17.69c0.13-0.02,0.26-0.02,0.39-0.03l0.9-0.11
			c18.13-2.69,30.9-19.83,28.26-38.19C712.55,491.06,707.87,483.17,700.63,477.75z"/>
		<path class="st0" d="M860.02,629.46c-2.44-5.66-4.88-11.32-4.86-15.81l-0.03-0.99c-0.5-4.3,1.29-9.47,3.08-14.66
			c2.59-7.49,5.2-15,3.77-23.65c-1.4-8.54-6.31-15.36-11.22-22.18c-3.57-4.96-7.13-9.91-8.1-14.37l-0.26-1
			c-1.39-4.04-0.76-9.51-0.12-14.97c0.92-7.83,1.83-15.69-1.44-23.91c-3.22-8.05-9.47-13.65-15.73-19.25
			c-4.56-4.08-9.11-8.16-11.01-12.31l-0.46-0.89c-2.23-3.65-2.78-9.11-3.33-14.57c-0.79-7.88-1.59-15.79-6.55-23.09
			c-4.86-7.16-12.18-11.29-19.49-15.41c-5.31-3-10.61-5.99-13.39-9.68l-0.66-0.76c-2.94-3.06-4.65-8.28-6.36-13.5
			c-2.46-7.51-4.93-15.04-11.38-21.14v-0.03c-6.25-5.9-14.31-8.38-22.35-10.84c-5.83-1.79-11.67-3.57-15.15-6.55l-0.8-0.61
			c-3.53-2.35-6.33-7.09-9.14-11.85c-4.02-6.81-8.05-13.64-15.65-18.2c-7.44-4.47-15.8-5.15-24.15-5.82
			c-6.13-0.5-12.27-0.99-16.22-3.11l-0.89-0.43c-2.63-1.03-5.15-3.16-7.64-5.63h2.04c10.92,0,20.87-4.48,28.1-11.7l0.02-0.01
			l0.02-0.02c7.22-7.23,11.69-17.18,11.69-28.1v-15.12c0-10.93-4.48-20.88-11.71-28.11l0.02-0.02
			c-6.24-6.24-14.54-10.42-23.77-11.44L767.76,0H682.9L549.01,237.67h79.11h6.97l3.58-8.47h3.86c5.52,0,10.55,2.27,14.19,5.92h0.04
			c3.62,3.62,5.88,8.65,5.88,14.19v15.12c0,5.55-2.25,10.57-5.88,14.2l-0.04,0.04c-3.62,3.63-8.65,5.88-14.19,5.88h-30.91
			c-3.97-0.54-7.97-0.4-11.97,0h-28.08h-72.33h-0.17H427.7h-70.22c-5.54,0-10.57-2.25-14.19-5.88v-0.04
			c-3.64-3.65-5.91-8.68-5.91-14.2v-15.12c0-5.52,2.27-10.55,5.91-14.19c3.65-3.65,8.68-5.92,14.19-5.92h8.84l3.58,8.47h6.97h79.11
			h6.97L596.82,0h-91.3l-9.86,15.93L487.79,0h-85.96l44.04,88.86l-29.46,55.19L327.26,0h-90.03l120.76,209.48h-0.51
			c-10.96,0-20.92,4.48-28.13,11.69c-7.21,7.21-11.69,17.17-11.69,28.13v15.12c0,10.96,4.48,20.93,11.69,28.13l0.02-0.01
			c7.23,7.23,17.19,11.71,28.11,11.71h1.67c-2.96,2.79-5.9,5.22-8.8,6.36l-0.93,0.43c-3.78,2.03-9.24,2.28-14.72,2.54
			c-7.94,0.37-15.9,0.74-23.44,5.27c-7.36,4.44-11.9,11.54-16.43,18.64c-3.29,5.16-6.58,10.32-10.36,12.85l-0.8,0.6
			c-3.23,2.78-8.54,4.21-13.86,5.64c-7.64,2.05-15.31,4.12-21.74,10.21c-6.29,5.96-9.17,13.83-12.05,21.7
			c-2.11,5.77-4.23,11.53-7.36,14.82l-0.63,0.77c-2.52,3.36-7.42,5.91-12.33,8.46c-7,3.64-14.02,7.29-18.99,14.64
			c-4.87,7.2-6,15.51-7.12,23.81c-0.82,6.08-1.65,12.17-4,16.03l-0.49,0.9c-1.76,3.86-5.97,7.38-10.2,10.91
			c-6.06,5.05-12.14,10.14-15.41,18.37c-3.22,8.1-2.53,16.44-1.85,24.77h0c0.5,6.12,1,12.24-0.46,16.53l-0.27,0.97
			c-0.89,4.19-4.24,8.52-7.61,12.87c-4.84,6.27-9.7,12.55-11.12,21.26c-1.39,8.53,1.08,16.56,3.55,24.57
			c1.8,5.85,3.6,11.7,3.09,16.26l-0.03,0.96c0.02,4.25-2.33,9.25-4.69,14.23c-3.38,7.16-6.78,14.34-6.29,23.15
			c0.47,8.63,4.62,15.94,8.75,23.25c3.02,5.33,6.03,10.66,6.51,15.16l0.16,0.99c0.94,4.16-0.28,9.52-1.51,14.89
			c-1.76,7.72-3.53,15.46-1.16,23.95c2.33,8.37,7.94,14.63,13.55,20.85c4.11,4.58,8.22,9.15,9.63,13.4l0.37,0.93
			c1.82,3.88,1.78,9.38,1.74,14.88c-0.07,7.94-0.13,15.92,3.98,23.66c4.06,7.64,10.89,12.54,17.71,17.43c5,3.59,10,7.17,12.3,11.03
			l0.56,0.83c2.58,3.35,3.73,8.74,4.87,14.14c1.63,7.71,3.26,15.44,9.01,22.2l-0.02,0.02c5.62,6.6,13.35,9.92,21.07,13.24
			c5.62,2.41,11.24,4.82,14.35,8.14l0.73,0.7c3.26,2.73,5.52,7.73,7.79,12.74c3.26,7.19,6.53,14.4,13.6,19.78
			c6.93,5.26,15.15,6.83,23.37,8.39c6.02,1.16,12.04,2.31,15.8,4.87l0.86,0.5c3.72,1.94,7.03,6.37,10.34,10.8
			c4.74,6.34,9.49,12.69,17.53,16.41c7.83,3.62,16.24,3.38,24.63,3.14c6.12-0.16,12.24-0.34,16.48,1.38l0.97,0.33
			c4.12,1.11,8.26,4.69,12.41,8.28c6.01,5.19,12.04,10.4,20.65,12.29c8.42,1.85,16.58-0.19,24.72-2.22v-0.01
			c5.94-1.47,11.89-2.96,16.38-2.2l0.99,0.09c4.24,0.21,9.09,2.83,13.95,5.45c6.94,3.76,13.91,7.52,22.75,7.52
			c8.68,0,16.18-3.74,23.67-7.46c5.5-2.74,11-5.47,15.51-5.69l1-0.1c4.21-0.71,9.51,0.8,14.82,2.32c7.58,2.17,15.19,4.35,23.85,2.43
			c8.47-1.87,15-7.12,21.52-12.39c4.79-3.85,9.58-7.71,13.92-8.89l0.96-0.3c3.97-1.61,9.46-1.27,14.96-0.93
			c7.89,0.49,15.8,0.98,23.8-2.71c7.86-3.65,13.11-10.2,18.36-16.74c3.85-4.8,7.7-9.59,11.68-11.68l0.9-0.54
			c3.52-2.42,8.94-3.26,14.36-4.1c7.84-1.22,15.71-2.44,22.71-7.78c6.87-5.24,10.6-12.77,14.33-20.29
			c2.73-5.51,5.45-11.02,8.89-13.91l0.74-0.7c2.89-3.09,8.02-5.09,13.16-7.09c7.4-2.88,14.81-5.77,20.52-12.49
			c5.59-6.59,7.61-14.76,9.63-22.9c1.47-5.94,2.94-11.88,5.72-15.5l0.56-0.83c2.17-3.66,6.73-6.7,11.3-9.74
			c6.6-4.4,13.22-8.81,17.36-16.63c4.03-7.61,4.25-16.03,4.47-24.44c0.16-6.12,0.32-12.24,2.24-16.35l0.4-0.93
			c1.35-4.08,5.15-8.03,8.95-11.97c5.49-5.7,10.99-11.42,13.35-19.93c2.32-8.35,0.73-16.59-0.86-24.81
			c-1.16-6.03-2.32-12.06-1.34-16.47l0.16-1c0.43-4.24,3.31-8.94,6.19-13.64c4.13-6.74,8.28-13.51,8.75-22.34
			C866.65,644.83,863.33,637.15,860.02,629.46z M848,576.63c1.72,10.42-4.95,20.58-6.53,30.83l-1.67-17.31l-3.51-21.68l-4.79-21
			C836.44,557.28,846.29,566.24,848,576.63z M827.68,503.15c4.02,10.06-0.67,21.77,0.29,32.34l-2.82-9.49l-7.58-20.61l-8.89-20.08
			l-4.23-8.1C811.26,486.23,823.62,492.97,827.68,503.15z M792.04,435.75c6.09,8.97,4.03,21.41,7.23,31.53l-0.75-1.44l-11.38-18.78
			l-12.57-18.01l-10.99-13.79C772.16,422.71,785.84,426.63,792.04,435.75z M742.75,377.6c8.08,7.64,8.52,20.74,14.23,29.98
			l-10.86-11.96l-15.78-15.28l-16.72-14.24l-3.48-2.6C720.13,369.14,734.63,369.92,742.75,377.6z M690.66,576.1l-3.36,0.39
			c-17.19,2.06-28.74,5.54-35.71,10.83c2.5,3.42,4.14,7.43,4.76,11.71c1,6.95-0.77,13.87-4.98,19.49
			c-4.21,5.62-10.35,9.26-17.29,10.26c-1.26,0.18-2.52,0.27-3.76,0.27c-8.38,0-16.07-4.04-20.94-10.47
			c-13.28,21.18-32.5,38.13-55.18,48.65c4.67,3.69,7.68,9.39,7.68,15.8c0,11.11-9.04,20.15-20.14,20.15h-8.89v92.94h9.76
			c13.11,0,23.77,10.67,23.77,23.77c0,4.59-1.33,8.87-3.6,12.51h8.19c29.75,0,53.95,24.2,53.95,53.95c0,8.95-7.28,16.23-16.23,16.23
			H380.43c-8.95,0-16.23-7.28-16.23-16.23c0-29.75,24.2-53.95,53.95-53.95h16.93c-2.27-3.64-3.6-7.92-3.6-12.51
			c0-13.11,10.66-23.77,23.77-23.77h13.7v-92.94h-11.21c-11.11,0-20.15-9.04-20.15-20.15c0-6.56,3.17-12.38,8.04-16.06
			c-22.54-10.59-41.59-27.53-54.74-48.68c-1.52,2.08-3.36,3.95-5.48,5.54c-4.59,3.43-10.05,5.24-15.69,5.24
			c-1.26,0-2.53-0.09-3.8-0.27c-14.34-2.06-24.33-15.41-22.27-29.75c0.62-4.28,2.26-8.29,4.76-11.71
			c-6.97-5.28-18.53-8.77-35.74-10.83l-3.17-0.37c-39.48-5.68-66.88-42.28-61.22-81.6c5.66-39.33,42.26-66.73,81.58-61.07
			c10.13,1.46,19.76,5.05,28.31,10.48l-1.76-15c-9.35-2.29-16.31-10.71-16.31-20.75c0-11.8,9.6-21.39,21.39-21.39h282.6
			c11.8,0,21.39,9.6,21.39,21.39c0,11.38-8.95,20.69-20.17,21.33l-1.69,13.34c8.1-4.82,17.1-8.04,26.54-9.4
			c39.33-5.67,75.92,21.74,81.58,61.07C757.38,533.85,729.99,570.44,690.66,576.1z M682.1,331.39
			c10.02,6.01,13.15,19.65,21.58,27.29l-7.67-5.72l-18.41-11.98l-19.14-10.78l-13.21-6.36C656.44,328.22,671.92,325.28,682.1,331.39
			z M621.29,304.26c6.06,5.12,10.95,12.27,17.48,16.45l-0.08-0.04l-20.36-8.24l-20.84-6.92l-4.76-1.25H621.29z M379.01,304.26h28.27
			l-4.76,1.25l-20.84,6.92l-20.36,8.24l-1.51,0.73C366.69,317.09,372.48,309.61,379.01,304.26z M318.57,331.01
			c10.22-6.15,24.1-2.26,34.9-6.56l-11.94,5.75l-19.14,10.78l-18.41,11.98l-8.35,6.23C304.11,351.16,308.77,336.93,318.57,331.01z
			 M257.83,377.08c8.06-7.64,21.15-7.38,30.69-12.57l-2.13,1.59l-16.72,14.24l-15.78,15.28l-11.65,12.83
			C248.18,398.78,249.84,384.68,257.83,377.08z M208.41,435.14c6.19-9.15,18.92-11.75,27.12-18.77l-10.1,12.67l-12.57,18.01
			l-11.38,18.78l-1.36,2.61C203.57,457.81,202.36,444.08,208.41,435.14z M172.63,502.46c4.03-10.14,15.63-15.41,22.18-23.84
			l-3.49,6.68l-8.89,20.08L174.84,526l-3.15,10.6C172.73,525.51,168.67,512.44,172.63,502.46z M152.16,575.9
			c1.7-10.44,11.28-17.94,16.05-27.16l-4.5,19.73l-3.51,21.68l-1.77,18.32C156.79,597.69,150.48,586.19,152.16,575.9z
			 M147.95,652.03c-0.58-10.54,7.12-19.91,9.82-29.9l-0.38,11.83l0.7,21.95l2.11,21.86l0.68,4.19
			C156.87,671.97,148.52,662.26,147.95,652.03z M160.21,727.27c-2.74-9.83,2.33-20.27,3.1-30.31l0.4,2.49l4.89,21.41l6.25,21.06
			l4.25,11.54C173,744.68,162.93,737.04,160.21,727.27z M188.35,798.12c-4.74-8.92-2.13-20.08-3.44-29.99l6.41,14.48l10.16,19.47
			l10.21,16.84C203.89,812.01,192.96,806.8,188.35,798.12z M231.07,861.27c-6.45-7.58-6.39-18.82-9.64-28.13l4,5.74l13.69,17.17
			l14.76,16.26l4.32,4.18C249.12,871.46,237.4,868.71,231.07,861.27z M286.36,913.76c-7.72-5.86-10.13-16.45-15.03-24.75
			l15.05,12.81l17.6,13.14l11.89,7.74C305.97,919.82,294.07,919.61,286.36,913.76z M351.65,953.13
			c-8.84-4.08-13.47-13.97-20.09-21.03l9.97,5.62l19.79,9.53l20.31,8.22C371.53,954.94,360.22,957.09,351.65,953.13z M423.87,977.55
			c-9.31-2.04-15.88-10.42-23.65-15.9l2.3,0.76l21.24,5.57l21.56,4.2l8.76,1.13C443.98,974.91,433.22,979.6,423.87,977.55z
			 M499.65,985.87c-9.58,0.01-17.83-6.83-26.64-10.51l16.01,1.03l21.96,0l17.12-1.1C518.62,979.04,509.18,985.86,499.65,985.87z
			 M575.45,977.71c-9.39,2.08-18.96-2.87-28.39-4.55l7.62-0.98l21.56-4.2l21.24-5.57l3.5-1.16
			C592.53,966.94,584.76,975.65,575.45,977.71z M647.73,953.44c-8.65,4-18.93,1.32-28.42,1.65l19.38-7.85l19.79-9.53l11.03-6.21
			C662.29,938.91,656.53,949.36,647.73,953.44z M713.09,914.2c-7.78,5.92-18.75,5.36-28.12,7.94l11.04-7.19l17.6-13.14l15.9-13.53
			C724.13,897.04,720.75,908.37,713.09,914.2z M768.49,861.83c-6.37,7.51-17.3,9.3-25.92,13.9l3.54-3.42l14.76-16.26l13.69-17.17
			l4.79-6.87C775.68,841.89,774.95,854.23,768.49,861.83z M811.34,798.77c-4.65,8.79-15.11,12.89-22.55,19.36l9.73-16.05
			l10.16-19.47l6.93-15.66C814.04,777.48,816.06,789.86,811.34,798.77z M839.63,727.98c-2.73,9.88-12.53,16.23-18.36,24.49
			l3.88-10.55l6.25-21.06l4.89-21.41l0.65-4C837.54,706.21,842.37,718.1,839.63,727.98z M839.31,680.81l0.49-3.03l2.11-21.86
			l0.7-21.95l-0.43-13.29c2.71,10.67,10.43,21.55,9.87,32.09C851.5,663.06,843.19,671.41,839.31,680.81z"/>
	</g>
</g>
</svg>
