<svg xmlns="http://www.w3.org/2000/svg" width="6.226" height="8.5" viewBox="0 0 6.226 8.5"><defs><style>.a{fill:#7f7f7f;}</style></defs><path class="a" d="M139.936,5.35a.386.386,0,0,1-.041-.134V5.208a.311.311,0,0,1,.026-.125.4.4,0,0,0,.032-.2.454.454,0,0,0-.1-.189.383.383,0,0,1-.069-.122l0-.009a.313.313,0,0,1,0-.127.4.4,0,0,0-.012-.2.454.454,0,0,0-.134-.164.382.382,0,0,1-.094-.1l0-.008a.312.312,0,0,1-.028-.124.4.4,0,0,0-.056-.2.454.454,0,0,0-.166-.131.38.38,0,0,1-.114-.082l-.006-.006a.312.312,0,0,1-.054-.115.4.4,0,0,0-.1-.18h0a.457.457,0,0,0-.19-.092.382.382,0,0,1-.129-.056l-.007-.005a.312.312,0,0,1-.078-.1.4.4,0,0,0-.133-.155.454.454,0,0,0-.205-.049.387.387,0,0,1-.138-.026l-.008,0a.207.207,0,0,1-.065-.048h.017a.338.338,0,0,0,.239-.1h0a.337.337,0,0,0,.1-.239V2.119a.337.337,0,0,0-.1-.239h0a.338.338,0,0,0-.2-.1L139.152,0h-.721l-1.138,2.02h.732l.03-.072h.033a.17.17,0,0,1,.121.05h0a.17.17,0,0,1,.05.121v.129a.17.17,0,0,1-.05.121h0a.17.17,0,0,1-.121.05h-.263a.433.433,0,0,0-.1,0h-2.058a.17.17,0,0,1-.121-.05h0a.171.171,0,0,1-.05-.121V2.119a.172.172,0,0,1,.171-.171h.075l.03.072h.791L137.7,0h-.776l-.084.135L136.772,0h-.731l.374.755-.25.469L135.407,0h-.765l1.026,1.781h0a.339.339,0,0,0-.338.338v.129a.337.337,0,0,0,.1.239h0a.337.337,0,0,0,.239.1h.014a.257.257,0,0,1-.075.054l-.008,0a.313.313,0,0,1-.125.022.4.4,0,0,0-.2.045.457.457,0,0,0-.14.158.38.38,0,0,1-.088.109l-.007.005a.313.313,0,0,1-.118.048.4.4,0,0,0-.185.087.453.453,0,0,0-.1.184.385.385,0,0,1-.063.126l-.005.007a.315.315,0,0,1-.1.072.4.4,0,0,0-.161.124.454.454,0,0,0-.061.2.383.383,0,0,1-.034.136l0,.008a.313.313,0,0,1-.087.093.4.4,0,0,0-.131.156.453.453,0,0,0-.016.211h0a.386.386,0,0,1,0,.141l0,.008a.31.31,0,0,1-.065.109.4.4,0,0,0-.095.181.455.455,0,0,0,.03.209.383.383,0,0,1,.026.138v.008a.315.315,0,0,1-.04.121.4.4,0,0,0-.053.2.456.456,0,0,0,.074.2.385.385,0,0,1,.055.129v.008a.313.313,0,0,1-.013.127.4.4,0,0,0-.01.2.453.453,0,0,0,.115.177.386.386,0,0,1,.082.114l0,.008a.314.314,0,0,1,.015.126.4.4,0,0,0,.034.2.455.455,0,0,0,.151.148.387.387,0,0,1,.1.094l0,.007a.314.314,0,0,1,.041.12.4.4,0,0,0,.077.189h0a.457.457,0,0,0,.179.113.381.381,0,0,1,.122.069l.006.006a.312.312,0,0,1,.066.108.4.4,0,0,0,.116.168.452.452,0,0,0,.2.071.387.387,0,0,1,.134.041l.007,0a.315.315,0,0,1,.088.092.4.4,0,0,0,.149.139.454.454,0,0,0,.209.027.383.383,0,0,1,.14.012l.008,0a.31.31,0,0,1,.105.07.4.4,0,0,0,.176.1.455.455,0,0,0,.21-.019h0a.385.385,0,0,1,.139-.019h.008a.316.316,0,0,1,.119.046.4.4,0,0,0,.193.064.453.453,0,0,0,.2-.063.383.383,0,0,1,.132-.048h.008a.315.315,0,0,1,.126.02.4.4,0,0,0,.2.021.452.452,0,0,0,.183-.105.386.386,0,0,1,.118-.076l.008,0a.314.314,0,0,1,.127-.008.4.4,0,0,0,.2-.023.455.455,0,0,0,.156-.142.386.386,0,0,1,.1-.1l.008,0a.311.311,0,0,1,.122-.035.4.4,0,0,0,.193-.066.457.457,0,0,0,.122-.172.385.385,0,0,1,.076-.118l.006-.006a.314.314,0,0,1,.112-.06.4.4,0,0,0,.174-.106.456.456,0,0,0,.082-.195.381.381,0,0,1,.049-.132l0-.007a.311.311,0,0,1,.1-.083.4.4,0,0,0,.148-.141.456.456,0,0,0,.038-.208.384.384,0,0,1,.019-.139l0-.008a.311.311,0,0,1,.076-.1.4.4,0,0,0,.113-.169.453.453,0,0,0-.007-.211.388.388,0,0,1-.011-.14V5.86a.313.313,0,0,1,.053-.116.4.4,0,0,0,.074-.19A.452.452,0,0,0,139.936,5.35Zm-.1-.449c.015.089-.042.175-.056.262l-.014-.147-.03-.184-.041-.178C139.735,4.737,139.819,4.813,139.834,4.9Zm-.173-.625c.034.086-.006.185,0,.275l-.024-.081-.064-.175-.076-.171-.036-.069C139.521,4.133,139.626,4.19,139.661,4.277Zm-.3-.573c.052.076.034.182.061.268l-.006-.012-.1-.16-.107-.153-.093-.117C139.189,3.593,139.305,3.626,139.358,3.7Zm-.419-.494c.069.065.072.176.121.255l-.092-.1-.134-.13-.142-.121-.03-.022C138.747,3.138,138.87,3.144,138.939,3.21ZM138.5,4.9l-.029,0a.641.641,0,0,0-.3.092.223.223,0,0,1-.149.352l-.032,0a.224.224,0,0,1-.178-.089,1.1,1.1,0,0,1-.469.414.171.171,0,0,1-.106.306h-.076v.79h.083a.2.2,0,0,1,.171.308h.07a.459.459,0,0,1,.459.459.138.138,0,0,1-.138.138h-1.94a.138.138,0,0,1-.138-.138.459.459,0,0,1,.459-.459h.144a.2.2,0,0,1,.171-.308h.116v-.79h-.1a.171.171,0,0,1-.1-.308,1.1,1.1,0,0,1-.465-.414.224.224,0,0,1-.18.092l-.032,0a.223.223,0,0,1-.149-.352.643.643,0,0,0-.3-.092l-.027,0a.612.612,0,1,1,.414-1.124l-.015-.127a.182.182,0,0,1,.043-.358h2.4a.182.182,0,0,1,.01.363l-.014.113a.612.612,0,1,1,.4,1.132Zm-.073-2.08c.085.051.112.167.183.232L138.542,3l-.156-.1-.163-.092-.112-.054C138.205,2.79,138.337,2.765,138.424,2.817Zm-.517-.231a1.621,1.621,0,0,0,.149.14h0l-.173-.07L137.7,2.6l-.04-.011Zm-2.059,0h.24l-.04.011-.177.059-.173.07-.013.006A1.859,1.859,0,0,0,135.847,2.586Zm-.514.227c.087-.052.2-.019.3-.056l-.1.049-.163.092-.156.1-.071.053C135.211,2.985,135.25,2.864,135.334,2.814Zm-.516.392c.068-.065.18-.063.261-.107l-.018.014-.142.121-.134.13-.1.109C134.735,3.39,134.749,3.27,134.817,3.205Zm-.42.494c.053-.078.161-.1.231-.16l-.086.108-.107.153-.1.16-.012.022C134.356,3.891,134.346,3.775,134.4,3.7Zm-.3.572c.034-.086.133-.131.189-.2l-.03.057-.076.171-.064.175-.027.09A1.124,1.124,0,0,1,134.093,4.271Zm-.174.624c.014-.089.1-.152.136-.231l-.038.168-.03.184-.015.156A.989.989,0,0,1,133.919,4.9Zm-.036.647c0-.09.061-.169.083-.254l0,.1.006.187.018.186.006.036A.931.931,0,0,1,133.883,5.542Zm.1.64a.763.763,0,0,1,.026-.258l0,.021.042.182.053.179.036.1C134.1,6.33,134.011,6.265,133.988,6.182Zm.239.6a.739.739,0,0,1-.029-.255l.054.123.086.165.087.143C134.359,6.9,134.266,6.858,134.227,6.784Zm.363.537a.7.7,0,0,1-.082-.239l.034.049.116.146.125.138.037.036A.8.8,0,0,1,134.59,7.321Zm.47.446c-.066-.05-.086-.14-.128-.21l.128.109.15.112.1.066A.78.78,0,0,1,135.06,7.767Zm.555.335c-.075-.035-.114-.119-.171-.179l.085.048.168.081.173.07A.729.729,0,0,1,135.615,8.1Zm.614.208c-.079-.017-.135-.089-.2-.135l.02.006.181.047.183.036.074.01A.756.756,0,0,1,136.229,8.309Zm.644.071a.631.631,0,0,1-.226-.089l.136.009h.187l.146-.009A.746.746,0,0,1,136.873,8.38Zm.644-.069a.638.638,0,0,1-.241-.039l.065-.008.183-.036.181-.047.03-.01A.748.748,0,0,1,137.517,8.311Zm.614-.206a.624.624,0,0,1-.242.014l.165-.067.168-.081.094-.053C138.255,7.981,138.206,8.07,138.131,8.1Zm.556-.334a.669.669,0,0,1-.239.067l.094-.061.15-.112.135-.115A.769.769,0,0,1,138.687,7.771Zm.471-.445c-.054.064-.147.079-.22.118l.03-.029.125-.138.116-.146.041-.058A.843.843,0,0,1,139.158,7.326Zm.364-.536c-.04.075-.128.11-.192.165l.083-.136.086-.165.059-.133A.88.88,0,0,1,139.522,6.79Zm.24-.6c-.023.084-.107.138-.156.208l.033-.09.053-.179.042-.182.006-.034A.931.931,0,0,1,139.763,6.188Zm0-.4,0-.026.018-.186.006-.187,0-.113a1.038,1.038,0,0,1,.084.273C139.863,5.636,139.793,5.707,139.76,5.787Z" transform="translate(-133.763)"/></svg>