<?xml version="1.0" encoding="utf-8"?>
<!-- Generator: Adobe Illustrator 16.0.0, SVG Export Plug-In . SVG Version: 6.00 Build 0)  -->
<!DOCTYPE svg PUBLIC "-//W3C//DTD SVG 1.1//EN" "http://www.w3.org/Graphics/SVG/1.1/DTD/svg11.dtd">
<svg version="1.1" id="Layer_1" xmlns="http://www.w3.org/2000/svg" xmlns:xlink="http://www.w3.org/1999/xlink" x="0px" y="0px"
	 width="2000px" height="2000px" viewBox="0 0 2000 2000" enable-background="new 0 0 2000 2000" xml:space="preserve">
<g>
	<g>
		<path fill="#CBCDCF" d="M1388.184,1031.541c0,0,68.055,156.855-3.063,286.799c-71.118,129.935-310.031,230.756-458.6,185.536
			c-139.35-42.409-189.335-190.838-148.842-274.569c0,0-91.071-454.944-114.867-558.371
			c-23.8-103.402,86.104-188.461,134.375-59.474c48.274,128.983,103.75,305.13,103.75,305.13s-1.81-52.15,62.198-80.767
			c64.016-28.623,89.185,15.604,89.185,15.604s16.215-35.952,87.746-38.9c55.758-2.304,91.305,81.468,91.305,81.468
			c9.602-38.418-102.921-465.519,35.584-372.679L1388.184,1031.541z"/>
	</g>
</g>
<g>
	<g>
		<path fill="#AEB0B3" d="M932.443,855.889c0,0-1.086,50.043,20.619,76.592c21.709,26.549,34.845,37.454,34.845,37.454
			l-73.267,56.709C914.639,1026.644,862.631,895.859,932.443,855.889z"/>
	</g>
	<g>
		<path fill="#AEB0B3" d="M1296.467,1414.398c-5.064-3.574-8.945-5.474-8.945-5.474s-270.771,77.739-372.205-43.499
			c-101.429-121.228-44.288-294.895-44.288-294.895l-101.091,143.994c4.926,9.304,7.74,14.781,7.74,14.781
			c-40.493,83.731,9.492,232.16,148.842,274.569C1035.2,1536.948,1192.158,1491.844,1296.467,1414.398z"/>
	</g>
	<g>
		<path fill="#AEB0B3" d="M725.005,556.04c0,0-35.518,40.371,15.521,230.47c51.052,190.1,101.262,324.621,101.262,324.621
			l-68.974,95.548c0,0-76.249-386.146-101.426-520.115C646.2,552.593,686.983,553.834,725.005,556.04z"/>
	</g>
	<g>
		<path fill="#AEB0B3" d="M909.705,774.897c-6.037,0-11.445-4.223-12.719-10.366c-0.392-1.887-39.938-189.499-109.835-261.949
			c-4.983-5.166-4.836-13.396,0.331-18.384s13.393-4.844,18.384,0.331c75.122,77.862,114.925,266.724,116.583,274.725
			c1.458,7.034-3.063,13.912-10.093,15.37C911.465,774.808,910.579,774.897,909.705,774.897z"/>
	</g>
	<g>
		<path fill="#AEB0B3" d="M608.251,542.238c-2.646,0-5.322-0.805-7.63-2.483c-5.808-4.219-7.099-12.352-2.875-18.159
			c17.882-24.613,62.275-64.032,111.285-71.76c7.082-1.14,13.748,3.725,14.867,10.815c1.119,7.095-3.725,13.752-10.815,14.867
			c-40.906,6.449-79.553,41.062-94.302,61.361C616.236,540.38,612.274,542.238,608.251,542.238z"/>
	</g>
	<g>
		<path fill="#AEB0B3" d="M870.535,1550.329c-1.348,0-2.721-0.213-4.068-0.653c-94.788-31.205-136.919-96.736-155.569-146.212
			c-20.079-53.27-17.853-98.856-17.747-100.771c0.389-7.173,6.417-12.769,13.691-12.271c7.164,0.389,12.654,6.511,12.274,13.671
			c-0.355,6.87-6.695,167.491,155.479,220.88c6.821,2.246,10.53,9.599,8.288,16.415
			C881.081,1546.861,875.996,1550.329,870.535,1550.329z"/>
	</g>
	<g>
		<path fill="#AEB0B3" d="M676.38,1084.128c-6.172,0-11.649-4.411-12.78-10.701c-19.323-107.323-80.231-321.133-80.844-323.276
			c-1.969-6.907,2.03-14.1,8.933-16.073c6.891-1.96,14.104,2.026,16.072,8.934c0.617,2.16,61.876,217.207,81.432,325.809
			c1.27,7.066-3.427,13.826-10.493,15.101C677.92,1084.059,677.147,1084.128,676.38,1084.128z"/>
	</g>
	<path fill="#AEB0B3" d="M1376.787,1120.889l-26.105,4.534c-8.496-0.574-18.908-2.893-31.008-8.563
		c-39.633-41.45-38.326-175.46-49.76-250.598c-15.342-100.813-71.572-324.895-71.572-324.895
		c-29.932,80.546-0.842,163.591,12.539,220.524c8.404,35.761,27.812,175.849,41.084,275.102
		c-0.574,51.059-6.976,108.836-27.847,140.509c-0.653,0.524-1.327,1.061-2.024,1.608c9.393-15.166,13.363-29.672,13.363-29.672
		s-15.766,14.826-77.057-40.543c-61.288-55.369-81.236-271.87-81.236-271.87l-29.131,3.219c0,0,14.627,94.98,24.07,121.93
		c9.443,26.974,7.278,67.308,7.278,67.308s1.651,14.523,3.692,33.572c-5.615-9.937-10.117,1.272-10.117,1.272
		s-32.558,53.302-50.395,68.864c-17.828,15.545-19.621,21.517-19.621,21.517s12.58,18.192,19.846,38.933
		c2.478,7.078,3.894,13.441,6.003,18.293l-3.617,1.827c0,0,15.46,57.44,1.258,83.364c0,0,29.44-28.935,47.38-37.541
		c17.939-8.613,26.23-11.521,26.23-11.521s13.695,32.463,47.608,22.914c33.905-9.55,71.642-41.385,71.642-41.385
		s10.061,22.081,44.075,19.487c34.016-2.605,93.927-84.111,93.927-84.111s-0.325,0.367-0.927,1.021
		C1372.227,1143.729,1376.787,1120.889,1376.787,1120.889z"/>
</g>
<g>
	<path fill="#333133" d="M1093.281,1146.298c-4.174,0-7.793-3.12-8.313-7.372l-11.633-95.254c-0.563-4.6,2.709-8.782,7.308-9.342
		c4.64-0.53,8.782,2.713,9.341,7.308l11.633,95.254c0.564,4.599-2.707,8.781-7.307,9.341
		C1093.963,1146.273,1093.62,1146.298,1093.281,1146.298z"/>
</g>
<g>
	<path fill="#333133" d="M1069.195,962.276c-4.484,0-8.206-3.545-8.377-8.066c-1.467-38.468-18.544-105.984-18.716-106.662
		c-1.14-4.488,1.573-9.051,6.062-10.194c4.48-1.14,9.055,1.572,10.195,6.062c0.723,2.834,17.686,69.909,19.221,110.157
		c0.176,4.628-3.435,8.524-8.063,8.7C1069.412,962.276,1069.301,962.276,1069.195,962.276z"/>
</g>
<g>
	<path fill="#333133" d="M913.818,1023.817c-3.463,0-6.707-2.165-7.916-5.616c-11.755-33.57-20.243-92.272-20.598-94.756
		c-0.653-4.583,2.528-8.835,7.115-9.492c4.583-0.666,8.831,2.528,9.492,7.115c0.082,0.592,8.61,59.567,19.822,91.586
		c1.532,4.374-0.772,9.157-5.142,10.689C915.672,1023.666,914.737,1023.817,913.818,1023.817z"/>
</g>
<g>
	<path fill="#333133" d="M1003.619,1517.086c-29.069,0.004-56.688-3.537-81.624-11.131
		c-67.345-20.491-121.876-68.603-149.618-131.997c-23.478-53.642-25.099-111.302-4.338-154.242c2.022-4.174,7.038-5.914,11.204-3.9
		c4.17,2.018,5.914,7.033,3.9,11.204c-18.658,38.586-16.938,91.002,4.6,140.215c15.145,34.612,53.363,96.573,139.137,122.678
		c68.386,20.81,160.499,11.048,252.718-26.819c89.973-36.936,163.273-94.775,196.083-154.72
		c40.016-73.119,25.251-169.521,5.816-237.52c-0.065-0.225-0.118-0.453-0.167-0.682
		c-33.179-168.309-100.703-495.482-118.797-529.036c-6.172-11.444-19.218-29.526-37.063-22.203
		c-26.696,10.95-51.383,74.541-26.189,160.887c24.784,84.937,45.795,216.51,53.869,284.222c0.548,4.599-2.736,8.773-7.335,9.32
		c-4.509,0.564-8.77-2.728-9.321-7.335c-8.01-67.157-28.815-197.55-53.314-281.51c-26.781-91.777-2.201-165.466,35.928-181.101
		c21.603-8.876,43.364,2.259,58.188,29.759c23.686,43.916,115.605,508.978,120.426,533.411
		c20.25,70.996,35.355,171.85-7.328,249.842C1328.559,1429.404,1148.246,1517.086,1003.619,1517.086z"/>
</g>
<g>
	<path fill="#333133" d="M1021.905,1314.762c-1.254,0-2.528-0.282-3.726-0.883c-4.149-2.063-5.836-7.094-3.773-11.24
		c30.947-62.23-18.094-142.703-18.593-143.512c-2.259-3.647-1.397-8.422,1.993-11.053c1.07-0.828,106.47-83.919,67.631-175.231
		c-4.403-10.346-10.465-16.301-18.535-18.208c-30.769-7.312-86.468,39.95-127.084,74.443l-9.721,8.238
		c-54.372,45.909-126.291,188.379-127.01,189.817c-1.638,3.259-5.2,5.085-8.793,4.517c-3.603-0.563-6.429-3.39-6.989-6.992
		c-0.221-1.434-22.505-144.182-44.051-240.685c-12.968-58.049-27.521-125.826-41.596-191.374
		c-10.428-48.568-20.279-94.44-29.114-134.66c-13.675-62.252,15.108-100.617,49.704-111.021
		c34.113-10.268,80.819,4.62,102.765,61.524c25.536,66.214,67.933,211.159,86.938,277.359c8.426-21.688,27.235-46.938,69.023-58.081
		c51.876-13.825,78.038-2.242,89.242,6.217c14.475-12.417,53.522-38.394,113.548-22.991c26.562,6.813,48.519,29.094,65.261,66.226
		c37.206,82.514,40.445,228.607,6.54,294.947c-18.103,35.425-57.493,55.287-93.681,47.2c-19.811-4.42-35.291-16.44-45.098-34.15
		c-2.463,6.829-5.947,13.58-10.832,19.662c-10.963,13.646-26.744,21.334-46.914,22.853c4.484,26.022,3.864,55.316-9.619,82.421
		C1027.959,1313.055,1024.988,1314.762,1021.905,1314.762z M1013.748,1156.672c5.379,9.832,15.33,29.956,21.75,54.671
		c0.609-0.188,1.246-0.311,1.903-0.355c15.513-1.095,27.432-6.682,35.429-16.599c11.58-14.365,13.021-34.849,12.768-46.42
		c-0.347-3.182-0.575-6.441-0.686-9.778c-0.151-4.448,3.198-8.234,7.625-8.635c4.453-0.441,8.402,2.725,9.052,7.128
		c0.077,0.506,0.638,4.477,0.792,10.513c3.533,30.245,18.939,50.35,43.156,55.753c28.841,6.441,60.418-9.741,75.094-38.459
		c28.587-55.941,31.021-196.328-6.898-280.423c-9.995-22.175-27.506-50.043-54.137-56.872
		c-65.91-16.922-102.736,23.444-103.096,23.857c-1.723,1.944-4.264,3.01-6.846,2.794c-2.593-0.176-4.953-1.549-6.4-3.709
		c-0.057-0.073-17.358-22.354-77.959-6.209c-66.373,17.694-63.473,75.322-63.317,77.765c0.274,4.284-2.732,8.096-6.964,8.818
		c-4.236,0.698-8.32-1.858-9.48-5.988c-0.625-2.229-62.95-223.906-96.173-310.043c-18.103-46.947-55.357-59.593-82.281-51.501
		c-25.193,7.576-50.301,36.054-38.149,91.361c8.839,40.261,18.695,86.149,29.126,134.738
		c14.067,65.515,28.616,133.26,41.568,191.238c16.211,72.622,32.818,171.144,40.244,216.729
		c23.044-43.054,75.452-135.428,119.409-172.548l9.68-8.205c45.762-38.864,102.696-87.289,141.808-77.981
		c13.434,3.178,23.563,12.585,30.103,27.963C1119.646,1057.44,1036.965,1136.777,1013.748,1156.672z"/>
</g>
</svg>
