<svg xmlns="http://www.w3.org/2000/svg" width="21.52" height="19.252" viewBox="0 0 21.52 19.252"><defs><style>.a{fill:none;stroke:#bdc1c3;}</style></defs><g transform="translate(0.5 0.695)"><path class="a" d="M1.5,19.558H5.231V8.723H1.5ZM22.02,9.626A1.842,1.842,0,0,0,20.155,7.82H14.269l.886-4.126.028-.289a1.338,1.338,0,0,0-.41-.957L13.784,1.5,7.647,7.45A1.738,1.738,0,0,0,7.1,8.723v9.029a1.842,1.842,0,0,0,1.865,1.806h8.395a1.855,1.855,0,0,0,1.716-1.1l2.817-6.365a1.734,1.734,0,0,0,.131-.659V9.707L22.011,9.7Z" transform="translate(-1.5 -1.5)"/></g></svg>