<svg xmlns="http://www.w3.org/2000/svg" width="21.52" height="19.86" viewBox="0 0 21.52 19.86"><defs><style>.a{fill:none;stroke:#bdc1c3;}</style></defs><g transform="translate(0.5 0.5)"><path class="a" d="M14.558,4.5H6.164A1.853,1.853,0,0,0,4.447,5.638L1.631,12.214a1.843,1.843,0,0,0-.131.681v1.782l.009.009L1.5,14.76a1.871,1.871,0,0,0,1.865,1.865H9.251l-.886,4.263-.028.3a1.4,1.4,0,0,0,.41.989l.989.979,6.147-6.147a1.854,1.854,0,0,0,.541-1.315V6.365A1.871,1.871,0,0,0,14.558,4.5Zm3.731,0V15.693H22.02V4.5Z" transform="translate(-1.5 -4.5)"/></g></svg>