<?xml version="1.0" encoding="utf-8"?>
<!-- Generator: Adobe Illustrator 25.0.1, SVG Export Plug-In . SVG Version: 6.00 Build 0)  -->
<svg version="1.1" id="Layer_1" xmlns="http://www.w3.org/2000/svg" xmlns:xlink="http://www.w3.org/1999/xlink" x="0px" y="0px"
	 viewBox="0 0 323 493.57" style="enable-background:new 0 0 323 493.57;" xml:space="preserve">
<style type="text/css">
	.st0{fill:#7F7F7F;}
</style>
<g>
	<g>
		<path class="st0" d="M296.49,422.35H40.31v-68.21h256.18V422.35z M52.35,410.32h232.11v-44.14H52.35V410.32z"/>
	</g>
	<g>
		<path class="st0" d="M257.57,493.57H79.13v-68.12h178.44V493.57z M91.16,481.54h154.38v-44.05H91.16V481.54z"/>
	</g>
	<g>
		<path class="st0" d="M259.97,351.13H76.7L0,42.52l2.86-2.42C18.88,26.57,42.48,11.65,61.58,2.99L68.16,0l54.87,220.96v-6.09h97.92
			v2.17l41.51-179.52l6.84,3.44c18.71,9.4,35.9,21.24,51.11,35.16l2.59,2.37L259.97,351.13z M86.12,339.1H250.4l59.28-256.45
			c-11.85-10.49-24.92-19.67-38.98-27.37l-49.9,215.84l-11.88-1.35V226.9h-73.85v43.26l-11.86,1.45L60,17.09
			C44.48,24.9,26.58,36.36,13.49,46.93L86.12,339.1z"/>
	</g>
</g>
</svg>
